<svg width="104" height="23" viewBox="0 0 104 23" fill="none" xmlns="http://www.w3.org/2000/svg">
<path fill-rule="evenodd" clip-rule="evenodd" d="M26.8521 22.5V20.6269H27.9104C28.6624 20.6269 29.2304 20.4588 29.6144 20.1227C29.9984 19.7867 30.1748 19.2841 30.1435 18.6149L29.9081 14.7765C29.89 14.3706 29.9335 13.9643 30.0372 13.5714C30.1308 13.2055 30.2989 12.8627 30.531 12.5642C30.761 12.2732 31.054 12.0375 31.3881 11.8746C31.7707 11.6943 32.1877 11.5981 32.6109 11.5924V11.4786C32.1826 11.4741 31.7608 11.3738 31.3767 11.185C31.0383 11.0185 30.7445 10.7743 30.5195 10.4726C30.2941 10.1653 30.1304 9.81755 30.0372 9.44844C29.934 9.05153 29.8905 8.64157 29.9081 8.23194L30.1435 4.39351C30.174 3.72362 29.9976 3.22025 29.6144 2.8834C29.2312 2.54656 28.6632 2.37928 27.9104 2.38155H26.8521V0.500463H27.9104C28.5427 0.492837 29.1725 0.579526 29.779 0.757648C30.2947 0.9078 30.7715 1.16754 31.1767 1.51896C31.5535 1.85537 31.8439 2.27681 32.0235 2.74798C32.2172 3.27115 32.2971 3.82933 32.2578 4.38555L32.0235 8.22397C32.0047 8.58311 32.0204 8.9432 32.0704 9.29937C32.1048 9.56732 32.2195 9.81872 32.3995 10.0209C32.5984 10.2231 32.8509 10.3652 33.1275 10.4305C33.5355 10.5265 33.9542 10.5698 34.3732 10.5591H36.9595V12.4322H34.3732C33.958 12.4221 33.5432 12.4649 33.1389 12.5597C32.8585 12.6233 32.6021 12.765 32.3995 12.9682C32.2198 13.1723 32.1052 13.4251 32.0704 13.6943C32.0205 14.0512 32.0048 14.4121 32.0235 14.7719L32.2578 18.6104C32.2969 19.1666 32.2171 19.7247 32.0235 20.2479C31.8439 20.7188 31.5535 21.1398 31.1767 21.4758C30.7713 21.8272 30.2945 22.0872 29.779 22.2383C29.1725 22.4164 28.5427 22.5031 27.9104 22.4954L26.8521 22.5ZM0.388672 10.5897V12.4594L2.97037 12.4606C3.3898 12.4499 3.80887 12.4932 4.21722 12.5892C4.49385 12.6546 4.74624 12.7966 4.94521 12.9988C5.12693 13.2032 5.24592 13.4552 5.28807 13.7249C5.3456 14.0804 5.35751 14.4417 5.32349 14.8003L5.08007 18.6102C5.04131 19.1665 5.12155 19.7247 5.31549 20.2478C5.49469 20.7188 5.78516 21.14 6.16235 21.4757C6.56754 21.8273 7.04436 22.0874 7.56005 22.2381C8.1665 22.4163 8.79635 22.503 9.42861 22.4953H10.4857V20.6222H9.42861C8.67585 20.6207 8.10786 20.4526 7.72462 20.1181C7.34139 19.7835 7.165 19.2809 7.19548 18.6102L7.43091 14.7946C7.46358 14.3855 7.42491 13.974 7.31662 13.5781C7.21635 13.2077 7.04904 12.8587 6.82291 12.5482C6.59684 12.2469 6.30337 12.0022 5.96578 11.8335C5.58101 11.6468 5.15948 11.5473 4.7315 11.5422V11.4284C5.1582 11.4264 5.57921 11.3308 5.96463 11.1485C6.29894 10.9859 6.59198 10.7502 6.82177 10.4588C7.05519 10.1594 7.22721 9.81723 7.32805 9.45172C7.43679 9.05979 7.47547 8.65187 7.44234 8.2466L7.20691 4.38541C7.17643 3.71324 7.35281 3.20987 7.73605 2.87531C8.11928 2.54074 8.68728 2.37345 9.44004 2.37345H10.4972V0.502606H9.44004C8.80778 0.494894 8.17793 0.581585 7.57148 0.759791C7.05568 0.909707 6.57876 1.16947 6.17377 1.5211C5.79654 1.85718 5.50608 2.27873 5.32692 2.75013C5.13281 3.27321 5.05256 3.83139 5.09149 4.38769L5.32692 8.24887C5.36091 8.60814 5.349 8.97026 5.29149 9.32654C5.24887 9.59542 5.12991 9.84655 4.94864 10.0503C4.74716 10.2554 4.49035 10.3981 4.20922 10.4611C3.80462 10.5564 3.38943 10.5996 2.9738 10.5897H0.388672ZM17.5053 3.74135H18.2847V5.3003C17.7171 5.33555 17.1571 5.44816 16.6203 5.635L16.4664 5.26965L16.8253 5.11943L16.5236 4.40478L15.087 5.00563L15.3887 5.72143L15.7487 5.57121L16.0498 6.28421L16.046 6.28578L15.8986 5.93642C15.4107 6.17896 14.9568 6.4841 14.5486 6.84404L13.4393 5.73953L13.9902 5.19102L13.4393 4.64251L11.7868 6.28804L12.3376 6.83655L12.8885 6.28804L13.9993 7.39416L14.265 7.65753L14.262 7.66047L13.9946 7.39532C13.6184 7.81756 13.3023 8.28929 13.0551 8.79726L12.6893 8.64838L12.8356 8.28991L12.1144 7.99632L11.5258 9.43359L12.247 9.72605L12.3944 9.36759L12.7636 9.5178L13.1121 9.65867L13.1112 9.66105L12.7592 9.5188C12.5854 10.0339 12.4809 10.5696 12.4483 11.112H12.8254L10.8808 11.1121V10.336H10.1025V12.6643H10.8808V11.8882H12.4483C12.4831 12.453 12.5961 13.0104 12.784 13.5445L12.4171 13.6977L12.2662 13.3403L11.5474 13.6408L12.1519 15.0712L12.8696 14.7708L12.7188 14.4134L13.4354 14.114L13.4369 14.1174L13.0872 14.2642C13.3302 14.7498 13.6366 15.2012 13.9983 15.6069L12.8885 16.712L12.3376 16.1635L11.7868 16.712L13.4393 18.3576L13.9902 17.8091L13.4393 17.2606L14.5502 16.1544L14.8164 15.8905L14.8197 15.8938L14.5523 16.159C14.9768 16.5329 15.4503 16.8478 15.9599 17.0948L15.8101 17.4597L15.449 17.3129L15.1553 18.031L16.5976 18.6182L16.8924 17.899L16.5313 17.7533L16.6821 17.3846L16.8249 17.037L16.8288 17.0386L16.6848 17.3891C17.2022 17.562 17.74 17.6664 18.2847 17.6998V19.2589H17.5053V20.0351H19.8424V19.2589H19.063V17.3242L19.0631 17.6998C19.6307 17.6647 20.1908 17.5522 20.7277 17.3655L20.8814 17.7306L20.5225 17.8808L20.8242 18.5954L22.2608 17.9946L21.9591 17.2788L21.5991 17.4301L21.298 16.7159L21.3019 16.7143L21.4494 17.0636C21.9372 16.8211 22.3911 16.516 22.7993 16.1561L23.9085 17.2606L23.3576 17.8091L23.9085 18.3576L25.561 16.712L25.0102 16.1635L24.4593 16.712L23.3485 15.6059L23.0829 15.3426L23.0859 15.3396L23.3534 15.6048C23.7295 15.1826 24.0455 14.711 24.2926 14.2032L24.6578 14.3518L24.5116 14.7103L25.2327 15.0039L25.8213 13.5666L25.1001 13.2741L24.9527 13.6326L24.5836 13.4824L24.2356 13.3418L24.2368 13.339L24.5888 13.4813C24.7625 12.9662 24.8671 12.4306 24.8996 11.8882H26.4659V12.6643H27.2454V10.336H26.4659V11.1121H24.8945C24.8607 10.5475 24.7498 9.99005 24.5639 9.45563L24.93 9.30279L25.0808 9.66012L25.7997 9.35969L25.1951 7.92924L24.4774 8.22967L24.6283 8.587L23.9116 8.88653L23.9099 8.88267L24.2608 8.73587C24.0173 8.25052 23.711 7.79907 23.3496 7.39307L24.4593 6.28804L25.0102 6.83655L25.561 6.28804L23.9085 4.64251L23.3576 5.19102L23.9085 5.73953L22.7976 6.84565L22.5315 7.10952L22.5282 7.10627L22.7957 6.84112C22.371 6.46699 21.8973 6.15207 21.3875 5.90499L21.5371 5.54044L21.8982 5.68724L22.1919 4.96917L20.7497 4.38197L20.4548 5.10118L20.8159 5.24684L20.6651 5.61555L20.5224 5.96281L20.5191 5.96146L20.6631 5.61096C20.1457 5.43808 19.6078 5.33363 19.0631 5.30029V5.67583L19.063 3.74135H19.8424V2.96525H17.5053V3.74135ZM20.5224 5.96281L21.2402 6.25392L21.3842 5.90342L21.3875 5.90499L21.2422 6.25851L20.5211 5.96605L20.5224 5.96281ZM22.5315 7.10952L23.0791 7.65478L23.3465 7.38963L23.3496 7.39307L23.3485 7.39416L23.081 7.65931L22.5302 7.1108L22.5315 7.10952ZM23.9116 8.88653L24.2128 9.59846L24.5625 9.45166L24.5639 9.45563L24.562 9.45642L24.2123 9.60322L23.9094 8.88743L23.9116 8.88653ZM24.5179 11.1121L24.5225 11.8881L24.8996 11.8882H24.5174L24.5179 11.1121ZM24.2356 13.3418L24.2316 13.3401L23.9367 14.0582L24.2926 14.2032L24.2939 14.2005L23.9419 14.0571L24.2356 13.3418ZM23.0829 15.3426L22.5351 15.8881L22.8025 16.1533L22.7993 16.1561L22.7976 16.1544L22.5302 15.8893L23.081 15.3408L23.0829 15.3426ZM21.298 16.7159L21.2974 16.7143L20.5797 17.0148L20.7277 17.3655L20.7317 17.3641L20.5842 17.0147L21.298 16.7159ZM19.063 17.3242H18.2848L18.2847 17.6998V17.3198H19.063V17.3242ZM16.8249 17.037L16.8261 17.0341L16.105 16.7416L15.9599 17.0948L15.9637 17.0967L16.1077 16.7462L16.8249 17.037ZM14.8164 15.8905L14.2689 15.3453L14.0014 15.6104L13.9983 15.6069L13.9993 15.6059L14.2668 15.3408L14.8176 15.8893L14.8164 15.8905ZM13.4354 14.114L13.4376 14.113L13.1348 13.3972L12.7851 13.544L12.784 13.5445L12.7854 13.5484L13.1352 13.4016L13.4354 14.114ZM12.4483 11.8882L12.8254 11.8881V11.112L12.8294 11.1121V11.8882H12.4483ZM13.1121 9.65867L13.406 8.94298L13.054 8.7996L13.0551 8.79726L13.4104 8.94198L13.1155 9.66005L13.1121 9.65867ZM14.265 7.65753L14.8129 7.11196L14.5454 6.84681L14.5486 6.84404L14.5502 6.84565L14.8176 7.1108L14.2668 7.65931L14.265 7.65753ZM16.0498 6.28421L16.0505 6.28587L16.7682 5.98544L16.6203 5.635L16.6174 5.636L16.7648 5.98536L16.0498 6.28421ZM19.0631 5.67583L19.063 5.68048H18.2847V5.3003L18.2848 5.67583H19.0631ZM22.5305 15.3407C21.6376 16.2288 20.4632 16.781 19.2072 16.9035C17.9513 17.0259 16.6915 16.711 15.6426 16.0123C14.5937 15.3135 13.8206 14.2743 13.4549 13.0716C13.0892 11.869 13.1536 10.5772 13.6372 9.41656C14.1207 8.25586 14.9934 7.29802 16.1067 6.70621C17.2199 6.1144 18.5048 5.92525 19.7424 6.17097C20.98 6.4167 22.0937 7.08211 22.8939 8.05383C23.694 9.02554 24.131 10.2434 24.1305 11.5C24.1321 12.2138 23.9915 12.9207 23.7168 13.58C23.4422 14.2392 23.039 14.8377 22.5305 15.3407ZM18.6742 8.39677C18.5201 8.39677 18.3694 8.35126 18.2412 8.26598C18.113 8.1807 18.0131 8.05949 17.9541 7.91767C17.8952 7.77586 17.8797 7.61981 17.9098 7.46926C17.9399 7.31871 18.0141 7.18042 18.1231 7.07188C18.2321 6.96334 18.371 6.88942 18.5222 6.85947C18.6734 6.82953 18.8301 6.8449 18.9725 6.90364C19.1149 6.96238 19.2367 7.06186 19.3223 7.18949C19.4079 7.31712 19.4537 7.46717 19.4537 7.62067C19.4544 7.7228 19.4348 7.82406 19.3959 7.91857C19.357 8.01307 19.2996 8.09893 19.2271 8.17115C19.1545 8.24337 19.0683 8.3005 18.9734 8.33924C18.8785 8.37797 18.7768 8.39753 18.6742 8.39677ZM15.7467 10.1063C15.8885 10.1649 16.0405 10.195 16.194 10.1949C16.4648 10.1952 16.7274 10.102 16.9369 9.93113C17.1464 9.76028 17.2899 9.52236 17.3429 9.25794C17.396 8.99352 17.3553 8.71896 17.2279 8.48105C17.1004 8.24315 16.894 8.05663 16.6439 7.95329C16.3937 7.84994 16.1154 7.83617 15.8562 7.91432C15.597 7.99247 15.3731 8.1577 15.2225 8.38185C15.072 8.606 15.0042 8.87519 15.0307 9.14355C15.0572 9.41191 15.1763 9.66281 15.3678 9.8535C15.4761 9.96178 15.6049 10.0477 15.7467 10.1063ZM16.1944 9.41957C16.091 9.41967 15.9918 9.37887 15.9186 9.30613C15.8454 9.2334 15.8042 9.13468 15.8041 9.03171C15.804 8.92874 15.845 8.82994 15.918 8.75706C15.9911 8.68417 16.0902 8.64316 16.1936 8.64305C16.297 8.64295 16.3963 8.68375 16.4695 8.75649C16.5427 8.82922 16.5838 8.92794 16.584 9.03091C16.5841 9.13388 16.5431 9.23268 16.47 9.30556C16.397 9.37845 16.2979 9.41946 16.1944 9.41957ZM21.1533 10.1948C20.8828 10.195 20.6206 10.1017 20.4114 9.93102C20.2022 9.7603 20.0589 9.52262 20.006 9.25848C19.953 8.99435 19.9937 8.7201 20.121 8.48248C20.2484 8.24486 20.4546 8.05856 20.7044 7.95533C20.9542 7.8521 21.2323 7.83833 21.4912 7.91637C21.7501 7.9944 21.9738 8.15941 22.1242 8.38328C22.2746 8.60715 22.3424 8.87602 22.316 9.14408C22.2897 9.41215 22.1708 9.66281 21.9796 9.85336C21.8712 9.96164 21.7425 10.0475 21.6007 10.1061C21.4589 10.1647 21.3068 10.1948 21.1533 10.1948ZM21.1533 8.64368C21.1021 8.6436 21.0514 8.65361 21.0042 8.67314C20.9569 8.69267 20.914 8.72134 20.8779 8.75748C20.8233 8.81174 20.7862 8.88088 20.7711 8.95617C20.7561 9.03145 20.7637 9.1095 20.7932 9.18043C20.8227 9.25136 20.8727 9.31199 20.9368 9.35465C21.0009 9.3973 21.0762 9.42007 21.1533 9.42007C21.2304 9.42007 21.3058 9.3973 21.3699 9.35465C21.434 9.31199 21.4839 9.25136 21.5134 9.18043C21.5429 9.1095 21.5506 9.03145 21.5355 8.95617C21.5204 8.88088 21.4833 8.81174 21.4287 8.75748C21.3927 8.72134 21.3497 8.69267 21.3025 8.67314C21.2552 8.65361 21.2045 8.6436 21.1533 8.64368ZM18.6746 12.6643C18.4042 12.6642 18.1421 12.5708 17.9331 12.3999C17.7241 12.2291 17.581 11.9913 17.5282 11.7272C17.4755 11.4631 17.5163 11.1889 17.6438 10.9514C17.7713 10.7139 17.9775 10.5277 18.2274 10.4247C18.4772 10.3216 18.7552 10.3079 19.014 10.386C19.2729 10.4642 19.4965 10.6292 19.6468 10.8531C19.7971 11.0769 19.8649 11.3458 19.8385 11.6138C19.8121 11.8818 19.6932 12.1324 19.502 12.3229C19.3936 12.4314 19.2646 12.5174 19.1226 12.576C18.9806 12.6346 18.8283 12.6646 18.6746 12.6643ZM18.6746 11.1121C18.6106 11.1122 18.5475 11.1281 18.4911 11.1583C18.4347 11.1885 18.3866 11.232 18.3511 11.2851C18.3156 11.3382 18.2938 11.3992 18.2876 11.4627C18.2814 11.5262 18.291 11.5902 18.3156 11.6491C18.3402 11.708 18.379 11.76 18.4286 11.8004C18.4782 11.8408 18.537 11.8684 18.5998 11.8808C18.6627 11.8932 18.7276 11.89 18.7889 11.8714C18.8502 11.8528 18.9059 11.8195 18.9512 11.7744C19.0057 11.7201 19.0428 11.6508 19.0578 11.5755C19.0728 11.5001 19.0649 11.4221 19.0353 11.3512C19.0057 11.2802 18.9556 11.2197 18.8914 11.1771C18.8272 11.1345 18.7518 11.1119 18.6746 11.1121ZM15.4521 14.8689C15.6613 15.0396 15.9235 15.1328 16.194 15.1326C16.3476 15.1329 16.4997 15.1029 16.6415 15.0443C16.7833 14.9857 16.9121 14.8997 17.0203 14.7912C17.2115 14.6007 17.3304 14.35 17.3567 14.0819C17.3831 13.8139 17.3153 13.545 17.1649 13.3211C17.0145 13.0973 16.7908 12.9322 16.5319 12.8542C16.273 12.7762 15.9949 12.7899 15.7451 12.8932C15.4952 12.9964 15.2891 13.1827 15.1617 13.4203C15.0344 13.6579 14.9937 13.9322 15.0466 14.1963C15.0996 14.4605 15.2429 14.6981 15.4521 14.8689ZM16.0102 13.6272C16.0668 13.5972 16.1299 13.5815 16.194 13.5815C16.2974 13.5815 16.3965 13.6224 16.4696 13.6952C16.5427 13.768 16.5837 13.8667 16.5837 13.9696C16.5836 14.0725 16.5425 14.1711 16.4694 14.2438C16.4241 14.289 16.3683 14.3223 16.307 14.3409C16.2456 14.3594 16.1807 14.3626 16.1178 14.3502C16.0549 14.3378 15.9961 14.3101 15.9465 14.2696C15.897 14.2291 15.8582 14.177 15.8337 14.118C15.8091 14.0591 15.7996 13.995 15.8059 13.9314C15.8122 13.8679 15.8341 13.8069 15.8698 13.7539C15.9054 13.7008 15.9537 13.6573 16.0102 13.6272ZM21.1533 15.1325C20.9998 15.1328 20.8477 15.1028 20.7059 15.0442C20.564 14.9856 20.4353 14.8996 20.3271 14.7911C20.1356 14.6004 20.0165 14.3495 19.99 14.0812C19.9635 13.8128 20.0313 13.5436 20.1818 13.3195C20.3324 13.0953 20.5563 12.9301 20.8155 12.8519C21.0747 12.7738 21.3531 12.7876 21.6032 12.8909C21.8533 12.9942 22.0597 13.1808 22.1872 13.4187C22.3146 13.6566 22.3553 13.9311 22.3023 14.1956C22.2492 14.46 22.1057 14.6979 21.8962 14.8687C21.6867 15.0396 21.4241 15.1328 21.1533 15.1325ZM20.8779 14.2437C20.9325 14.2979 21.0019 14.3347 21.0775 14.3496C21.153 14.3645 21.2313 14.3567 21.3025 14.3273C21.3736 14.2979 21.4344 14.2482 21.4772 14.1844C21.5199 14.1206 21.5428 14.0456 21.5428 13.9689C21.5428 13.8922 21.5199 13.8173 21.4772 13.7535C21.4344 13.6897 21.3736 13.6399 21.3025 13.6105C21.2313 13.5811 21.153 13.5734 21.0775 13.5882C21.0019 13.6031 20.9325 13.64 20.8779 13.6941C20.8048 13.7671 20.7638 13.8659 20.7638 13.9689C20.7638 14.072 20.8048 14.1708 20.8779 14.2437ZM18.2412 15.9862C18.3694 16.0715 18.5201 16.117 18.6742 16.117C18.8809 16.1167 19.0789 16.0349 19.225 15.8894C19.3711 15.7439 19.4534 15.5467 19.4537 15.3409C19.4537 15.1874 19.408 15.0374 19.3223 14.9098C19.2367 14.7821 19.1149 14.6826 18.9725 14.6239C18.8301 14.5652 18.6734 14.5498 18.5222 14.5797C18.371 14.6097 18.2321 14.6836 18.1231 14.7921C18.0141 14.9007 17.9399 15.039 17.9098 15.1895C17.8797 15.3401 17.8952 15.4961 17.9541 15.6379C18.0131 15.7798 18.113 15.901 18.2412 15.9862ZM22.53 12.2763C22.3758 12.2763 22.2251 12.2308 22.0969 12.1455C21.9688 12.0602 21.8689 11.939 21.8099 11.7972C21.7509 11.6554 21.7354 11.4993 21.7655 11.3488C21.7956 11.1982 21.8698 11.0599 21.9788 10.9514C22.0878 10.8428 22.2267 10.7689 22.3779 10.739C22.5291 10.709 22.6858 10.7244 22.8282 10.7831C22.9707 10.8419 23.0924 10.9414 23.178 11.069C23.2637 11.1966 23.3094 11.3467 23.3094 11.5002C23.3094 11.706 23.2273 11.9034 23.0811 12.049C22.9349 12.1945 22.7367 12.2763 22.53 12.2763ZM14.3837 12.146C14.512 12.2312 14.6628 12.2765 14.817 12.2763C15.0235 12.2757 15.2212 12.1937 15.3671 12.0482C15.513 11.9028 15.595 11.7057 15.5953 11.5002C15.5953 11.3466 15.5496 11.1965 15.4639 11.0689C15.3782 10.9412 15.2564 10.8417 15.1139 10.783C14.9714 10.7243 14.8146 10.709 14.6634 10.7391C14.5122 10.7691 14.3733 10.8431 14.2644 10.9518C14.1554 11.0604 14.0813 11.1988 14.0513 11.3495C14.0214 11.5001 14.037 11.6562 14.0961 11.798C14.1553 11.9398 14.2554 12.0609 14.3837 12.146ZM44.7723 14.4054L45.0123 13.05L45.8912 13.0477V12.2511H45.1472L45.3952 10.8173H46.1712V10.0207H45.5312L45.7712 8.66876H44.9312L44.6912 10.023H43.6912L43.9312 8.66876H43.0912L42.8512 10.023H41.9632V10.8196H42.7152L42.4672 12.2534H41.6912V13.05H42.3312L42.0912 14.4054H42.9312L43.1712 13.05H44.1712L43.9312 14.4054H44.7723ZM44.5563 10.8196L44.3083 12.2534H43.3083L43.5563 10.8196H44.5563ZM46.6127 10.0208H47.7727V8.6666H48.9727V10.0208H50.6127V11.0973H48.9727V12.8897C48.9672 12.9486 48.9749 13.0079 48.995 13.0635C49.0152 13.1192 49.0475 13.1697 49.0895 13.2115C49.1315 13.2533 49.1822 13.2854 49.2381 13.3055C49.2939 13.3256 49.3535 13.3332 49.4127 13.3278H50.5327V14.4032H49.2927C48.8188 14.4032 48.447 14.2689 48.1773 14.0003C47.9075 13.7318 47.7727 13.3615 47.7727 12.8897V11.0996H46.6127V10.0208ZM52.7034 14.3577C52.9703 14.4453 53.2499 14.4884 53.5309 14.4851C53.7652 14.4871 53.9987 14.4565 54.2246 14.3941C54.4296 14.3374 54.6249 14.2503 54.804 14.1358C54.9715 14.0272 55.1191 13.891 55.2406 13.7329C55.3595 13.5782 55.445 13.4008 55.492 13.2117H54.316C54.2593 13.3311 54.1592 13.4246 54.036 13.4735C53.8771 13.5419 53.705 13.5745 53.532 13.5691C53.4198 13.5763 53.3073 13.5607 53.2014 13.5231C53.0955 13.4855 52.9984 13.4268 52.916 13.3506C52.8406 13.2673 52.7826 13.1698 52.7455 13.0639C52.7084 12.958 52.693 12.8457 52.7 12.7338V12.4948H55.532V11.6982C55.5351 11.4529 55.486 11.2098 55.388 10.9847C55.2941 10.7726 55.1549 10.5835 54.98 10.4305C54.7946 10.2714 54.58 10.1497 54.348 10.072C54.085 9.9846 53.8092 9.94152 53.532 9.94459C53.2513 9.94144 52.9719 9.98332 52.7046 10.0686C52.4707 10.1429 52.2542 10.2632 52.068 10.4225C51.8941 10.5745 51.7549 10.762 51.66 10.9722C51.5613 11.1982 51.5122 11.4427 51.516 11.6891V12.7338C51.5132 12.9798 51.5623 13.2236 51.66 13.4496C51.7522 13.6627 51.8917 13.8521 52.068 14.0038C52.2553 14.161 52.4709 14.2811 52.7034 14.3577ZM54.3709 11.6971V11.7756H52.6989V11.688C52.6882 11.5766 52.7025 11.4643 52.7406 11.359C52.7786 11.2537 52.8396 11.1582 52.9191 11.0791C52.9986 11.0001 53.0947 10.9395 53.2004 10.9017C53.3062 10.8639 53.419 10.8499 53.5309 10.8607C53.6441 10.8487 53.7587 10.862 53.8661 10.8998C53.9735 10.9376 54.071 10.9988 54.1516 11.079C54.2321 11.1592 54.2936 11.2564 54.3316 11.3633C54.3695 11.4703 54.3829 11.5843 54.3709 11.6971ZM58.3727 14.4851C58.0922 14.4888 57.8129 14.4481 57.5452 14.3645C57.3125 14.2937 57.0961 14.1777 56.9087 14.0231C56.7343 13.876 56.595 13.6921 56.5007 13.4848C56.4022 13.2631 56.3531 13.0228 56.3567 12.7804V11.6572C56.3529 11.4144 56.4021 11.1737 56.5007 10.9517C56.5947 10.7445 56.7341 10.561 56.9087 10.4145C57.0963 10.259 57.3125 10.1411 57.5452 10.0674C57.8126 9.98214 58.0919 9.94026 58.3727 9.94341C58.6251 9.94214 58.8762 9.98054 59.1167 10.0572C59.3365 10.1271 59.5423 10.2349 59.7246 10.3758C59.9011 10.5152 60.0502 10.6857 60.1646 10.8788C60.285 11.0821 60.3664 11.306 60.4046 11.5389H59.2047C59.1691 11.3718 59.0684 11.2257 58.9247 11.1326C58.7602 11.0277 58.5678 10.975 58.3727 10.9812C58.1576 10.9689 57.9451 11.0326 57.7727 11.1611C57.7007 11.2221 57.6437 11.2987 57.6063 11.3852C57.5688 11.4716 57.5518 11.5655 57.5567 11.6595V12.7827C57.5516 12.8759 57.5685 12.969 57.606 13.0546C57.6435 13.1401 57.7006 13.2158 57.7727 13.2754C57.9418 13.386 58.1389 13.4466 58.3411 13.4502C58.5434 13.4538 58.7425 13.4003 58.9155 13.2959C59.0601 13.2005 59.163 13.0541 59.2035 12.8862H60.4035C60.3644 13.1202 60.2819 13.3448 60.1601 13.5485C60.0451 13.7423 59.8961 13.9138 59.7201 14.0549C59.5388 14.1986 59.3328 14.3081 59.1121 14.3781C58.8727 14.452 58.6232 14.4881 58.3727 14.4851ZM62.4202 8.58919H61.2202L61.2248 14.4032H62.4248V11.6948C62.4195 11.5989 62.4334 11.5029 62.4658 11.4124C62.4982 11.3219 62.5483 11.2388 62.6133 11.1679C62.7536 11.0447 62.9343 10.9767 63.1213 10.9767C63.3084 10.9767 63.489 11.0447 63.6293 11.1679C63.6939 11.239 63.7438 11.3222 63.7759 11.4127C63.8081 11.5031 63.822 11.599 63.8168 11.6948V14.4032H65.0122V11.5741C65.0122 11.0704 64.8831 10.6721 64.6248 10.3792C64.4914 10.2328 64.3272 10.1176 64.1438 10.0418C63.9604 9.96609 63.7625 9.93169 63.5642 9.94112C63.2885 9.92855 63.0161 10.0056 62.7882 10.1607C62.69 10.2338 62.608 10.3264 62.5475 10.4325C62.4869 10.5386 62.449 10.6561 62.4362 10.7775H62.3482C62.3583 10.6837 62.3695 10.6019 62.3796 10.5279L62.3802 10.5238C62.3857 10.4835 62.3903 10.4416 62.395 10.3973C62.3991 10.3593 62.4035 10.3187 62.4088 10.2768C62.4202 10.1858 62.4202 10.1016 62.4202 10.0208V8.58919ZM68.2044 8.66876H69.5644L67.0501 12.0076V12.2967H68.5701V11.1382H69.7701V14.4054H68.5701V13.3379H65.9301V11.673L68.2044 8.66876ZM73.5883 8.71658C73.3253 8.62923 73.0495 8.58615 72.7723 8.58913C72.4922 8.58507 72.2135 8.62698 71.9471 8.71317C71.7126 8.79046 71.4962 8.91391 71.3106 9.07619C71.1342 9.23371 70.9949 9.42798 70.9026 9.64518C70.8033 9.87792 70.7535 10.1286 70.7563 10.3815V12.6984C70.7527 12.9511 70.8018 13.2018 70.9003 13.4347C70.9926 13.6519 71.1319 13.8461 71.3083 14.0037C71.4925 14.1654 71.7074 14.2888 71.9403 14.3667C72.4764 14.5366 73.0522 14.5366 73.5883 14.3667C73.8211 14.2888 74.036 14.1654 74.2203 14.0037C74.3966 13.8461 74.5359 13.6519 74.6282 13.4347C74.7271 13.2011 74.7761 12.9496 74.7722 12.6961H73.5723C73.5756 12.7928 73.5581 12.8891 73.5208 12.9784C73.4836 13.0677 73.4274 13.1481 73.3563 13.2139C73.1919 13.3535 72.98 13.4248 72.7643 13.4131C72.5482 13.426 72.3351 13.3574 72.1677 13.2207C72.0963 13.1539 72.0404 13.0723 72.0038 12.9817C71.9673 12.8911 71.9511 12.7936 71.9563 12.6961V10.3849C71.9513 10.2865 71.9684 10.1883 72.0063 10.0973C72.0443 10.0064 72.1022 9.925 72.1757 9.85912C72.3446 9.72535 72.5568 9.65775 72.7723 9.66908C72.9839 9.65784 73.1921 9.72561 73.3563 9.85912C73.4289 9.92552 73.4859 10.0071 73.5233 10.098C73.5606 10.1888 73.5773 10.2868 73.5723 10.3849H74.7722C74.7758 10.1322 74.7268 9.8815 74.6282 9.6486C74.5359 9.43139 74.3966 9.23712 74.2203 9.0796C74.036 8.91785 73.8211 8.79443 73.5883 8.71658ZM75.5166 10.3736C75.5128 10.1223 75.5619 9.87309 75.6606 9.64185C75.7541 9.42723 75.8933 9.23541 76.0686 9.07969C76.2538 8.91745 76.4699 8.79399 76.704 8.71667C77.2429 8.54678 77.8212 8.54678 78.36 8.71667C78.5945 8.79396 78.811 8.91742 78.9966 9.07969C79.1719 9.23541 79.3111 9.42723 79.4046 9.64185C79.5033 9.87309 79.5524 10.1223 79.5486 10.3736V12.6928C79.5518 12.9433 79.5011 13.1916 79.4 13.4211C79.3056 13.638 79.1653 13.8321 78.9886 13.9901C78.8026 14.1526 78.5863 14.2771 78.352 14.3565C78.0885 14.4469 77.8113 14.4915 77.5326 14.4885C77.2513 14.4917 76.9713 14.4487 76.704 14.3611C76.4699 14.2838 76.2538 14.1603 76.0686 13.9981C75.8923 13.8405 75.753 13.6463 75.6606 13.4291C75.5621 13.1962 75.5131 12.9455 75.5166 12.6928V10.3736ZM76.7166 12.6928C76.712 12.794 76.7291 12.895 76.767 12.989C76.8048 13.0831 76.8625 13.1679 76.936 13.2379C77.1067 13.3692 77.3163 13.4404 77.532 13.4404C77.7477 13.4404 77.9573 13.3692 78.128 13.2379C78.202 13.1682 78.26 13.0834 78.298 12.9893C78.3361 12.8952 78.3533 12.7941 78.3486 12.6928V10.3736C78.3533 10.2723 78.3361 10.1711 78.298 10.0771C78.26 9.98301 78.202 9.89822 78.128 9.82848C77.9577 9.69643 77.7479 9.62473 77.532 9.62473C77.3161 9.62473 77.1064 9.69643 76.936 9.82848C76.8625 9.89846 76.8048 9.98332 76.767 10.0773C76.7291 10.1714 76.712 10.2724 76.7166 10.3736V12.6928ZM81.2281 8.66876H80.0121L81.5161 14.4054H83.1161L84.6521 8.66876H83.4441L82.4921 12.8042C82.4761 12.8839 82.4601 12.9692 82.4441 13.0625C82.4358 13.1108 82.4297 13.1526 82.4235 13.195L82.4233 13.1964C82.4176 13.2356 82.4118 13.2752 82.4041 13.3209C82.3881 13.4164 82.3744 13.5132 82.3641 13.6088H82.3161L82.3075 13.5262C82.3 13.4532 82.2924 13.3783 82.2841 13.3209L82.2602 13.1507L82.2475 13.0625C82.2356 12.9755 82.2184 12.8892 82.1961 12.8042L81.2281 8.66876ZM85.3321 14.4054V13.3686H86.5321V9.70547H85.3321V8.66876H88.9321V9.70547H87.7321V13.3686H88.9321V14.4054H85.3321ZM90.0357 8.66882V14.4054H91.9306C92.2123 14.4091 92.4925 14.3629 92.758 14.2689C92.9934 14.1864 93.2098 14.058 93.3946 13.891C93.5723 13.7267 93.7116 13.5255 93.8026 13.3016C93.9011 13.0575 93.95 12.7964 93.9466 12.5334V10.5328C93.9502 10.2709 93.9013 10.0109 93.8026 9.76811C93.71 9.54511 93.5709 9.3442 93.3946 9.17864C93.211 9.01015 92.9942 8.88149 92.758 8.80082C92.4918 8.71002 92.2119 8.66536 91.9306 8.66882H90.0357ZM92.5237 13.0831C92.3607 13.2258 92.1485 13.3 91.9317 13.2902H91.2357V9.78405H91.9317C92.1488 9.77406 92.3612 9.84877 92.5237 9.9923C92.5986 10.0608 92.6578 10.1445 92.6972 10.2378C92.7366 10.331 92.7554 10.4317 92.7523 10.5328V12.5334C92.7558 12.636 92.7372 12.7381 92.6978 12.8329C92.6583 12.9277 92.599 13.013 92.5237 13.0831ZM94.8916 13.3687H96.4356V10.3622C96.4322 10.1972 96.4402 10.0322 96.4596 9.86828C96.4596 9.81992 96.4655 9.77943 96.4709 9.74282C96.4726 9.73118 96.4742 9.71994 96.4756 9.70897H96.4516C96.4249 9.7407 96.3955 9.77002 96.3636 9.79659C96.3292 9.83041 96.293 9.86233 96.255 9.89218C96.2027 9.93517 96.1481 9.97543 96.0916 10.0128L94.9636 10.7366V9.58493L96.3156 8.67454H97.6356V13.3744H98.8516V14.4111H94.8916V13.3687ZM102.395 8.7291C102.118 8.63222 101.825 8.58484 101.531 8.58913C101.242 8.58623 100.955 8.63201 100.682 8.72455C100.44 8.80714 100.216 8.93758 100.026 9.10805C99.8437 9.27252 99.7001 9.47495 99.6053 9.70094C99.5046 9.94445 99.4545 10.2058 99.4579 10.4691C99.4545 10.7132 99.4932 10.9561 99.5722 11.1872C99.6428 11.3927 99.7561 11.5812 99.9048 11.7402C100.05 11.8927 100.226 12.0136 100.42 12.0953C100.63 12.1813 100.854 12.2242 101.081 12.2216C101.253 12.2256 101.423 12.1918 101.58 12.1226C101.841 12.0053 102.062 11.8156 102.217 11.5763H102.26C102.233 11.623 102.204 11.6682 102.172 11.7118C102.129 11.7709 102.067 11.862 101.988 11.9837C101.909 12.1055 101.794 12.2728 101.645 12.4856L100.324 14.4031H101.66L102.7 12.8657C102.965 12.4807 103.194 12.0719 103.382 11.6446C103.532 11.2954 103.609 10.9202 103.611 10.5408C103.615 10.2655 103.564 9.99216 103.462 9.73622C103.369 9.50486 103.227 9.29584 103.046 9.12284C102.859 8.94796 102.637 8.81386 102.395 8.7291ZM100.873 10.9544C100.745 10.8203 100.667 10.6467 100.651 10.4623H100.652C100.645 10.345 100.663 10.2277 100.703 10.1174C100.743 10.007 100.806 9.90601 100.886 9.82043C101.018 9.68938 101.19 9.6069 101.375 9.58663C101.56 9.56636 101.746 9.60952 101.903 9.70897C102.059 9.80841 102.177 9.95819 102.237 10.1335C102.297 10.3088 102.294 10.4992 102.231 10.673C102.167 10.8469 102.045 10.9939 101.886 11.0896C101.727 11.1854 101.54 11.2242 101.356 11.1996C101.172 11.175 101.001 11.0885 100.873 10.9544Z" fill="#63717E"/>
</svg>
