<svg width="14" height="14" viewBox="0 0 14 14" fill="none" xmlns="http://www.w3.org/2000/svg">
<g clip-path="url(#clip0)">
<path d="M7.35791 0.714111C5.62173 0.714111 3.98939 1.39024 2.76171 2.61791C1.53403 3.84559 0.85791 5.47793 0.85791 7.21411C0.85791 8.95029 1.53403 10.5826 2.76171 11.8103C3.98939 13.038 5.62173 13.7141 7.35791 13.7141C9.09409 13.7141 10.7264 13.038 11.9541 11.8103C13.1818 10.5826 13.8579 8.95029 13.8579 7.21411C13.8579 5.47793 13.1818 3.84559 11.9541 2.61791C10.7264 1.39024 9.09409 0.714111 7.35791 0.714111ZM7.35791 12.6985C4.33385 12.6985 1.87354 10.2382 1.87354 7.21411C1.87354 4.19005 4.33385 1.72974 7.35791 1.72974C10.382 1.72974 12.8423 4.19005 12.8423 7.21411C12.8423 10.2382 10.382 12.6985 7.35791 12.6985ZM10.0058 7.21411L6.49463 10.7253L5.77645 10.0071L8.56942 7.21411L5.77645 4.42114L6.49463 3.70296L10.0058 7.21411Z" fill="#FA6400"/>
</g>
<defs>
<clipPath id="clip0">
<rect width="13" height="13" transform="matrix(1 0 0 -1 0.85791 13.7141)" fill="white"/>
</clipPath>
</defs>
</svg>
