<svg width="36" height="36" viewBox="0 0 36 36" fill="none" xmlns="http://www.w3.org/2000/svg">
<path d="M18 0C8.0744 0 0 8.0744 0 18C0 27.9256 8.0744 36 18 36C27.9256 36 36 27.9256 36 18C36 8.0744 27.9256 0 18 0ZM27.123 14.1855L17.373 23.9354C17.0804 24.2279 16.6965 24.3751 16.3125 24.3751C15.9285 24.3751 15.5446 24.2279 15.252 23.9354L10.3771 19.0605C9.79047 18.4741 9.79047 17.5259 10.3771 16.9395C10.9635 16.3529 11.9114 16.3529 12.498 16.9395L16.3125 20.754L25.0021 12.0646C25.5885 11.478 26.5364 11.478 27.123 12.0646C27.7094 12.651 27.7094 13.5989 27.123 14.1855Z" fill="#480E99"/>
</svg>
