<svg width="12" height="9" viewBox="0 0 12 9" fill="none" xmlns="http://www.w3.org/2000/svg">
<path d="M11.4167 1.25C11.4167 0.949073 11.3092 0.695436 11.0942 0.489086C10.8879 0.27414 10.6343 0.166666 10.3333 0.166666H1.66667C1.36574 0.166666 1.1078 0.27414 0.892857 0.489086C0.686508 0.695436 0.583333 0.949073 0.583333 1.25V7.75C0.583333 8.05093 0.686508 8.30886 0.892857 8.52381C1.1078 8.73016 1.36574 8.83333 1.66667 8.83333H10.3333C10.6343 8.83333 10.8879 8.73016 11.0942 8.52381C11.3092 8.30886 11.4167 8.05093 11.4167 7.75V1.25ZM10.3333 1.25L6 3.95833L1.66667 1.25H10.3333ZM10.3333 7.75H1.66667V2.33333L6 5.04167L10.3333 2.33333V7.75Z" fill="#FA6400"/>
</svg>
