<svg width="21" height="21" viewBox="0 0 21 21" fill="none" xmlns="http://www.w3.org/2000/svg">
<path d="M20.981 10.5648C20.981 4.75922 16.2864 0.0557861 10.5007 0.0557861C4.71097 0.0557861 0.0203857 4.75922 0.0203857 10.5648C0.0203857 15.8088 3.85159 20.1569 8.86313 20.9444V13.6032H6.20179V10.5654H8.86313V8.24886C8.86313 5.6157 10.4253 4.16152 12.8201 4.16152C13.967 4.16152 15.1677 4.36645 15.1677 4.36645V6.95231H13.8439C12.5443 6.95231 12.1382 7.76348 12.1382 8.59435V10.5648H15.0445L14.5775 13.6025H12.1382V20.9437C17.1458 20.1562 20.981 15.8081 20.981 10.5641V10.5648Z" fill="white"/>
</svg>
