<svg width="20" height="13" viewBox="0 0 20 13" fill="none" xmlns="http://www.w3.org/2000/svg">
<path d="M1.33333 13H18.6667C18.959 13 19.2083 12.8968 19.4147 12.6905C19.6382 12.4669 19.75 12.209 19.75 11.9167C19.75 11.6243 19.6382 11.375 19.4147 11.1687C19.2083 10.9451 18.959 10.8333 18.6667 10.8333H1.33333C1.04101 10.8333 0.783069 10.9451 0.559524 11.1687C0.353175 11.375 0.25 11.6243 0.25 11.9167C0.25 12.209 0.353175 12.4669 0.559524 12.6905C0.783069 12.8968 1.04101 13 1.33333 13ZM1.33333 7.58333H18.6667C18.959 7.58333 19.2083 7.48016 19.4147 7.27381C19.6382 7.05026 19.75 6.79233 19.75 6.5C19.75 6.20767 19.6382 5.95833 19.4147 5.75198C19.2083 5.52844 18.959 5.41667 18.6667 5.41667H1.33333C1.04101 5.41667 0.783069 5.52844 0.559524 5.75198C0.353175 5.95833 0.25 6.20767 0.25 6.5C0.25 6.79233 0.353175 7.05026 0.559524 7.27381C0.783069 7.48016 1.04101 7.58333 1.33333 7.58333ZM0.25 1.08333C0.25 1.37566 0.353175 1.6336 0.559524 1.85714C0.783069 2.06349 1.04101 2.16667 1.33333 2.16667H18.6667C18.959 2.16667 19.2083 2.06349 19.4147 1.85714C19.6382 1.6336 19.75 1.37566 19.75 1.08333C19.75 0.791004 19.6382 0.541666 19.4147 0.335316C19.2083 0.111771 18.959 -1.54972e-06 18.6667 -1.54972e-06H1.33333C1.04101 -1.54972e-06 0.783069 0.111771 0.559524 0.335316C0.353175 0.541666 0.25 0.791004 0.25 1.08333Z" fill="#6A00FF"/>
</svg>
