<svg width="50" height="51" viewBox="0 0 50 51" fill="none" xmlns="http://www.w3.org/2000/svg">
<path d="M16.3333 32H33.6667C33.959 32 34.2083 31.8968 34.4147 31.6905C34.6382 31.4669 34.75 31.209 34.75 30.9167C34.75 30.6243 34.6382 30.375 34.4147 30.1687C34.2083 29.9451 33.959 29.8333 33.6667 29.8333H16.3333C16.041 29.8333 15.7831 29.9451 15.5595 30.1687C15.3532 30.375 15.25 30.6243 15.25 30.9167C15.25 31.209 15.3532 31.4669 15.5595 31.6905C15.7831 31.8968 16.041 32 16.3333 32ZM16.3333 26.5833H33.6667C33.959 26.5833 34.2083 26.4802 34.4147 26.2738C34.6382 26.0503 34.75 25.7923 34.75 25.5C34.75 25.2077 34.6382 24.9583 34.4147 24.752C34.2083 24.5284 33.959 24.4167 33.6667 24.4167H16.3333C16.041 24.4167 15.7831 24.5284 15.5595 24.752C15.3532 24.9583 15.25 25.2077 15.25 25.5C15.25 25.7923 15.3532 26.0503 15.5595 26.2738C15.7831 26.4802 16.041 26.5833 16.3333 26.5833ZM15.25 20.0833C15.25 20.3757 15.3532 20.6336 15.5595 20.8571C15.7831 21.0635 16.041 21.1667 16.3333 21.1667H33.6667C33.959 21.1667 34.2083 21.0635 34.4147 20.8571C34.6382 20.6336 34.75 20.3757 34.75 20.0833C34.75 19.791 34.6382 19.5417 34.4147 19.3353C34.2083 19.1118 33.959 19 33.6667 19H16.3333C16.041 19 15.7831 19.1118 15.5595 19.3353C15.3532 19.5417 15.25 19.791 15.25 20.0833Z" fill="#6A00FF"/>
</svg>
