<svg width="346" height="317" viewBox="0 0 346 317" fill="none" xmlns="http://www.w3.org/2000/svg">
<path d="M249.594 85.5645V265.097L188.753 256.619L114.793 271.707L114.197 271.83L55.3499 255.622V99.5281L116.441 85.5645L183.267 99.5281L185.808 98.992L249.594 85.5645Z" fill="#444053"/>
<path d="M239.37 95.3689V256.003L184.935 248.418L118.759 261.918L118.226 262.025L65.5728 247.525V107.861L120.235 95.3689L180.025 107.861L182.299 107.383L239.37 95.3689Z" fill="white"/>
<path opacity="0.5" d="M57.9829 64.2821C57.4088 64.0321 57.1134 63.3914 57.2961 62.7924C57.3103 62.748 57.3193 62.7022 57.3229 62.6557C57.3394 62.3835 57.1757 62.1326 56.9198 62.0382C56.664 61.9439 56.3765 62.0283 56.2124 62.246C56.1849 62.2837 56.1619 62.3244 56.144 62.3674C55.8939 62.9415 55.2532 63.2369 54.6542 63.0542C54.6099 63.04 54.564 63.031 54.5175 63.0274C54.2453 63.0109 53.9944 63.1746 53.9001 63.4305C53.8057 63.6863 53.8901 63.9738 54.1079 64.1379C54.1455 64.1654 54.1862 64.1884 54.2292 64.2063C54.8033 64.4564 55.0988 65.0971 54.9161 65.6961C54.9018 65.7404 54.8928 65.7863 54.8893 65.8328C54.8727 66.105 55.0365 66.3559 55.2923 66.4502C55.5481 66.5446 55.8356 66.4602 55.9998 66.2424C56.0272 66.2048 56.0502 66.1641 56.0682 66.1211C56.3182 65.547 56.9589 65.2515 57.5579 65.4342C57.6023 65.4485 57.6481 65.4575 57.6946 65.461C57.9668 65.4776 58.2177 65.3138 58.3121 65.058C58.4064 64.8022 58.322 64.5147 58.1043 64.3505C58.0666 64.3231 58.0259 64.3001 57.9829 64.2821Z" fill="#4D8AF0"/>
<path opacity="0.5" d="M6.36522 178.739C5.79111 178.489 5.4957 177.848 5.67839 177.249C5.69267 177.204 5.70166 177.159 5.70519 177.112C5.72176 176.84 5.558 176.589 5.30215 176.495C5.04631 176.4 4.75885 176.485 4.59469 176.702C4.5672 176.74 4.54424 176.781 4.52629 176.824C4.27625 177.398 3.6355 177.693 3.03655 177.511C2.99219 177.496 2.9463 177.487 2.89984 177.484C2.62765 177.467 2.37676 177.631 2.28238 177.887C2.188 178.143 2.27244 178.43 2.49019 178.594C2.52781 178.622 2.56855 178.645 2.61155 178.663C3.18566 178.913 3.48108 179.554 3.29838 180.152C3.2841 180.197 3.27511 180.243 3.27158 180.289C3.25501 180.561 3.41877 180.812 3.67462 180.907C3.93046 181.001 4.21792 180.917 4.38208 180.699C4.40957 180.661 4.43253 180.62 4.45048 180.577C4.70052 180.003 5.34127 179.708 5.94022 179.891C5.98458 179.905 6.03047 179.914 6.07693 179.917C6.34912 179.934 6.60001 179.77 6.69438 179.514C6.78876 179.259 6.70433 178.971 6.48659 178.807C6.44896 178.779 6.40822 178.757 6.36522 178.739Z" fill="#4D8AF0"/>
<path opacity="0.5" d="M264.821 139.426C266.06 139.426 267.065 138.422 267.065 137.182C267.065 135.943 266.06 134.938 264.821 134.938C263.581 134.938 262.576 135.943 262.576 137.182C262.576 138.422 263.581 139.426 264.821 139.426Z" fill="#F55F44"/>
<path opacity="0.5" d="M70.6935 272.959C71.9329 272.959 72.9377 271.954 72.9377 270.714C72.9377 269.475 71.9329 268.47 70.6935 268.47C69.454 268.47 68.4492 269.475 68.4492 270.714C68.4492 271.954 69.454 272.959 70.6935 272.959Z" fill="#F55F44"/>
<path opacity="0.5" d="M300.729 221.341C301.968 221.341 302.973 220.336 302.973 219.097C302.973 217.858 301.968 216.853 300.729 216.853C299.489 216.853 298.484 217.858 298.484 219.097C298.484 220.336 299.489 221.341 300.729 221.341Z" fill="#F55F44"/>
<path opacity="0.5" d="M248.743 74.3813C248.169 74.1312 247.874 73.4905 248.057 72.8915C248.071 72.8472 248.08 72.8013 248.083 72.7548C248.1 72.4826 247.936 72.2317 247.68 72.1374C247.424 72.043 247.137 72.1274 246.973 72.3452C246.945 72.3828 246.922 72.4235 246.904 72.4665C246.654 73.0406 246.014 73.3361 245.415 73.1534C245.37 73.1391 245.324 73.1301 245.278 73.1266C245.006 73.11 244.755 73.2738 244.661 73.5296C244.566 73.7854 244.651 74.0729 244.868 74.2371C244.906 74.2646 244.947 74.2875 244.99 74.3055C245.564 74.5555 245.859 75.1962 245.677 75.7952C245.662 75.8396 245.653 75.8854 245.65 75.9319C245.633 76.2041 245.797 76.455 246.053 76.5494C246.309 76.6437 246.596 76.5593 246.76 76.3416C246.788 76.3039 246.811 76.2632 246.829 76.2202C247.079 75.6461 247.719 75.3507 248.318 75.5334C248.363 75.5476 248.409 75.5566 248.455 75.5602C248.727 75.5767 248.978 75.413 249.073 75.1571C249.167 74.9013 249.083 74.6138 248.865 74.4497C248.827 74.4222 248.786 74.3992 248.743 74.3813Z" fill="#4D8AF0"/>
<path opacity="0.5" d="M284.651 296.561C284.077 296.311 283.782 295.67 283.964 295.071C283.979 295.027 283.988 294.981 283.991 294.935C284.008 294.663 283.844 294.412 283.588 294.317C283.332 294.223 283.045 294.307 282.881 294.525C282.853 294.563 282.83 294.603 282.812 294.646C282.562 295.221 281.921 295.516 281.322 295.333C281.278 295.319 281.232 295.31 281.186 295.306C280.914 295.29 280.663 295.454 280.568 295.71C280.474 295.965 280.558 296.253 280.776 296.417C280.814 296.444 280.854 296.467 280.897 296.485C281.472 296.735 281.767 297.376 281.584 297.975C281.57 298.019 281.561 298.065 281.557 298.112C281.541 298.384 281.705 298.635 281.961 298.729C282.216 298.824 282.504 298.739 282.668 298.521C282.695 298.484 282.718 298.443 282.736 298.4C282.986 297.826 283.627 297.531 284.226 297.713C284.27 297.728 284.316 297.737 284.363 297.74C284.635 297.757 284.886 297.593 284.98 297.337C285.075 297.081 284.99 296.794 284.772 296.63C284.735 296.602 284.694 296.579 284.651 296.561Z" fill="#4D8AF0"/>
<path opacity="0.5" d="M4.12108 111.411C3.54697 111.161 3.25155 110.521 3.43425 109.922C3.44853 109.877 3.45752 109.831 3.46105 109.785C3.47762 109.513 3.31386 109.262 3.05801 109.167C2.80217 109.073 2.51471 109.157 2.35055 109.375C2.32306 109.413 2.3001 109.454 2.28215 109.497C2.03211 110.071 1.39136 110.366 0.792406 110.183C0.748049 110.169 0.702162 110.16 0.655696 110.157C0.383505 110.14 0.132618 110.304 0.0382407 110.56C-0.0561367 110.815 0.0282992 111.103 0.246044 111.267C0.283668 111.295 0.324406 111.318 0.367411 111.335C0.941521 111.586 1.23694 112.226 1.05424 112.825C1.03996 112.87 1.03097 112.915 1.02744 112.962C1.01087 113.234 1.17463 113.485 1.43048 113.579C1.68632 113.674 1.97378 113.589 2.13794 113.372C2.16543 113.334 2.18839 113.293 2.20634 113.25C2.45637 112.676 3.09713 112.381 3.69608 112.563C3.74044 112.578 3.78633 112.587 3.83279 112.59C4.10498 112.607 4.35587 112.443 4.45024 112.187C4.54462 111.931 4.46019 111.644 4.24245 111.48C4.20482 111.452 4.16408 111.429 4.12108 111.411Z" fill="#4D8AF0"/>
<path opacity="0.5" d="M28.0531 150.648C29.2925 150.648 30.2973 149.643 30.2973 148.403C30.2973 147.164 29.2925 146.159 28.0531 146.159C26.8136 146.159 25.8088 147.164 25.8088 148.403C25.8088 149.643 26.8136 150.648 28.0531 150.648Z" fill="#47E6B1"/>
<path opacity="0.5" d="M301.851 166.357C303.09 166.357 304.095 165.352 304.095 164.113C304.095 162.874 303.09 161.869 301.851 161.869C300.611 161.869 299.606 162.874 299.606 164.113C299.606 165.352 300.611 166.357 301.851 166.357Z" fill="#47E6B1"/>
<path opacity="0.1" d="M114.793 271.707L116.441 85.5645L183.267 99.5281L185.808 98.992L188.753 256.619L114.793 271.707Z" fill="black"/>
<g opacity="0.3">
<path d="M181.368 119.975L181.398 172.214H203.091V150.77H240.244L244.608 145.174" stroke="#444053" stroke-width="4.94834"/>
<path d="M60.5872 136.557H141.252L146.239 134.312H148.234V184.681H183.143L184.639 189.17V211.861H211.569V239.913" stroke="#444053" stroke-width="4.94834"/>
<path d="M158.889 239.913V184.682" stroke="#444053" stroke-width="4.94834"/>
<path d="M244.607 225.116H158.888" stroke="#444053" stroke-width="4.94834"/>
<path d="M223.139 119.975V239.913" stroke="#444053" stroke-width="4.94834"/>
<path d="M60.3374 214.514H244.608" stroke="#444053" stroke-width="4.94834"/>
<path d="M82.7643 239.913V119.975" stroke="#444053" stroke-width="4.94834"/>
<path d="M125.598 119.975V239.913" stroke="#444053" stroke-width="4.94834"/>
<path d="M60.5872 150.271L203.091 150.77" stroke="#444053" stroke-width="4.94834"/>
<path d="M102.062 120.192V239.913" stroke="#444053" stroke-width="4.94834"/>
<path d="M60.3374 178.029H125.598L158.888 214.514" stroke="#444053" stroke-width="4.94834"/>
<path d="M166.099 119.975V184.681" stroke="#444053" stroke-width="4.94834"/>
<path d="M158.888 196.271H244.607" stroke="#444053" stroke-width="4.94834"/>
</g>
<path fill-rule="evenodd" clip-rule="evenodd" d="M158.262 152.71C158.262 145.097 164.433 138.926 172.046 138.926C179.659 138.926 185.83 145.097 185.83 152.71C185.83 160.333 172.046 185.056 172.046 185.056C172.046 185.056 158.262 160.323 158.262 152.71ZM165.982 152.525C165.982 155.874 168.697 158.59 172.046 158.59V158.587C175.394 158.587 178.109 155.874 178.11 152.525C178.11 149.176 175.395 146.461 172.046 146.461C168.697 146.461 165.982 149.176 165.982 152.525Z" fill="#FA6400"/>
<path opacity="0.1" fill-rule="evenodd" clip-rule="evenodd" d="M158.262 152.71C158.262 145.097 164.433 138.926 172.046 138.926C179.659 138.926 185.83 145.097 185.83 152.71C185.83 160.333 172.046 185.056 172.046 185.056C172.046 185.056 158.262 160.323 158.262 152.71ZM165.982 152.993C165.982 156.6 168.697 159.525 172.046 159.525V159.522C175.394 159.522 178.109 156.599 178.11 152.993C178.11 149.385 175.395 146.461 172.046 146.461C168.697 146.461 165.982 149.385 165.982 152.993Z" fill="#1E2933"/>
<path fill-rule="evenodd" clip-rule="evenodd" d="M158.262 154.37C158.262 146.758 164.433 140.586 172.046 140.586C179.659 140.586 185.83 146.758 185.83 154.37C185.83 161.993 172.046 186.716 172.046 186.716C172.046 186.716 158.262 161.983 158.262 154.37ZM165.982 154.186C165.982 157.535 168.697 160.25 172.046 160.25V160.247C175.394 160.247 178.109 157.534 178.11 154.186C178.11 150.837 175.395 148.122 172.046 148.122C168.697 148.122 165.982 150.837 165.982 154.186Z" fill="#FA6400"/>
<path opacity="0.1" d="M55.9978 276.217C59.4194 272.795 55.4592 263.288 47.1526 254.981C38.846 246.675 29.3384 242.714 25.9168 246.136C22.4952 249.558 26.4553 259.065 34.7619 267.372C43.0686 275.678 52.5762 279.639 55.9978 276.217Z" fill="#6C63FF"/>
<path d="M42.6406 262.86C45.1195 262.86 47.1291 260.097 47.1291 256.688C47.1291 253.28 45.1195 250.516 42.6406 250.516C40.1617 250.516 38.1521 253.28 38.1521 256.688C38.1521 260.097 40.1617 262.86 42.6406 262.86Z" fill="#3F3D56"/>
<path d="M42.6406 255.005C45.1195 255.005 47.1291 252.242 47.1291 248.833C47.1291 245.425 45.1195 242.661 42.6406 242.661C40.1617 242.661 38.1521 245.425 38.1521 248.833C38.1521 252.242 40.1617 255.005 42.6406 255.005Z" fill="#3F3D56"/>
<path d="M42.6406 247.15C45.1195 247.15 47.1291 244.387 47.1291 240.978C47.1291 237.57 45.1195 234.807 42.6406 234.807C40.1617 234.807 38.1521 237.57 38.1521 240.978C38.1521 244.387 40.1617 247.15 42.6406 247.15Z" fill="#3F3D56"/>
<path d="M42.6406 240.417C45.1195 240.417 47.1291 237.654 47.1291 234.246C47.1291 230.837 45.1195 228.074 42.6406 228.074C40.1617 228.074 38.1521 230.837 38.1521 234.246C38.1521 237.654 40.1617 240.417 42.6406 240.417Z" fill="#3F3D56"/>
<path d="M42.6406 232.562C45.1195 232.562 47.1291 229.799 47.1291 226.391C47.1291 222.982 45.1195 220.219 42.6406 220.219C40.1617 220.219 38.1521 222.982 38.1521 226.391C38.1521 229.799 40.1617 232.562 42.6406 232.562Z" fill="#3F3D56"/>
<path d="M42.6406 224.708C45.1195 224.708 47.1291 222.196 47.1291 219.097C47.1291 215.998 45.1195 213.486 42.6406 213.486C40.1617 213.486 38.1521 215.998 38.1521 219.097C38.1521 222.196 40.1617 224.708 42.6406 224.708Z" fill="#3F3D56"/>
<path d="M60.2692 160.985C60.9099 160.175 61.4932 159.322 62.0147 158.431L49.7088 156.42L63.0184 156.516C65.5988 150.929 65.7566 144.532 63.4548 138.826L45.6024 148.046L62.0584 135.998C57.8568 128.76 49.9446 124.463 41.555 124.865C33.1653 125.266 25.7038 130.299 22.2195 137.905C18.7353 145.512 19.812 154.418 25.0096 160.985C24.0121 162.246 23.1547 163.61 22.4524 165.054L38.424 173.307L21.4051 167.617C18.9774 174.765 20.3379 182.65 25.0227 188.582C17.79 197.734 18.8393 210.881 27.433 218.782C36.0267 226.683 49.2783 226.683 57.872 218.782C66.4657 210.881 67.515 197.734 60.2823 188.582C66.6822 180.482 66.6822 169.076 60.2823 160.976L60.2692 160.985Z" fill="#6A00FF"/>
<path opacity="0.1" d="M20.1983 174.543C20.1899 179.574 21.8823 184.461 25.0011 188.411C17.7645 197.606 18.8144 210.816 27.4127 218.754C36.0111 226.692 49.2698 226.692 57.8681 218.754C66.4665 210.816 67.5163 197.606 60.2797 188.411C63.288 184.597 20.1983 172.025 20.1983 174.543Z" fill="black"/>
<path d="M244.121 78.3214L277.04 79.1365L281.472 40.0073H244.121V78.3214Z" fill="#2F2E41"/>
<path d="M278.201 127.946L290.198 209.836C290.198 209.836 300.595 238.97 301.395 253.143L304.594 273.615L290.198 276.765L275.002 219.285L254.207 167.316L256.606 227.158L261.405 275.977L247.009 278.34L238.211 216.135L228.613 170.466C228.613 170.466 221.415 131.096 232.612 127.159L278.201 127.946Z" fill="#2F2E41"/>
<path d="M290.866 267.668L292.474 287.136C292.474 287.136 275.264 297.041 280.786 298.961C286.308 300.881 293.866 298.411 295.412 297.975C297.045 297.514 300.093 296.779 302.399 296.235C304.591 295.736 306.199 293.873 306.366 291.641L306.37 291.569C306.509 289.174 301.08 268.356 301.08 268.356L290.866 267.668Z" fill="#2F2E41"/>
<path d="M250.591 267.668L249.203 285.895C249.203 285.895 229.128 292.993 234.302 295.867C239.477 298.741 247.563 297.774 249.203 297.643C252.227 297.401 259.753 297.159 259.753 297.159C259.753 297.159 261.145 298.305 261.755 296.029C262.366 293.752 260.941 273.416 260.941 273.416L250.591 267.668Z" fill="#2F2E41"/>
<path d="M261.018 61.3507C269.367 61.3507 276.136 54.5821 276.136 46.2326C276.136 37.8831 269.367 31.1145 261.018 31.1145C252.668 31.1145 245.9 37.8831 245.9 46.2326C245.9 54.5821 252.668 61.3507 261.018 61.3507Z" fill="#FFB8B8"/>
<path d="M269.53 56.0146L272.58 72.9708L259.621 79.1364L256.572 57.5559L269.53 56.0146Z" fill="#FFB8B8"/>
<path d="M270.8 137.899L254.461 149.48C254.461 149.48 247.459 167.237 242.012 164.148C236.566 161.06 248.237 145.619 248.237 145.619L261.464 132.494L270.8 137.899Z" fill="#FFB8B8"/>
<path d="M224.392 132.494L222.779 141.643C222.779 141.643 226.811 160.703 231.65 156.891C236.49 153.079 230.037 140.881 230.037 140.881L230.844 133.257L224.392 132.494Z" fill="#FFB8B8"/>
<path d="M262.144 74.2515L263.735 67.8959L273.282 63.1292L276.465 67.1014L286.808 70.2792L274.874 133.835C274.874 133.835 234.297 136.219 233.501 129.863C232.705 123.507 241.457 106.03 241.457 106.03C241.457 106.03 239.07 97.2906 239.866 92.5238L243.049 73.457L255.779 69.4848L258.686 65.9727L261.348 70.2792L262.144 74.2515Z" fill="#FA6400"/>
<path d="M284.359 71.8201L286.798 70.2437C286.798 70.2437 291.674 71.0319 293.3 77.3378C294.925 83.6438 293.3 112.02 289.236 117.538C285.172 123.056 273.793 139.609 273.793 139.609L258.351 132.515L274.606 114.385L278.67 91.5262L284.359 71.8201Z" fill="#FA6400"/>
<path d="M249.458 75.397L243.134 73.8008C243.134 73.8008 239.181 75.397 237.6 80.9836C236.019 86.5702 227.324 114.503 228.114 116.898C228.905 119.292 221 135.254 221 135.254L232.067 136.052L238.391 119.292L244.715 102.532L249.458 75.397Z" fill="#FA6400"/>
<path d="M288.571 59.7956C285.369 58.046 283.879 54.1191 283.772 50.4858C283.666 46.8525 284.552 43.2567 284.621 39.6226C284.657 38.8791 284.593 38.1341 284.432 37.4073C284.166 36.5052 283.753 35.653 283.207 34.8852C279.044 28.5367 271.806 24.071 264.182 24.0007C263.08 23.9863 261.987 24.1864 260.963 24.5896C260.174 24.9037 259.917 24.8653 259.766 25.8283C257.96 25.2354 256.001 25.2974 254.237 26.0032C252.489 26.7102 250.859 27.6762 249.401 28.8685C248.535 29.5093 247.718 30.2133 246.957 30.9745C242.928 35.1277 242 41.5285 243.167 47.1829C243.547 49.0212 241.726 50.7959 240.22 51.925C238.713 53.0541 236.974 54.091 236.234 55.8173C235.522 57.4779 235.913 59.377 235.77 61.1766C235.442 64.6468 233.164 67.6316 229.893 68.8782C230.559 69.6721 231.609 70.0395 232.628 69.8354C233.672 69.6164 234.649 69.1536 235.479 68.4851C238.597 66.186 240.828 62.892 241.799 59.1532C242.242 61.1558 242.07 63.2213 242.054 65.2716C242.093 67.5597 241.669 69.8323 240.808 71.9544C239.933 74.0868 238.33 75.8435 236.281 76.9153C238.257 77.8782 240.435 77.1803 242.109 75.7599C243.784 74.3395 244.773 72.2778 245.463 70.199C246.587 66.8113 247.043 63.2396 246.806 59.68C248.644 62.7593 249.316 66.391 248.7 69.9198C248.057 73.5176 246.169 76.7782 243.363 79.1365C248.255 79.0953 253.065 77.8898 257.393 75.6209C258.51 75.1169 259.495 74.3622 260.27 73.4158C261.663 71.4936 261.333 68.8719 260.943 66.5344C260.634 64.6861 262.955 62.0141 261.626 60.687C261.231 60.2987 260.703 60.073 260.148 60.0551C256.097 59.7535 252.417 57.5953 250.189 54.2147C248.656 51.9213 247.786 49.2532 247.672 46.5012C247.675 40.9813 250.929 35.9755 255.987 33.7095C261.046 31.4435 266.97 32.3382 271.125 35.9957C275.279 39.6531 276.894 45.3943 275.251 50.6665C274.771 52.2196 274.428 53.8111 274.224 55.4231C273.983 57.2937 273.601 59.1435 273.079 60.9566C272.074 64.4412 270.37 67.9966 267.217 69.8141C268.277 70.391 269.503 70.417 270.703 70.5486C274.659 70.9823 278.819 70.8865 282.4 69.1578C285.98 67.429 288.826 63.7474 288.571 59.7956Z" fill="#2F2E41"/>
<path d="M279.693 45.3433C268.222 41.0684 256.914 40.1565 245.9 45.3433V36.7266C245.9 33.6271 248.602 31.1145 251.936 31.1145H274.925C276.19 31.1145 277.402 31.5816 278.297 32.4131C279.191 33.2446 279.693 34.3723 279.693 35.5481V45.3433Z" fill="#2F2E41"/>
<path d="M276.137 50.6791C277.119 50.6791 277.915 49.4846 277.915 48.0112C277.915 46.5377 277.119 45.3433 276.137 45.3433C275.154 45.3433 274.358 46.5377 274.358 48.0112C274.358 49.4846 275.154 50.6791 276.137 50.6791Z" fill="#FFB8B8"/>
</svg>
