<svg width="21" height="21" viewBox="0 0 21 21" fill="none" xmlns="http://www.w3.org/2000/svg">
<path d="M10.3679 5.13942C7.52844 5.13942 5.23689 7.43097 5.23689 10.2704C5.23689 13.1098 7.52844 15.4014 10.3679 15.4014C13.2073 15.4014 15.4988 13.1098 15.4988 10.2704C15.4988 7.43097 13.2073 5.13942 10.3679 5.13942ZM10.3679 13.6051C8.53162 13.6051 7.03311 12.1066 7.03311 10.2704C7.03311 8.43414 8.53162 6.93563 10.3679 6.93563C12.2041 6.93563 13.7026 8.43414 13.7026 10.2704C13.7026 12.1066 12.2041 13.6051 10.3679 13.6051ZM15.709 3.73347C15.046 3.73347 14.5107 4.26883 14.5107 4.93178C14.5107 5.59473 15.046 6.13009 15.709 6.13009C16.3719 6.13009 16.9073 5.59723 16.9073 4.93178C16.9075 4.77436 16.8766 4.61845 16.8165 4.47297C16.7563 4.3275 16.6681 4.19532 16.5567 4.08401C16.4454 3.97269 16.3133 3.88443 16.1678 3.82428C16.0223 3.76413 15.8664 3.73327 15.709 3.73347ZM20.3696 10.2704C20.3696 8.88945 20.3821 7.52103 20.3046 6.1426C20.227 4.54151 19.8618 3.12055 18.691 1.94976C17.5177 0.776471 16.0992 0.413726 14.4981 0.336174C13.1172 0.258621 11.7488 0.27113 10.3704 0.27113C8.98943 0.27113 7.621 0.258621 6.24257 0.336174C4.64149 0.413726 3.22053 0.778973 2.04974 1.94976C0.876447 3.12306 0.513702 4.54151 0.436149 6.1426C0.358597 7.52353 0.371105 8.89195 0.371105 10.2704C0.371105 11.6488 0.358597 13.0197 0.436149 14.3982C0.513702 15.9993 0.878949 17.4202 2.04974 18.591C3.22303 19.7643 4.64149 20.127 6.24257 20.2046C7.62351 20.2821 8.99193 20.2696 10.3704 20.2696C11.7513 20.2696 13.1197 20.2821 14.4981 20.2046C16.0992 20.127 17.5202 19.7618 18.691 18.591C19.8643 17.4177 20.227 15.9993 20.3046 14.3982C20.3846 13.0197 20.3696 11.6513 20.3696 10.2704ZM18.1681 16.1694C17.9855 16.6247 17.7654 16.9649 17.4126 17.3151C17.0599 17.6679 16.7222 17.888 16.2668 18.0707C14.951 18.5935 11.8263 18.4759 10.3679 18.4759C8.90937 18.4759 5.78226 18.5935 4.46637 18.0732C4.01106 17.8905 3.67084 17.6704 3.3206 17.3176C2.96786 16.9649 2.74771 16.6272 2.56509 16.1719C2.04474 14.8535 2.16232 11.7289 2.16232 10.2704C2.16232 8.8119 2.04474 5.68479 2.56509 4.3689C2.74771 3.91359 2.96786 3.57336 3.3206 3.22312C3.67334 2.87289 4.01106 2.65024 4.46637 2.46761C5.78226 1.94726 8.90937 2.06484 10.3679 2.06484C11.8263 2.06484 14.9535 1.94726 16.2693 2.46761C16.7247 2.65024 17.0649 2.87039 17.4151 3.22312C17.7679 3.57586 17.988 3.91359 18.1706 4.3689C18.691 5.68479 18.5734 8.8119 18.5734 10.2704C18.5734 11.7289 18.691 14.8535 18.1681 16.1694Z" fill="white"/>
</svg>
