<svg width="21" height="21" viewBox="0 0 21 21" fill="none" xmlns="http://www.w3.org/2000/svg">
<path d="M17.8498 17.8571H14.7603V13.009C14.7603 11.8529 14.7361 10.3672 13.1447 10.3672C11.5336 10.3672 11.2882 11.6212 11.2882 12.9234V17.8564H8.19473V7.88799H11.1661V9.24771H11.206C11.6211 8.46243 12.6309 7.63668 14.1375 7.63668C17.2715 7.63668 17.8531 9.70008 17.8531 12.383V17.8564L17.8498 17.8571ZM4.69981 6.52566C4.46369 6.52575 4.22987 6.47925 4.01174 6.38883C3.79362 6.29841 3.59547 6.16585 3.42866 5.99873C3.26185 5.83162 3.12965 5.63324 3.03962 5.41495C2.9496 5.19666 2.90353 4.96276 2.90404 4.72663C2.90443 4.37123 3.01019 4.02393 3.20795 3.72863C3.4057 3.43333 3.68658 3.2033 4.01506 3.06763C4.34354 2.93195 4.70488 2.89672 5.05338 2.96638C5.40189 3.03605 5.72191 3.20749 5.97299 3.45902C6.22407 3.71056 6.39492 4.03089 6.46396 4.37952C6.53299 4.72815 6.4971 5.08942 6.36083 5.41766C6.22456 5.74589 5.99402 6.02635 5.69836 6.22357C5.4027 6.42079 5.05521 6.52592 4.69981 6.52566V6.52566ZM6.24948 17.8571H3.14948V7.88864H6.24948V17.8571ZM19.4008 0.0554199H1.59589C0.745335 0.0554199 0.0553589 0.728424 0.0553589 1.56136V19.4387C0.0553589 20.2717 0.745335 20.9447 1.59589 20.9447H19.3975C20.2468 20.9447 20.944 20.2717 20.944 19.4387V1.56136C20.944 0.728424 20.2468 0.0554199 19.3975 0.0554199H19.4008Z" fill="white"/>
</svg>
