<svg width="313" height="80" viewBox="0 0 313 80" fill="none" xmlns="http://www.w3.org/2000/svg">
<path fill-rule="evenodd" clip-rule="evenodd" d="M38.0636 52.3683C39.6127 52.3683 40.8689 51.0487 40.8689 49.4215C40.8689 47.7942 39.6127 46.4746 38.0636 46.4746C36.5136 46.4746 35.2582 47.7942 35.2582 49.4215C35.2582 51.0487 36.5136 52.3683 38.0636 52.3683Z" fill="white"/>
<path fill-rule="evenodd" clip-rule="evenodd" d="M38.0636 52.3683C39.6127 52.3683 40.8689 51.0487 40.8689 49.4215C40.8689 47.7942 39.6127 46.4746 38.0636 46.4746C36.5136 46.4746 35.2582 47.7942 35.2582 49.4215C35.2582 51.0487 36.5136 52.3683 38.0636 52.3683Z" fill="url(#paint0_linear)"/>
<path fill-rule="evenodd" clip-rule="evenodd" d="M33.6158 62.1819C33.6158 64.108 35.6068 65.6702 38.0631 65.6702C40.5195 65.6702 42.5113 64.108 42.5113 62.1819C42.5113 60.2566 40.5195 58.6944 38.0631 58.6944C35.6068 58.6944 33.6158 60.2566 33.6158 62.1819Z" fill="white"/>
<path fill-rule="evenodd" clip-rule="evenodd" d="M33.6158 62.1819C33.6158 64.108 35.6068 65.6702 38.0631 65.6702C40.5195 65.6702 42.5113 64.108 42.5113 62.1819C42.5113 60.2566 40.5195 58.6944 38.0631 58.6944C35.6068 58.6944 33.6158 60.2566 33.6158 62.1819Z" fill="url(#paint1_linear)"/>
<path fill-rule="evenodd" clip-rule="evenodd" d="M38.0636 70.5327C34.2481 70.5327 31.1557 72.4765 31.1557 74.873C31.1557 77.2712 34.2481 79.2141 38.0636 79.2141C41.8782 79.2141 44.9706 77.2712 44.9706 74.873C44.9706 72.4765 41.8782 70.5327 38.0636 70.5327Z" fill="white"/>
<path fill-rule="evenodd" clip-rule="evenodd" d="M38.0636 70.5327C34.2481 70.5327 31.1557 72.4765 31.1557 74.873C31.1557 77.2712 34.2481 79.2141 38.0636 79.2141C41.8782 79.2141 44.9706 77.2712 44.9706 74.873C44.9706 72.4765 41.8782 70.5327 38.0636 70.5327Z" fill="url(#paint2_linear)"/>
<path fill-rule="evenodd" clip-rule="evenodd" d="M38.0636 32.7391C39.6127 32.7391 40.8689 31.4204 40.8689 29.7923C40.8689 28.165 39.6127 26.8463 38.0636 26.8463C36.5136 26.8463 35.2582 28.165 35.2582 29.7923C35.2582 31.4204 36.5136 32.7391 38.0636 32.7391Z" fill="white"/>
<path fill-rule="evenodd" clip-rule="evenodd" d="M38.0636 32.7391C39.6127 32.7391 40.8689 31.4204 40.8689 29.7923C40.8689 28.165 39.6127 26.8463 38.0636 26.8463C36.5136 26.8463 35.2582 28.165 35.2582 29.7923C35.2582 31.4204 36.5136 32.7391 38.0636 32.7391Z" fill="url(#paint3_linear)"/>
<path fill-rule="evenodd" clip-rule="evenodd" d="M38.0636 42.5537C39.6127 42.5537 40.8689 41.2341 40.8689 39.6069C40.8689 37.9796 39.6127 36.66 38.0636 36.66C36.5136 36.66 35.2582 37.9796 35.2582 39.6069C35.2582 41.2341 36.5136 42.5537 38.0636 42.5537Z" fill="white"/>
<path fill-rule="evenodd" clip-rule="evenodd" d="M38.0636 42.5537C39.6127 42.5537 40.8689 41.2341 40.8689 39.6069C40.8689 37.9796 39.6127 36.66 38.0636 36.66C36.5136 36.66 35.2582 37.9796 35.2582 39.6069C35.2582 41.2341 36.5136 42.5537 38.0636 42.5537Z" fill="url(#paint4_linear)"/>
<path fill-rule="evenodd" clip-rule="evenodd" d="M38.0636 13.5444C35.6064 13.5444 33.6162 15.1057 33.6162 17.0318C33.6162 18.958 35.6064 20.5193 38.0636 20.5193C40.5199 20.5193 42.5109 18.958 42.5109 17.0318C42.5109 15.1057 40.5199 13.5444 38.0636 13.5444Z" fill="white"/>
<path fill-rule="evenodd" clip-rule="evenodd" d="M38.0636 13.5444C35.6064 13.5444 33.6162 15.1057 33.6162 17.0318C33.6162 18.958 35.6064 20.5193 38.0636 20.5193C40.5199 20.5193 42.5109 18.958 42.5109 17.0318C42.5109 15.1057 40.5199 13.5444 38.0636 13.5444Z" fill="url(#paint5_linear)"/>
<path fill-rule="evenodd" clip-rule="evenodd" d="M38.0636 8.68132C41.8782 8.68132 44.9706 6.73758 44.9706 4.3411C44.9706 1.94286 41.8782 0 38.0636 0C34.2481 0 31.1557 1.94286 31.1557 4.3411C31.1557 6.73758 34.2481 8.68132 38.0636 8.68132Z" fill="white"/>
<path fill-rule="evenodd" clip-rule="evenodd" d="M38.0636 8.68132C41.8782 8.68132 44.9706 6.73758 44.9706 4.3411C44.9706 1.94286 41.8782 0 38.0636 0C34.2481 0 31.1557 1.94286 31.1557 4.3411C31.1557 6.73758 34.2481 8.68132 38.0636 8.68132Z" fill="url(#paint6_linear)"/>
<path fill-rule="evenodd" clip-rule="evenodd" d="M28.7202 36.6604C27.1702 36.6604 25.9148 37.9791 25.9148 39.6072C25.9148 41.2345 27.1702 42.554 28.7202 42.554C30.2693 42.554 31.5255 41.2345 31.5255 39.6072C31.5255 37.9791 30.2693 36.6604 28.7202 36.6604Z" fill="white"/>
<path fill-rule="evenodd" clip-rule="evenodd" d="M28.7202 36.6604C27.1702 36.6604 25.9148 37.9791 25.9148 39.6072C25.9148 41.2345 27.1702 42.554 28.7202 42.554C30.2693 42.554 31.5255 41.2345 31.5255 39.6072C31.5255 37.9791 30.2693 36.6604 28.7202 36.6604Z" fill="url(#paint7_linear)"/>
<path fill-rule="evenodd" clip-rule="evenodd" d="M16.5719 34.9348C14.739 34.9348 13.2518 37.0262 13.2518 39.6064C13.2518 42.1875 14.739 44.2789 16.5719 44.2789C18.4047 44.2789 19.8919 42.1875 19.8919 39.6064C19.8919 37.0262 18.4047 34.9348 16.5719 34.9348Z" fill="white"/>
<path fill-rule="evenodd" clip-rule="evenodd" d="M16.5719 34.9348C14.739 34.9348 13.2518 37.0262 13.2518 39.6064C13.2518 42.1875 14.739 44.2789 16.5719 44.2789C18.4047 44.2789 19.8919 42.1875 19.8919 39.6064C19.8919 37.0262 18.4047 34.9348 16.5719 34.9348Z" fill="url(#paint8_linear)"/>
<path fill-rule="evenodd" clip-rule="evenodd" d="M4.48975 32.351C2.20749 32.351 0.35791 35.5994 0.35791 39.6064C0.35791 43.6143 2.20749 46.8627 4.48975 46.8627C6.77286 46.8627 8.62244 43.6143 8.62244 39.6064C8.62244 35.5994 6.77286 32.351 4.48975 32.351Z" fill="white"/>
<path fill-rule="evenodd" clip-rule="evenodd" d="M4.48975 32.351C2.20749 32.351 0.35791 35.5994 0.35791 39.6064C0.35791 43.6143 2.20749 46.8627 4.48975 46.8627C6.77286 46.8627 8.62244 43.6143 8.62244 39.6064C8.62244 35.5994 6.77286 32.351 4.48975 32.351Z" fill="url(#paint9_linear)"/>
<path fill-rule="evenodd" clip-rule="evenodd" d="M50.2119 39.6068C50.2119 37.9795 48.9557 36.66 47.4065 36.66C45.8574 36.66 44.6012 37.9795 44.6012 39.6068C44.6012 41.234 45.8574 42.5536 47.4065 42.5536C48.9557 42.5536 50.2119 41.234 50.2119 39.6068Z" fill="white"/>
<path fill-rule="evenodd" clip-rule="evenodd" d="M50.2119 39.6068C50.2119 37.9795 48.9557 36.66 47.4065 36.66C45.8574 36.66 44.6012 37.9795 44.6012 39.6068C44.6012 41.234 45.8574 42.5536 47.4065 42.5536C48.9557 42.5536 50.2119 41.234 50.2119 39.6068Z" fill="url(#paint10_linear)"/>
<path fill-rule="evenodd" clip-rule="evenodd" d="M59.5544 44.2793C61.3881 44.2793 62.8753 42.187 62.8753 39.6068C62.8753 37.0266 61.3881 34.9351 59.5544 34.9351C57.7216 34.9351 56.2344 37.0266 56.2344 39.6068C56.2344 42.187 57.7216 44.2793 59.5544 44.2793Z" fill="white"/>
<path fill-rule="evenodd" clip-rule="evenodd" d="M59.5544 44.2793C61.3881 44.2793 62.8753 42.187 62.8753 39.6068C62.8753 37.0266 61.3881 34.9351 59.5544 34.9351C57.7216 34.9351 56.2344 37.0266 56.2344 39.6068C56.2344 42.187 57.7216 44.2793 59.5544 44.2793Z" fill="url(#paint11_linear)"/>
<path fill-rule="evenodd" clip-rule="evenodd" d="M71.6365 32.351C69.3543 32.351 67.5047 35.5994 67.5047 39.6064C67.5047 43.6143 69.3543 46.8627 71.6365 46.8627C73.9196 46.8627 75.7684 43.6143 75.7684 39.6064C75.7684 35.5994 73.9196 32.351 71.6365 32.351Z" fill="white"/>
<path fill-rule="evenodd" clip-rule="evenodd" d="M71.6365 32.351C69.3543 32.351 67.5047 35.5994 67.5047 39.6064C67.5047 43.6143 69.3543 46.8627 71.6365 46.8627C73.9196 46.8627 75.7684 43.6143 75.7684 39.6064C75.7684 35.5994 73.9196 32.351 71.6365 32.351Z" fill="url(#paint12_linear)"/>
<path fill-rule="evenodd" clip-rule="evenodd" d="M19.7218 26.9475C21.0181 28.3093 23.477 27.9348 25.2136 26.1097C26.951 24.2855 27.3075 21.7018 26.012 20.34C24.7156 18.9783 22.2559 19.3528 20.5185 21.1778C18.7819 23.002 18.4245 25.5858 19.7218 26.9475Z" fill="white"/>
<path fill-rule="evenodd" clip-rule="evenodd" d="M19.7218 26.9475C21.0181 28.3093 23.477 27.9348 25.2136 26.1097C26.951 24.2855 27.3075 21.7018 26.012 20.34C24.7156 18.9783 22.2559 19.3528 20.5185 21.1778C18.7819 23.002 18.4245 25.5858 19.7218 26.9475Z" fill="url(#paint13_linear)"/>
<path fill-rule="evenodd" clip-rule="evenodd" d="M17.2453 17.7391C19.9435 14.9057 20.8215 11.2345 19.2079 9.53864C17.5943 7.84369 14.0985 8.76677 11.402 11.6002C8.70378 14.4336 7.82502 18.1057 9.43943 19.8006C11.053 21.4956 14.548 20.5725 17.2453 17.7391Z" fill="white"/>
<path fill-rule="evenodd" clip-rule="evenodd" d="M17.2453 17.7391C19.9435 14.9057 20.8215 11.2345 19.2079 9.53864C17.5943 7.84369 14.0985 8.76677 11.402 11.6002C8.70378 14.4336 7.82502 18.1057 9.43943 19.8006C11.053 21.4956 14.548 20.5725 17.2453 17.7391Z" fill="url(#paint14_linear)"/>
<path fill-rule="evenodd" clip-rule="evenodd" d="M56.4054 52.266C55.1082 50.9043 52.6501 51.2797 50.9127 53.1038C49.1753 54.9289 48.8187 57.5117 50.1143 58.8744C51.4115 60.2353 53.8712 59.8608 55.6078 58.0357C57.3444 56.2115 57.7017 53.6287 56.4054 52.266Z" fill="white"/>
<path fill-rule="evenodd" clip-rule="evenodd" d="M56.4054 52.266C55.1082 50.9043 52.6501 51.2797 50.9127 53.1038C49.1753 54.9289 48.8187 57.5117 50.1143 58.8744C51.4115 60.2353 53.8712 59.8608 55.6078 58.0357C57.3444 56.2115 57.7017 53.6287 56.4054 52.266Z" fill="url(#paint15_linear)"/>
<path fill-rule="evenodd" clip-rule="evenodd" d="M58.881 61.4746C56.1836 64.3088 55.3057 67.9792 56.9184 69.675C58.5328 71.3699 62.0277 70.4469 64.7251 67.6135C67.4225 64.7801 68.3013 61.1088 66.6877 59.413C65.0733 57.719 61.5792 58.6411 58.881 61.4746Z" fill="white"/>
<path fill-rule="evenodd" clip-rule="evenodd" d="M58.881 61.4746C56.1836 64.3088 55.3057 67.9792 56.9184 69.675C58.5328 71.3699 62.0277 70.4469 64.7251 67.6135C67.4225 64.7801 68.3013 61.1088 66.6877 59.413C65.0733 57.719 61.5792 58.6411 58.881 61.4746Z" fill="url(#paint16_linear)"/>
<path fill-rule="evenodd" clip-rule="evenodd" d="M56.4054 26.9475C57.7017 25.5858 57.3444 23.002 55.6078 21.1778C53.8712 19.3528 51.4115 18.9783 50.1143 20.34C48.8187 21.7018 49.1753 24.2855 50.9127 26.1097C52.6501 27.9348 55.1082 28.3093 56.4054 26.9475Z" fill="white"/>
<path fill-rule="evenodd" clip-rule="evenodd" d="M56.4054 26.9475C57.7017 25.5858 57.3444 23.002 55.6078 21.1778C53.8712 19.3528 51.4115 18.9783 50.1143 20.34C48.8187 21.7018 49.1753 24.2855 50.9127 26.1097C52.6501 27.9348 55.1082 28.3093 56.4054 26.9475Z" fill="url(#paint17_linear)"/>
<path fill-rule="evenodd" clip-rule="evenodd" d="M56.9186 9.53899C55.3051 11.2339 56.1838 14.9051 58.8812 17.7394C61.5786 20.5728 65.0735 21.4959 66.6879 19.8001C68.3015 18.1051 67.4228 14.4339 64.7254 11.6005C62.0272 8.76712 58.5331 7.84404 56.9186 9.53899Z" fill="white"/>
<path fill-rule="evenodd" clip-rule="evenodd" d="M56.9186 9.53899C55.3051 11.2339 56.1838 14.9051 58.8812 17.7394C61.5786 20.5728 65.0735 21.4959 66.6879 19.8001C68.3015 18.1051 67.4228 14.4339 64.7254 11.6005C62.0272 8.76712 58.5331 7.84404 56.9186 9.53899Z" fill="url(#paint18_linear)"/>
<path fill-rule="evenodd" clip-rule="evenodd" d="M19.7218 52.266C18.4245 53.6287 18.7819 56.2115 20.5185 58.0357C22.2559 59.8608 24.7156 60.2353 26.012 58.8744C27.3075 57.5117 26.951 54.9289 25.2136 53.1038C23.477 51.2797 21.0181 50.9043 19.7218 52.266Z" fill="white"/>
<path fill-rule="evenodd" clip-rule="evenodd" d="M19.7218 52.266C18.4245 53.6287 18.7819 56.2115 20.5185 58.0357C22.2559 59.8608 24.7156 60.2353 26.012 58.8744C27.3075 57.5117 26.951 54.9289 25.2136 53.1038C23.477 51.2797 21.0181 50.9043 19.7218 52.266Z" fill="url(#paint19_linear)"/>
<path fill-rule="evenodd" clip-rule="evenodd" d="M9.43926 59.4132C7.82486 61.109 8.70362 64.7793 11.4018 67.6136C14.0984 70.447 17.5942 71.3701 19.2077 69.6752C20.8221 67.9793 19.9434 64.3081 17.2452 61.4747C14.5478 58.6413 11.0528 57.7183 9.43926 59.4132Z" fill="white"/>
<path fill-rule="evenodd" clip-rule="evenodd" d="M9.43926 59.4132C7.82486 61.109 8.70362 64.7793 11.4018 67.6136C14.0984 70.447 17.5942 71.3701 19.2077 69.6752C20.8221 67.9793 19.9434 64.3081 17.2452 61.4747C14.5478 58.6413 11.0528 57.7183 9.43926 59.4132Z" fill="url(#paint20_linear)"/>
<path d="M107.107 48.7677C113.496 48.7677 114.936 44.447 114.936 44.447L112.13 42.4529C112.13 42.4529 110.246 44.7055 107.624 44.7055C104.855 44.7055 102.971 43.0807 102.971 38.8707C102.971 34.7716 104.596 33.036 107.993 33.036C109.286 33.036 112.61 34.8455 112.61 34.8455L114.271 31.4849C114.271 31.4849 112.203 28.9368 107.255 28.9368C100.718 28.9368 97.3579 32.9621 97.3579 38.9446C97.3579 45.1856 100.571 48.7677 107.107 48.7677ZM126.384 48.7677C132.588 48.7677 136.429 44.964 136.429 38.8338C136.429 32.7036 132.884 28.9368 126.384 28.9368C119.885 28.9368 116.376 32.7036 116.376 38.8338C116.376 44.964 119.885 48.7677 126.384 48.7677ZM126.384 44.7055C123.134 44.7055 121.953 42.3421 121.953 38.7969C121.953 35.3256 123.134 33.036 126.384 33.036C129.634 33.036 130.853 35.3625 130.853 38.8338C130.853 42.3421 129.634 44.7055 126.384 44.7055ZM150.831 48.0661L157.774 29.6016H151.791L147.914 43.1176H147.729L143.852 29.6016H137.832L144.812 48.0661H150.831ZM165.529 26.241V21.7726H160.728V26.241H165.529ZM165.861 48.0661V29.6016H160.433V48.0661H165.861ZM178.048 48.7677C181.778 48.7677 183.144 46.8105 183.55 45.9981L184.104 48.0661H188.905V20.3693H183.476V31.1895H183.329C183.329 31.1895 181.999 28.9368 178.048 28.9368C172.656 28.9368 169.407 33.2206 169.407 39.24C169.407 44.8533 172.878 48.7677 178.048 48.7677ZM179.673 44.5209C176.423 44.5209 174.983 42.8222 174.983 39.0923C174.983 35.3994 176.386 33.1467 179.894 33.1467C182.775 33.1467 183.44 35.0671 183.476 35.1778V41.9359C183.403 42.1574 182.627 44.5209 179.673 44.5209ZM202.421 48.7677C208.625 48.7677 212.466 44.964 212.466 38.8338C212.466 32.7036 208.921 28.9368 202.421 28.9368C195.922 28.9368 192.413 32.7036 192.413 38.8338C192.413 44.964 195.922 48.7677 202.421 48.7677ZM202.421 44.7055C199.171 44.7055 197.99 42.3421 197.99 38.7969C197.99 35.3256 199.171 33.036 202.421 33.036C205.671 33.036 206.889 35.3625 206.889 38.8338C206.889 42.3421 205.671 44.7055 202.421 44.7055ZM224.025 58C231.152 58 233.737 55.1934 233.737 51.2051C233.737 47.2167 230.709 44.8533 223.803 44.8533H223.692C223.36 44.8163 222.584 44.5578 222.584 43.5977C222.584 42.896 222.843 42.6375 222.991 42.5267H223.803C229.01 42.5267 232.149 40.4956 232.149 35.9164C232.149 32.7405 230.709 30.6725 228.234 29.6754L230.561 25.2809L226.425 24.7269L224.948 28.9738C224.615 28.9738 224.246 28.9368 223.914 28.9368C218.928 28.9368 215.088 31.0787 215.088 35.9164C215.088 38.9077 216.602 40.828 219.113 41.7881C218.559 42.3052 218.19 42.9699 218.19 43.8192C218.19 44.484 218.374 45.0748 218.633 45.5549C215.716 46.5151 214.091 48.4354 214.091 51.2051C214.091 55.2303 216.823 58 224.025 58ZM223.692 39.3139C221.513 39.3139 220.11 38.3537 220.11 35.9164C220.11 33.2206 221.624 32.3712 223.692 32.3712C225.76 32.3712 227.127 33.2206 227.127 35.8056C227.127 38.2799 225.871 39.3139 223.692 39.3139ZM224.025 54.2702C220.479 54.2702 219.113 53.1992 219.113 51.2051C219.113 49.2109 220.516 48.3615 223.766 48.3615H223.803C227.348 48.3615 228.715 49.174 228.715 51.1681C228.715 53.0884 227.496 54.2702 224.025 54.2702ZM241.381 48.0661V35.9903C241.381 35.9903 242.415 33.7007 244.816 33.7007C245.591 33.7007 247.29 34.2177 247.29 34.2177L248.324 29.8601C248.324 29.8601 247.659 28.9368 245.296 28.9368C242.341 28.9368 241.234 31.3372 240.938 32.2235L240.236 29.6016H235.953V48.0661H241.381ZM256.374 48.7677C260.178 48.7677 261.36 46.6628 261.729 45.7765L262.505 48.0661H267.01V36.138C267.01 31.0049 263.982 28.9368 258.59 28.9368C252.571 28.9368 250.909 32.3343 250.909 32.3343L253.974 34.8455C253.974 34.8455 255.23 33.0729 258.036 33.0729C260.289 33.0729 261.618 33.8853 261.618 36.2488V36.3226C257.15 36.6181 249.579 38.206 249.579 43.413C249.579 46.5889 252.128 48.7677 256.374 48.7677ZM257.999 44.8902C256.042 44.8902 254.897 44.1147 254.897 42.5637C254.897 40.6064 257.778 39.8678 261.618 39.5355V42.4529C261.618 42.4529 261.101 44.8902 257.999 44.8902ZM278.052 48.0661V33.9592H283.665V29.6016H278.052V27.5335C278.052 25.1701 278.79 24.2468 280.083 24.2468C280.895 24.2468 282.816 24.7638 282.816 24.7638L283.887 21.551C283.887 21.551 282.779 20 279.197 20C274.211 20 272.623 22.8066 272.623 26.9796V29.6385L270.518 30.3401V33.9592H272.623V48.0661H278.052ZM291.088 26.241V21.7726H286.287V26.241H291.088ZM291.272 48.0661V29.6016H285.844V48.0661H291.272ZM301.539 48.7677C305.342 48.7677 306.524 46.6628 306.893 45.7765L307.669 48.0661H312.174V36.138C312.174 31.0049 309.146 28.9368 303.754 28.9368C297.735 28.9368 296.073 32.3343 296.073 32.3343L299.138 34.8455C299.138 34.8455 300.394 33.0729 303.2 33.0729C305.453 33.0729 306.783 33.8853 306.783 36.2488V36.3226C302.314 36.6181 294.744 38.206 294.744 43.413C294.744 46.5889 297.292 48.7677 301.539 48.7677ZM303.164 44.8902C301.206 44.8902 300.062 44.1147 300.062 42.5637C300.062 40.6064 302.942 39.8678 306.783 39.5355V42.4529C306.783 42.4529 306.266 44.8902 303.164 44.8902Z" fill="url(#paint21_linear)"/>
<defs>
<linearGradient id="paint0_linear" x1="-32.5172" y1="45.2541" x2="9.38727" y2="140.591" gradientUnits="userSpaceOnUse">
<stop stop-color="#FA6400"/>
<stop offset="1" stop-color="#6B68FC"/>
</linearGradient>
<linearGradient id="paint1_linear" x1="-32.5172" y1="45.2541" x2="9.38727" y2="140.591" gradientUnits="userSpaceOnUse">
<stop stop-color="#FA6400"/>
<stop offset="1" stop-color="#6B68FC"/>
</linearGradient>
<linearGradient id="paint2_linear" x1="-32.5172" y1="45.2541" x2="9.38727" y2="140.591" gradientUnits="userSpaceOnUse">
<stop stop-color="#FA6400"/>
<stop offset="1" stop-color="#6B68FC"/>
</linearGradient>
<linearGradient id="paint3_linear" x1="-32.5172" y1="45.2541" x2="9.38727" y2="140.591" gradientUnits="userSpaceOnUse">
<stop stop-color="#FA6400"/>
<stop offset="1" stop-color="#6B68FC"/>
</linearGradient>
<linearGradient id="paint4_linear" x1="-32.5172" y1="45.2541" x2="9.38727" y2="140.591" gradientUnits="userSpaceOnUse">
<stop stop-color="#FA6400"/>
<stop offset="1" stop-color="#6B68FC"/>
</linearGradient>
<linearGradient id="paint5_linear" x1="-32.5172" y1="45.2541" x2="9.38727" y2="140.591" gradientUnits="userSpaceOnUse">
<stop stop-color="#FA6400"/>
<stop offset="1" stop-color="#6B68FC"/>
</linearGradient>
<linearGradient id="paint6_linear" x1="-32.5172" y1="45.2541" x2="9.38727" y2="140.591" gradientUnits="userSpaceOnUse">
<stop stop-color="#FA6400"/>
<stop offset="1" stop-color="#6B68FC"/>
</linearGradient>
<linearGradient id="paint7_linear" x1="-32.5172" y1="45.2541" x2="9.38727" y2="140.591" gradientUnits="userSpaceOnUse">
<stop stop-color="#FA6400"/>
<stop offset="1" stop-color="#6B68FC"/>
</linearGradient>
<linearGradient id="paint8_linear" x1="-32.5172" y1="45.2541" x2="9.38727" y2="140.591" gradientUnits="userSpaceOnUse">
<stop stop-color="#FA6400"/>
<stop offset="1" stop-color="#6B68FC"/>
</linearGradient>
<linearGradient id="paint9_linear" x1="-32.5172" y1="45.2541" x2="9.38727" y2="140.591" gradientUnits="userSpaceOnUse">
<stop stop-color="#FA6400"/>
<stop offset="1" stop-color="#6B68FC"/>
</linearGradient>
<linearGradient id="paint10_linear" x1="-32.5172" y1="45.2541" x2="9.38727" y2="140.591" gradientUnits="userSpaceOnUse">
<stop stop-color="#FA6400"/>
<stop offset="1" stop-color="#6B68FC"/>
</linearGradient>
<linearGradient id="paint11_linear" x1="-32.5172" y1="45.2541" x2="9.38727" y2="140.591" gradientUnits="userSpaceOnUse">
<stop stop-color="#FA6400"/>
<stop offset="1" stop-color="#6B68FC"/>
</linearGradient>
<linearGradient id="paint12_linear" x1="-32.5172" y1="45.2541" x2="9.38727" y2="140.591" gradientUnits="userSpaceOnUse">
<stop stop-color="#FA6400"/>
<stop offset="1" stop-color="#6B68FC"/>
</linearGradient>
<linearGradient id="paint13_linear" x1="-32.5172" y1="45.2541" x2="9.38727" y2="140.591" gradientUnits="userSpaceOnUse">
<stop stop-color="#FA6400"/>
<stop offset="1" stop-color="#6B68FC"/>
</linearGradient>
<linearGradient id="paint14_linear" x1="-32.5172" y1="45.2541" x2="9.38727" y2="140.591" gradientUnits="userSpaceOnUse">
<stop stop-color="#FA6400"/>
<stop offset="1" stop-color="#6B68FC"/>
</linearGradient>
<linearGradient id="paint15_linear" x1="-32.5172" y1="45.2541" x2="9.38727" y2="140.591" gradientUnits="userSpaceOnUse">
<stop stop-color="#FA6400"/>
<stop offset="1" stop-color="#6B68FC"/>
</linearGradient>
<linearGradient id="paint16_linear" x1="-32.5172" y1="45.2541" x2="9.38727" y2="140.591" gradientUnits="userSpaceOnUse">
<stop stop-color="#FA6400"/>
<stop offset="1" stop-color="#6B68FC"/>
</linearGradient>
<linearGradient id="paint17_linear" x1="-32.5172" y1="45.2541" x2="9.38727" y2="140.591" gradientUnits="userSpaceOnUse">
<stop stop-color="#FA6400"/>
<stop offset="1" stop-color="#6B68FC"/>
</linearGradient>
<linearGradient id="paint18_linear" x1="-32.5172" y1="45.2541" x2="9.38727" y2="140.591" gradientUnits="userSpaceOnUse">
<stop stop-color="#FA6400"/>
<stop offset="1" stop-color="#6B68FC"/>
</linearGradient>
<linearGradient id="paint19_linear" x1="-32.5172" y1="45.2541" x2="9.38727" y2="140.591" gradientUnits="userSpaceOnUse">
<stop stop-color="#FA6400"/>
<stop offset="1" stop-color="#6B68FC"/>
</linearGradient>
<linearGradient id="paint20_linear" x1="-32.5172" y1="45.2541" x2="9.38727" y2="140.591" gradientUnits="userSpaceOnUse">
<stop stop-color="#FA6400"/>
<stop offset="1" stop-color="#6B68FC"/>
</linearGradient>
<linearGradient id="paint21_linear" x1="97.3579" y1="30.0588" x2="255.692" y2="30.0588" gradientUnits="userSpaceOnUse">
<stop stop-color="#C16665"/>
<stop offset="1" stop-color="#6E68F6"/>
</linearGradient>
</defs>
</svg>
