<svg width="250" height="157" viewBox="0 0 250 157" fill="none" xmlns="http://www.w3.org/2000/svg">
<g clip-path="url(#clip0)">
<path opacity="0.1" d="M248.414 108.154C245.904 114.188 240.662 119.627 235.025 124.803C230.07 129.34 224.784 133.722 219.124 137.95C217.561 139.118 215.975 140.285 214.368 141.43L213.244 142.223C212.253 142.928 211.24 143.632 210.205 144.315L210.073 144.403C209.082 145.086 208.069 145.746 207.056 146.429C203.731 148.609 200.229 150.768 196.353 152.573C195.032 153.19 193.666 153.763 192.257 154.269C191.486 154.556 190.715 154.798 189.923 155.04C188.623 155.436 187.28 155.789 185.892 156.075C185.65 156.119 185.43 156.163 185.188 156.207C183.756 156.471 182.303 156.67 180.849 156.802C175.476 157.286 169.948 156.934 164.553 156.097C161.866 155.679 159.223 155.128 156.668 154.511C156.36 154.445 156.052 154.357 155.721 154.291C147.001 152.111 138.83 149.16 130.043 147.068C127.026 146.341 123.943 145.746 120.794 145.24C119.252 144.998 117.711 144.777 116.169 144.579C112.513 144.117 108.835 143.83 105.114 143.676C100.115 143.456 94.9392 143.544 90.1824 144.425C89.5437 144.535 88.9271 144.667 88.3104 144.821C87.5176 144.998 86.7468 145.218 85.9981 145.438C83.972 146.099 81.99 146.914 80.074 147.883C79.6996 148.059 79.3252 148.257 78.9509 148.433C77.7837 149.028 76.6385 149.644 75.4713 150.217C73.3571 151.318 71.1769 152.243 68.9306 152.992C67.6973 153.388 66.442 153.697 65.1647 153.961C61.7953 154.644 58.2276 154.908 54.638 154.908C52.8982 154.908 51.1584 154.864 49.4627 154.776H49.4186C48.824 154.754 48.2514 154.71 47.6568 154.666C44.97 154.489 42.3053 154.203 39.6846 153.807C30.6774 152.485 22.1327 149.997 15.2616 146.187C5.92407 141.012 -1.43051e-06 133.304 0.880901 125.596C1.51955 120.046 5.48361 114.893 9.24947 109.849C16.2526 100.446 22.8154 90.8438 26.2509 80.7133C29.0477 72.4989 29.8846 63.7999 36.3372 56.4003C38.4073 54.0438 41.05 51.8856 44.1112 49.9917C46.4015 48.5822 48.824 47.3709 51.3125 46.3579C54.1314 45.2127 57.0384 44.2657 59.9894 43.517C62.544 42.8783 65.1427 42.3938 67.7634 42.0635C69.1949 41.8873 70.6263 41.7331 72.0798 41.645C73.203 41.557 74.3261 41.5129 75.4493 41.4909H75.6254C76.3081 41.4689 77.0129 41.4689 77.6956 41.4909C82.7167 41.579 87.7158 42.0415 92.6709 42.9003C95.7761 43.4289 98.8372 44.0455 101.854 44.7502C103.638 45.1687 105.422 45.6091 107.184 46.0496C107.712 46.1817 108.263 46.3359 108.791 46.468C121.322 49.8155 132.356 54.4623 144.424 58.2722C144.49 58.2942 144.534 58.3162 144.6 58.3162C147.089 59.087 149.599 59.7037 152.132 60.2102C154.004 60.5846 155.92 60.9149 157.858 61.2012C160.831 61.6417 163.87 61.994 166.931 62.2803L167.614 62.3464C172.106 62.7869 176.643 63.1172 181.047 63.4916C182.611 63.6237 184.153 63.7779 185.694 63.932C186.663 64.0201 187.632 64.1302 188.579 64.2404C189.262 64.3284 189.945 64.3945 190.627 64.4826C191.31 64.5707 192.037 64.6588 192.741 64.7469C193.204 64.8129 193.666 64.857 194.107 64.9231C196.882 65.2974 199.656 65.6939 202.387 66.1784C204.061 66.4646 205.713 66.773 207.342 67.1033C208.532 67.3456 209.699 67.5878 210.866 67.8741C211.725 68.0723 212.584 68.2705 213.443 68.4907C220.336 70.2305 226.788 72.4989 232.36 75.56C246.763 83.5323 253.215 96.6138 248.414 108.154Z" fill="#6C63FF"/>
<path opacity="0.1" d="M54.8361 19.9086C57.4632 19.9086 59.593 17.7789 59.593 15.1517C59.593 12.5245 57.4632 10.3948 54.8361 10.3948C52.2089 10.3948 50.0792 12.5245 50.0792 15.1517C50.0792 17.7789 52.2089 19.9086 54.8361 19.9086Z" fill="#6C63FF"/>
<path opacity="0.1" d="M152.198 9.51382C154.825 9.51382 156.955 7.38408 156.955 4.75691C156.955 2.12974 154.825 0 152.198 0C149.571 0 147.441 2.12974 147.441 4.75691C147.441 7.38408 149.571 9.51382 152.198 9.51382Z" fill="#6C63FF"/>
<path opacity="0.1" d="M209.919 20.1947C212.546 20.1947 214.676 18.065 214.676 15.4378C214.676 12.8106 212.546 10.6809 209.919 10.6809C207.292 10.6809 205.162 12.8106 205.162 15.4378C205.162 18.065 207.292 20.1947 209.919 20.1947Z" fill="#6C63FF"/>
<path opacity="0.1" d="M7.97209 34.6638C12.3872 34.6638 15.9663 31.0846 15.9663 26.6695C15.9663 22.2544 12.3872 18.6753 7.97209 18.6753C3.55702 18.6753 -0.0220947 22.2544 -0.0220947 26.6695C-0.0220947 31.0846 3.55702 34.6638 7.97209 34.6638Z" fill="#6C63FF"/>
<path opacity="0.1" d="M15.636 74.0624C20.0389 74.0624 23.6081 70.4931 23.6081 66.0901C23.6081 61.6872 20.0389 58.1179 15.636 58.1179C11.2331 58.1179 7.66382 61.6872 7.66382 66.0901C7.66382 70.4931 11.2331 74.0624 15.636 74.0624Z" fill="#6C63FF"/>
<path opacity="0.1" d="M229.893 59.5715C234.308 59.5715 237.888 55.9924 237.888 51.5773C237.888 47.1622 234.308 43.583 229.893 43.583C225.478 43.583 221.899 47.1622 221.899 51.5773C221.899 55.9924 225.478 59.5715 229.893 59.5715Z" fill="#6C63FF"/>
<path d="M78.0259 52.7224C78.0699 53.383 78.0259 54.0658 77.9157 54.7264C77.4753 56.7745 75.6034 58.184 73.7975 59.2411C71.9917 60.2982 70.0097 61.3112 68.9306 63.1171C67.6312 65.2973 68.0497 68.2043 69.5692 70.2525C71.0888 72.3006 73.4892 73.4898 75.9557 73.9963C80.4704 74.9213 85.4254 73.6219 88.7949 70.4947C92.1643 67.3675 93.8821 62.4784 93.0452 57.9418C91.2174 58.206 89.5657 56.5763 88.9711 54.8145C88.3765 53.0527 88.5086 51.1588 88.2663 49.3088C88.2443 49.0005 88.1562 48.6922 88.0021 48.4279C87.7378 48.0756 87.2974 47.9214 86.8569 47.8113C84.7427 47.2387 81.1531 45.9394 78.9728 46.4459C77.0349 46.8863 78.0038 51.0486 78.0259 52.7224Z" fill="#BE6F72"/>
<path opacity="0.1" d="M78.0259 52.7224C78.0699 53.383 78.0259 54.0658 77.9157 54.7264C77.4753 56.7745 75.6034 58.184 73.7975 59.2411C71.9917 60.2982 70.0097 61.3112 68.9306 63.1171C67.6312 65.2973 68.0497 68.2043 69.5692 70.2525C71.0888 72.3006 73.4892 73.4898 75.9557 73.9963C80.4704 74.9213 85.4254 73.6219 88.7949 70.4947C92.1643 67.3675 93.8821 62.4784 93.0452 57.9418C91.2174 58.206 89.5657 56.5763 88.9711 54.8145C88.3765 53.0527 88.5086 51.1588 88.2663 49.3088C88.2443 49.0005 88.1562 48.6922 88.0021 48.4279C87.7378 48.0756 87.2974 47.9214 86.8569 47.8113C84.7427 47.2387 81.1531 45.9394 78.9728 46.4459C77.0349 46.8863 78.0038 51.0486 78.0259 52.7224Z" fill="black"/>
<path d="M92.0983 133.678C91.9442 135.11 91.7239 136.563 91.2174 137.906C90.6668 139.36 89.7639 140.769 89.874 142.311C89.9181 142.994 90.1603 143.72 90.1823 144.381C89.5437 144.491 88.9271 144.623 88.3104 144.777C87.5176 144.954 86.7468 145.174 85.9981 145.394C83.972 146.055 81.99 146.87 80.074 147.839C79.6996 148.015 79.3252 148.213 78.9508 148.389C78.7967 148.367 78.6425 148.345 78.4884 148.323C77.3872 148.125 76.22 147.618 75.6034 146.737C75.4713 146.539 75.3391 146.319 75.2731 146.077C74.9207 144.998 75.2951 143.676 74.5463 142.817L74.5023 142.839L74.4803 142.862C74.0618 143.236 73.6214 143.566 73.1369 143.83C70.9126 145.086 68.2919 145.328 65.8694 144.535C65.407 144.381 64.9445 144.161 64.504 143.919C63.491 143.346 62.522 142.377 62.6101 141.232C62.6541 140.593 63.0285 139.977 62.9184 139.338C62.8524 138.875 62.544 138.501 62.3238 138.105C60.8483 135.462 62.6101 132.07 61.6852 129.185C61.6631 129.119 61.6411 129.053 61.6191 128.987C61.553 128.811 61.4649 128.613 61.3989 128.437C61.2007 128.018 61.0025 127.6 60.8263 127.159C60.6941 126.807 60.584 126.433 60.4959 126.036C60.2977 124.935 60.2097 123.812 60.2757 122.689C60.2757 119.738 60.8043 116.699 61.553 113.858C61.6852 113.351 61.8393 112.646 62.0375 111.854C62.2357 111.039 62.5 110.224 62.8083 109.453C63.2488 108.44 63.8434 107.625 64.6582 107.449C65.8915 107.163 67.7854 107.779 69.0187 107.911L73.9737 108.506L83.8619 109.695C85.5796 109.894 87.3635 110.136 88.7729 111.105C88.861 111.171 88.9491 111.237 89.0372 111.303C89.4116 111.589 89.7419 111.942 90.0282 112.316C90.1383 112.448 90.2264 112.58 90.3145 112.712C90.6448 113.197 90.9091 113.725 91.1293 114.276C92.3626 117.227 92.3846 120.508 92.3846 123.702C92.4286 127.027 92.4507 130.375 92.0983 133.678Z" fill="#3F3D56"/>
<path opacity="0.1" d="M73.1369 143.874C72.8286 142.729 72.2119 141.078 72.1239 140.615C71.8155 139.096 71.5953 137.576 71.4412 136.034C71.1989 133.282 70.7585 129.428 71.7274 126.829C72.6304 127.313 73.4452 128.679 73.8636 129.626C75.3832 133.017 73.6654 137.18 75.0969 140.615C75.207 140.813 75.2731 141.056 75.2951 141.276C75.2731 141.562 75.163 141.848 74.9868 142.091L74.5023 142.883L73.1369 143.874Z" fill="black"/>
<path d="M104.871 39.1125C106.501 36.4697 108.703 33.871 108.571 30.7879C108.527 29.6867 108.153 28.6076 107.888 27.5285C107.096 24.4013 107.052 21.1419 107.734 17.9927C110.465 17.5522 113.24 18.1688 115.53 19.7325C116.257 20.239 116.94 20.8556 117.248 21.6705C117.534 22.4192 117.49 23.2561 117.446 24.0709C117.336 25.9208 117.16 27.9029 116.015 29.3564C115.662 29.8189 115.222 30.1932 114.87 30.6557C114.363 31.3164 114.077 32.1312 113.79 32.902L110.047 43.0986C108.153 48.2299 106.105 53.6034 101.942 57.1491C101.832 57.2372 98.8592 53.0088 98.6169 52.5683C97.6259 50.8285 98.0664 50.1018 99.2556 48.6263C101.634 45.7413 102.911 42.2617 104.871 39.1125Z" fill="#BE6F72"/>
<path d="M61.9494 125.926C61.9274 126.697 61.8833 127.446 61.7512 128.194C61.7072 128.481 61.6631 128.745 61.6191 129.031C60.8703 132.951 58.9984 136.673 57.6991 140.505C55.9813 145.548 55.2105 149.931 54.6159 154.93C52.8761 154.93 51.1363 154.886 49.4406 154.798H49.3966C48.802 154.776 48.2294 154.732 47.6348 154.688C48.1633 150.019 47.1943 145.13 48.1413 140.439C48.5157 138.567 49.1763 136.739 49.5727 134.867C49.7049 134.317 49.793 133.766 49.837 133.194C49.8811 132.665 49.9251 132.114 50.1674 131.63C50.1894 131.586 50.2114 131.542 50.2334 131.498C50.4536 131.167 50.6959 130.859 51.0042 130.617C53.691 128.26 56.9723 126.697 60.4959 126.102C60.9804 126.014 61.4649 125.948 61.9494 125.926Z" fill="#FBBEBE"/>
<path opacity="0.1" d="M61.9494 125.926C61.9274 126.697 61.8833 127.446 61.7512 128.194C61.7072 128.481 61.6631 128.745 61.6191 129.031C60.8703 132.951 58.9984 136.673 57.6991 140.505C55.9813 145.548 55.2105 149.931 54.6159 154.93C52.8761 154.93 51.1363 154.886 49.4406 154.798H49.3966C48.802 154.776 48.2294 154.732 47.6348 154.688C48.1633 150.019 47.1943 145.13 48.1413 140.439C48.5157 138.567 49.1763 136.739 49.5727 134.867C49.7049 134.317 49.793 133.766 49.837 133.194C49.8811 132.665 49.9251 132.114 50.1674 131.63C50.1894 131.586 50.2114 131.542 50.2334 131.498C50.4536 131.167 50.6959 130.859 51.0042 130.617C53.691 128.26 56.9723 126.697 60.4959 126.102C60.9804 126.014 61.4649 125.948 61.9494 125.926Z" fill="black"/>
<path d="M50.7841 135.946C50.74 137.179 50.6519 138.391 50.4757 139.602C49.8811 144.557 49.771 149.732 49.3746 154.754C48.78 154.732 48.2074 154.688 47.6128 154.644C44.9261 154.467 42.2613 154.181 39.6406 153.785C39.8389 152.661 40.0371 151.516 40.2573 150.393C40.4995 149.006 40.7638 147.596 40.6757 146.187C40.6096 144.865 40.2573 143.566 39.971 142.245C39.3544 139.448 39.024 136.431 38.033 133.788C37.5045 132.312 36.6896 130.947 35.5885 129.824C39.7067 128.194 43.6928 128.106 48.1193 128.282C48.4276 128.26 48.736 128.348 49.0223 128.503C49.2425 128.679 49.3966 128.921 49.4847 129.185C50.1454 130.793 50.5638 132.489 50.718 134.206C50.7841 134.823 50.8061 135.396 50.7841 135.946Z" fill="#FBBEBE"/>
<path d="M84.0381 51.5771C88.7816 51.5771 92.6269 47.7318 92.6269 42.9883C92.6269 38.2448 88.7816 34.3994 84.0381 34.3994C79.2947 34.3994 75.4493 38.2448 75.4493 42.9883C75.4493 47.7318 79.2947 51.5771 84.0381 51.5771Z" fill="#BE6F72"/>
<path d="M85.8219 63.0511C86.923 61.1792 87.892 58.8228 90.0062 58.3162C91.1954 58.0079 92.4507 58.4264 93.6179 58.8228C93.9482 58.9109 94.2565 59.087 94.4988 59.3293C94.675 59.5936 94.7631 59.9239 94.7631 60.2322C95.1374 64.1082 95.1154 68.0283 94.719 71.9043C94.4327 74.6571 93.9702 77.3879 93.8821 80.1408C93.772 83.9727 94.3887 87.7826 94.1905 91.6146C94.0363 94.4996 93.3977 97.3625 92.759 100.181L90.1163 112.03C90.0722 112.404 89.9181 112.734 89.6979 113.021C89.4776 113.219 89.2134 113.373 88.9271 113.461C81.1972 116.192 72.6524 115.531 65.451 111.633C64.5041 111.105 63.5351 110.51 62.9184 109.607C62.0375 108.33 61.9494 106.656 62.2357 105.137C62.522 103.617 63.1387 102.186 63.5571 100.688C64.1957 98.3756 64.3499 95.9531 64.5041 93.5746C64.7023 90.4254 64.9005 87.2541 64.5481 84.1048C64.3279 81.9466 63.8434 79.8104 63.469 77.6522C62.9405 74.4149 62.6321 71.1555 62.5441 67.8741C62.5 65.9141 62.5881 63.7338 63.9315 62.3244C64.5921 61.6417 65.4731 61.2232 66.376 60.8929C67.8735 60.3423 69.5692 60.012 71.0888 60.5185C72.6084 61.025 73.8416 62.6107 73.4672 64.1743C73.2911 64.901 72.8286 65.5397 72.7185 66.2664C72.5643 67.2354 73.0929 68.2265 73.8196 68.8871C77.7837 72.4989 83.8399 66.4646 85.8219 63.0511Z" fill="#E3E8F4"/>
<path d="M86.1301 54.286C87.3414 53.8456 88.6407 53.7575 89.896 54.0658C90.6888 54.264 91.5477 54.5943 92.2744 54.242C92.5387 54.1098 92.7589 53.9116 93.0232 53.7795C93.7499 53.4491 94.6969 53.8456 95.3356 53.3831C95.732 53.0968 95.8641 52.5462 96.0183 52.0617C96.6789 49.7493 98.0443 47.7012 99.8942 46.1816C99.674 47.8774 99.4978 49.7934 100.621 51.0927C101.127 51.6873 101.832 52.0397 102.559 52.326C103.594 52.7444 104.739 53.0087 105.84 52.7885C106.941 52.5682 107.954 51.7314 108.131 50.6302C108.087 52.2819 106.523 53.4491 106.083 55.0568C105.906 55.6514 105.928 56.2901 105.818 56.9067C105.51 58.4703 104.409 59.7256 103.418 60.9809C100.313 65.0331 98.3086 69.8341 97.6479 74.8993C97.6039 75.4939 97.4718 76.0885 97.2735 76.6611C97.0533 77.1016 96.8111 77.52 96.5468 77.9164C94.9392 80.6472 95.4236 84.0828 95.9742 87.188C96.8331 92.055 97.692 96.834 99.0794 101.591C99.3216 102.406 99.5859 103.243 100.181 103.837C99.9823 105.753 98.0443 106.634 96.3045 107.471C94.5868 108.286 93.0012 109.365 91.5917 110.664C91.0852 111.127 90.6007 111.655 90.4025 112.316C90.2263 112.933 90.3585 113.615 90.1382 114.21C89.918 114.805 89.0371 115.245 88.6407 114.738C88.1562 112.933 88.9931 111.039 88.949 109.145C88.927 107.867 88.5086 106.656 88.4425 105.379C88.3764 103.947 88.8169 102.538 89.2573 101.172C90.5126 97.3845 92.0102 93.6186 92.4506 89.6545C92.8911 85.6904 92.0762 81.352 89.2573 78.5331C85.9099 75.1636 84.06 70.5828 80.4703 67.4776C79.8977 66.9931 79.2591 66.3765 79.3472 65.6277C79.4133 65.2974 79.5674 64.9891 79.7656 64.7248C80.9989 62.985 82.6285 61.5755 83.9499 59.9018C85.2713 58.2281 86.3724 56.4002 86.1301 54.286Z" fill="#3F3D56"/>
<path d="M74.3702 57.8318C74.15 58.052 73.9958 58.3603 73.7535 58.5365C73.4452 58.7127 73.1149 58.8228 72.7625 58.8448C71.4632 59.043 70.1639 59.1531 68.8425 59.1972C67.7414 59.1972 66.5962 59.1091 65.5391 59.3954C64.0636 59.8138 62.8744 60.981 62.1477 62.3244C61.4209 63.6678 61.0465 65.1873 60.7823 66.7069C60.1656 70.0323 59.8133 73.4238 59.7913 76.8153C61.5971 75.3618 63.2268 73.6881 64.6142 71.8162C65.6713 70.3847 66.6182 68.7991 68.1378 67.8301C68.8205 67.3896 69.6133 67.1033 70.318 66.6629C71.7715 65.7599 72.7845 64.3285 73.7535 62.919C74.4583 61.8839 76.5284 59.8578 76.7046 58.6246C76.7926 57.4574 75.141 56.8628 74.3702 57.8318Z" fill="#3F3D56"/>
<path d="M82.056 37.1083C82.3203 37.2625 82.5845 37.4607 82.8268 37.6589C84.3243 38.694 86.3284 38.5178 88.1342 38.2755C88.6848 38.2095 89.2574 38.1214 89.7419 37.8351C90.5127 37.3726 90.865 36.4036 90.799 35.5007C90.7329 34.5977 90.2704 33.7829 89.7199 33.0782C88.2443 31.2062 86.0641 30.017 83.7077 29.7968C83.0911 29.7087 82.4744 29.7748 81.9018 29.995C81.1971 30.2813 80.6465 30.8979 80.0079 31.2943C78.0699 32.4836 75.0969 31.955 73.8416 33.849C72.9166 35.2584 73.5773 37.1524 73.1369 38.76C72.8065 39.9713 71.8816 41.0504 72.0577 42.2837C72.1679 42.9444 72.5643 43.5169 72.8946 44.1116C73.6434 45.477 73.9957 47.0186 73.9076 48.5602C74.7445 49.1548 75.9337 48.2298 76.176 47.2168C76.4182 46.2037 76.1319 45.1246 76.3522 44.1116C76.7045 42.3277 78.2901 41.0064 78.9949 39.3767C79.4794 38.1874 80.3162 36.2054 82.056 37.1083Z" fill="#3F3D56"/>
<path d="M61.2227 56.6645C61.1566 57.0609 61.1126 57.5014 61.3328 57.8538C61.7732 58.5144 62.7863 58.2722 63.5791 58.3823C64.8124 58.5365 65.7373 59.7037 65.9575 60.9369C66.1998 62.1702 65.9135 63.4255 65.6052 64.6147C64.9004 67.3456 64.0636 70.0544 63.0726 72.6971C60.4519 72.3888 57.6771 71.3757 56.2896 69.1294C55.0123 67.0813 55.1445 64.4826 54.3517 62.2143C53.7791 60.6286 52.766 59.2412 51.775 57.8758C53.3827 58.074 54.5499 56.2241 54.638 54.6164C54.726 53.0088 54.2195 51.335 54.5719 49.7494C54.66 49.375 61.0245 50.5642 61.6411 50.9827C63.4029 52.2159 61.509 54.9247 61.2227 56.6645Z" fill="#FBBEBE"/>
<path opacity="0.1" d="M61.2227 56.6645C61.1566 57.0609 61.1126 57.5014 61.3328 57.8538C61.7732 58.5144 62.7863 58.2722 63.5791 58.3823C64.8124 58.5365 65.7373 59.7037 65.9575 60.9369C66.1998 62.1702 65.9135 63.4255 65.6052 64.6147C64.9004 67.3456 64.0636 70.0544 63.0726 72.6971C60.4519 72.3888 57.6771 71.3757 56.2896 69.1294C55.0123 67.0813 55.1445 64.4826 54.3517 62.2143C53.7791 60.6286 52.766 59.2412 51.775 57.8758C53.3827 58.074 54.5499 56.2241 54.638 54.6164C54.726 53.0088 54.2195 51.335 54.5719 49.7494C54.66 49.375 61.0245 50.5642 61.6411 50.9827C63.4029 52.2159 61.509 54.9247 61.2227 56.6645Z" fill="black"/>
<path d="M59.8133 53.9997C64.5567 53.9997 68.4021 50.1544 68.4021 45.4109C68.4021 40.6674 64.5567 36.822 59.8133 36.822C55.0698 36.822 51.2245 40.6674 51.2245 45.4109C51.2245 50.1544 55.0698 53.9997 59.8133 53.9997Z" fill="#FBBEBE"/>
<path d="M57.1706 55.4311C57.4789 54.9466 56.9504 54.2639 57.1926 53.7354C57.3468 53.4271 57.6991 53.2729 57.9854 53.0747C58.3378 52.7884 58.6241 52.414 58.8223 51.9956C60.1656 49.4189 60.562 46.4679 59.9674 43.627C59.7692 42.68 59.5931 41.4027 60.4519 40.9842C60.6942 40.8741 60.9585 40.8301 61.2227 40.8521C62.7863 40.8961 64.3059 41.9532 65.8254 41.5789C66.8825 41.2926 67.6533 40.3676 67.7634 39.2665C67.8735 37.835 66.7944 36.6237 65.7594 35.6547C63.8654 33.9149 61.0025 33.5406 58.4259 33.4965L53.669 33.4084C52.1494 33.3864 50.4317 33.4304 49.3746 34.5316C47.855 36.1172 48.6258 38.6719 48.4056 40.8741C48.2074 42.6139 47.3485 44.2216 45.9831 45.3007C44.9921 46.0935 43.6267 46.8423 43.6487 48.0976C43.6487 48.538 43.8469 48.9344 43.957 49.3529C44.4415 51.0046 43.9791 52.8325 43.0541 54.2639C42.1292 55.6954 40.7638 56.8186 39.3323 57.7876C38.5835 58.3161 37.7907 58.8006 37.1961 59.5053C36.5354 60.3202 36.139 61.3112 36.073 62.3463C35.9849 63.1391 36.139 63.9539 36.5354 64.6366C37.4604 66.1342 39.7067 66.3544 41.2263 65.4735C42.7458 64.5926 43.6928 62.9849 44.3094 61.3332C44.6838 60.3642 45.0582 59.2411 46.0051 58.8006C47.1944 58.25 48.6038 59.131 49.3746 60.188C50.1454 61.2451 50.6299 62.5665 51.6209 63.4254C53.1845 64.7908 55.8492 64.5706 57.1706 62.9629C58.1175 61.8177 58.3158 60.2321 58.2717 58.7345C58.2497 57.5894 57.8533 56.4222 57.1706 55.4311Z" fill="#3F3D56"/>
<path d="M60.2537 66.6187C59.2627 66.8389 58.2497 66.3764 57.5229 65.6717C56.7962 64.967 56.3117 64.0861 55.7832 63.2272C54.4838 61.0469 53.0083 58.9988 51.3566 57.0828C49.9031 55.4091 47.8991 53.7134 45.7629 54.2419C45.0361 54.4401 44.3755 54.8145 43.8029 55.299C39.9489 58.3381 37.9449 63.1391 38.4734 68.0281C38.6496 69.4376 39.024 70.803 39.1781 72.2124C39.2883 73.3797 39.3103 74.5469 39.2662 75.7141C39.2002 79.2597 39.0901 83.0256 37.1741 86.0207C34.2011 90.6455 32.6154 96.1732 30.4352 101.216C29.268 103.947 28.5633 106.854 27.8586 109.739C27.4401 111.457 27.0437 113.175 26.6253 114.87L23.9606 126.08C23.6963 127.225 23.41 128.458 23.6963 129.604C24.1367 131.321 25.7664 132.533 27.4622 133.017C29.1579 133.502 30.9858 133.414 32.7696 133.436C36.1611 133.48 39.5966 133.898 42.7898 135.065C43.6928 135.396 44.6177 135.814 45.5867 135.88C46.5557 135.946 47.5247 135.704 48.4276 135.352C50.9162 134.383 53.0303 132.709 55.3207 131.343C56.7521 130.485 58.2497 129.758 59.8133 129.163C60.6061 128.877 61.4429 128.591 61.9715 127.952C62.3899 127.467 62.5661 126.851 62.6982 126.234C63.447 122.755 62.9405 119.165 62.6982 115.619C62.456 112.074 60.3418 108.33 62.0816 105.247C62.434 104.63 62.8524 104.035 63.0286 103.331C63.2708 102.428 63.0726 101.459 63.2708 100.534C63.425 99.851 63.7773 99.2564 64.0196 98.6177C64.438 97.4725 64.5041 96.2392 64.5041 95.028C64.5041 92.3632 64.2178 89.6985 63.6672 87.0998C62.9625 83.7964 65.2749 80.537 66.5742 77.4098C67.0367 76.2867 67.7194 75.2296 67.9176 74.0403C68.0938 72.9612 67.8735 71.8601 67.6974 70.781C67.4551 69.1072 67.345 67.4115 67.389 65.7157C67.4331 64.1962 67.5872 62.6546 67.2349 61.1791C66.8825 59.7035 65.8254 58.2721 64.3499 57.9637C64.0196 57.8536 63.6452 57.9197 63.3589 58.1179C63.1827 58.2941 63.0726 58.4923 63.0065 58.7345C62.5221 60.2101 62.6101 61.8177 62.3459 63.3593C62.0816 64.9009 61.7733 66.2883 60.2537 66.6187Z" fill="#FA6400"/>
<path d="M39.4645 76.0664C39.5526 75.4497 39.2663 74.6349 38.6496 74.6569C38.0771 74.679 37.8348 75.3837 37.8348 75.9563C37.8348 76.5289 37.9229 77.1895 37.5045 77.5859C37.1521 77.9383 36.5575 77.9383 36.1391 78.2246C35.8528 78.4448 35.6766 78.7752 35.6766 79.1496C35.6766 79.4579 35.8087 79.7442 35.8308 80.0525C35.8528 80.3608 35.6326 80.7132 35.3242 80.6911C34.9939 81.2197 35.082 81.9244 35.5225 82.3649C35.6766 82.519 35.8968 82.6512 35.9409 82.8714C35.9629 83.0255 35.9409 83.1797 35.8968 83.3118C35.8087 83.9285 36.2272 84.5892 36.8218 84.6552C36.4694 84.8975 36.5575 85.4701 36.8658 85.7564C37.1741 86.0427 37.6366 86.0867 38.055 86.0867C39.002 86.0867 39.949 85.8885 40.8299 85.5141C41.1382 85.404 41.4025 85.2278 41.6007 84.9856C41.7989 84.7213 41.7548 84.3689 41.5346 84.1267C41.953 84.1928 42.4816 84.2368 42.7458 83.9065C43.1422 83.444 42.7238 82.7613 42.3054 82.3208C42.7899 82.2548 43.1202 81.7923 43.0541 81.3298C43.0101 81.1096 42.9 80.9114 42.7238 80.7572C42.5917 80.6471 42.3935 80.559 42.3715 80.3828C42.3494 80.2066 42.5036 80.0965 42.5697 79.9424C42.7018 79.59 42.3935 79.2376 42.0852 79.0394C41.3584 78.5549 40.2573 78.5549 39.6186 78.0704C38.98 77.5859 39.3764 76.7271 39.4645 76.0664Z" fill="#BE6F72"/>
<path d="M84.8969 42.6579C84.3683 42.702 83.8178 42.724 83.2892 42.702C83.091 42.6799 82.9369 42.8121 82.8928 43.0103L81.8798 50.6962C81.7917 51.2468 81.5715 51.7753 81.2191 52.2158C80.6245 52.9205 80.3602 53.8455 80.4704 54.7484V67.7858C80.4704 67.7858 80.4043 69.5256 81.7477 69.5256C83.3553 69.7238 84.963 69.7238 86.5706 69.5256C86.5706 69.5256 87.6497 69.3274 87.6497 67.7198V54.8805C87.8259 53.9776 87.5836 53.0306 86.989 52.3259C86.6367 51.8854 86.4164 51.3569 86.3504 50.8063L85.2933 42.9662C85.2492 42.768 85.0731 42.6359 84.8969 42.6579Z" fill="#3F3D56"/>
<path opacity="0.1" d="M84.8969 42.6579C84.3683 42.702 83.8178 42.724 83.2892 42.702C83.091 42.6799 82.9369 42.8121 82.8928 43.0103L81.8798 50.6962C81.7917 51.2468 81.5715 51.7753 81.2191 52.2158C80.6245 52.9205 80.3602 53.8455 80.4704 54.7484V67.7858C80.4704 67.7858 80.4043 69.5256 81.7477 69.5256C83.3553 69.7238 84.963 69.7238 86.5706 69.5256C86.5706 69.5256 87.6497 69.3274 87.6497 67.7198V54.8805C87.8259 53.9776 87.5836 53.0306 86.989 52.3259C86.6367 51.8854 86.4164 51.3569 86.3504 50.8063L85.2933 42.9662C85.2492 42.768 85.0731 42.6359 84.8969 42.6579Z" fill="black"/>
<path d="M83.2894 54.9688H84.9191C86.2624 54.9688 87.3415 56.0479 87.3415 57.4133V63.5136C87.3415 64.8569 86.2624 65.9361 84.9191 65.9361H83.2894C81.946 65.9361 80.8669 64.8569 80.8669 63.5136V57.4133C80.8449 56.0699 81.946 54.9688 83.2894 54.9688Z" fill="#6C63FF"/>
<path d="M106.721 9.46988C106.259 9.73415 105.752 9.95438 105.246 10.1306C105.07 10.1746 104.96 10.3728 105.004 10.549L107.008 18.0367C107.162 18.5873 107.14 19.1599 106.986 19.6884C106.721 20.5693 106.809 21.5163 107.272 22.3091L112.315 34.3556C112.315 34.3556 112.932 35.9852 114.165 35.4787C115.729 35.0383 117.204 34.4216 118.614 33.6068C118.614 33.6068 119.516 33.0122 118.9 31.5367L113.945 19.6884C113.747 18.7855 113.174 18.0147 112.359 17.5742C111.875 17.31 111.478 16.9136 111.192 16.4291L107.184 9.60201C107.096 9.44785 106.876 9.38179 106.721 9.46988Z" fill="#3F3D56"/>
<path d="M109.981 21.4502L111.478 20.8335C112.711 20.305 114.143 20.8996 114.671 22.1329L117.028 27.7707C117.556 29.004 116.962 30.4354 115.728 30.964L114.231 31.5806C112.998 32.1092 111.566 31.5146 111.038 30.2813L108.681 24.6435C108.153 23.3882 108.725 21.9787 109.981 21.4502Z" fill="#6C63FF"/>
<path d="M44.904 55.6515C42.5256 56.6205 41.6006 59.6596 42.1512 62.1482C42.7017 64.6368 44.3975 66.7289 46.0271 68.711L50.5858 74.2827C51.8411 75.8243 53.2285 77.454 55.1445 77.9825C57.9634 78.7754 60.7822 76.9695 63.2047 75.3618C70.4722 70.5168 78.2241 66.4867 86.3725 63.2934C87.1653 62.9851 87.9801 62.6768 88.6408 62.1262C90.0062 60.981 90.3806 58.8888 89.6318 57.2812C88.883 55.6735 87.1212 54.6385 85.3374 54.6164C83.5536 54.5944 81.8358 55.5414 80.7787 56.9508C80.2722 57.6335 79.8978 58.4043 79.4133 59.087C78.1801 60.8048 76.2421 61.8839 74.3481 62.8529C69.7675 65.1873 65.0766 67.2355 60.2537 69.0193C59.3728 69.3496 58.3818 69.658 57.5449 69.2175C57.0384 68.9532 56.6861 68.4687 56.3777 67.9842C54.9683 65.782 53.8451 63.3815 53.0523 60.8929C52.4577 59.021 51.9732 56.9729 50.5197 55.6515C48.4716 53.7575 44.7719 54.22 43.2303 56.5324C43.2303 56.5324 41.4244 59.1751 42.5256 60.2763C43.6267 61.3774 44.904 55.6515 44.904 55.6515Z" fill="#FBBEBE"/>
<path d="M168.428 46.5341C168.759 47.393 168.759 48.318 168.715 49.2429C168.649 50.3661 168.384 51.6654 167.349 52.0838C166.667 52.3481 165.852 52.1499 165.235 52.5683C164.508 53.0528 164.553 54.132 164.663 54.9908C164.971 57.3693 165.323 59.8579 166.623 61.8619C167.327 62.941 168.274 63.844 169.221 64.7029C171.137 66.4206 173.229 68.1164 175.74 68.689C176.158 68.7991 176.577 68.8211 176.995 68.733C177.414 68.6009 177.788 68.3807 178.074 68.0723C179.528 66.729 180.277 64.835 181.246 63.1172C181.928 61.884 182.743 60.6947 183.14 59.3293C183.778 56.9068 183.007 54.3302 181.113 52.6564C180.673 52.2821 180.211 51.9737 179.792 51.5993C178.713 50.6083 178.074 49.1989 177.81 47.7454C177.546 46.2919 177.59 44.8164 177.722 43.3408C175.52 43.1646 173.34 43.4289 171.181 43.8694C170.234 44.0676 168.869 44.1557 168.01 44.5961C167.019 45.1467 168.164 45.8074 168.428 46.5341Z" fill="#FBBEBE"/>
<path opacity="0.1" d="M168.428 46.5341C168.759 47.393 168.759 48.318 168.715 49.2429C168.649 50.3661 168.384 51.6654 167.349 52.0838C166.667 52.3481 165.852 52.1499 165.235 52.5683C164.508 53.0528 164.553 54.132 164.663 54.9908C164.971 57.3693 165.323 59.8579 166.623 61.8619C167.327 62.941 168.274 63.844 169.221 64.7029C171.137 66.4206 173.229 68.1164 175.74 68.689C176.158 68.7991 176.577 68.8211 176.995 68.733C177.414 68.6009 177.788 68.3807 178.074 68.0723C179.528 66.729 180.277 64.835 181.246 63.1172C181.928 61.884 182.743 60.6947 183.14 59.3293C183.778 56.9068 183.007 54.3302 181.113 52.6564C180.673 52.2821 180.211 51.9737 179.792 51.5993C178.713 50.6083 178.074 49.1989 177.81 47.7454C177.546 46.2919 177.59 44.8164 177.722 43.3408C175.52 43.1646 173.34 43.4289 171.181 43.8694C170.234 44.0676 168.869 44.1557 168.01 44.5961C167.019 45.1467 168.164 45.8074 168.428 46.5341Z" fill="black"/>
<path d="M156.14 53.0088C152.572 51.7755 150.854 46.9966 147.111 46.446C146.516 46.3579 145.921 46.402 145.327 46.2478C143.169 45.7413 142.244 43.2527 141.627 41.1165C139.535 34.0252 136.782 27.1101 132.884 20.8116C131.232 18.1688 128.634 15.9886 127.444 13.1036C127.18 12.4429 127.026 11.6942 126.542 11.1656C126.057 10.6371 125 10.571 124.736 11.2317C124.67 11.4739 124.648 11.7162 124.692 11.9584L124.956 14.6892L120.463 14.3369C120.045 14.2708 119.626 14.2928 119.23 14.425C118.79 14.6452 118.459 14.9976 118.261 15.438C116.741 18.279 118.371 22.0228 121.036 23.8287C124.163 25.9429 128.612 26.2512 130.682 29.3784C131.915 31.2503 131.937 33.6508 132.752 35.743C133.148 36.734 133.699 37.659 134.161 38.628C135.02 40.4779 135.461 42.4819 136.121 44.3979C137.068 47.1508 138.5 49.7054 139.909 52.238C140.988 54.198 142.111 56.2021 143.785 57.6996C144.886 58.6907 146.186 59.4174 147.485 60.1221C150.678 61.8619 154.422 63.5357 157.792 62.1923C157.99 59.1972 157.241 55.8277 156.14 53.0088Z" fill="#FBBEBE"/>
<path d="M166.997 147.817C166.733 150.68 164.971 153.3 164.575 156.053C161.888 155.635 159.245 155.084 156.69 154.467C156.382 154.401 156.074 154.313 155.744 154.247C157.197 150.283 155.92 145.835 156.316 141.628C156.36 141.232 156.404 140.813 156.47 140.417C159.796 139.294 162.791 137.774 166.27 138.215C166.336 138.919 166.402 139.624 166.468 140.329C166.601 141.738 166.755 143.148 166.887 144.557C167.019 145.636 167.063 146.737 166.997 147.817Z" fill="#FBBEBE"/>
<path d="M189.945 155.018C188.645 155.414 187.302 155.767 185.914 156.053C185.672 156.097 185.452 156.141 185.21 156.185C183.778 156.449 182.325 156.648 180.871 156.78C180.717 153.719 178.669 150.9 178.361 147.75C178.295 146.98 178.317 146.187 178.383 145.394C178.405 145.086 178.449 144.777 178.471 144.469L179.087 138.127C179.572 138.061 180.079 138.038 180.585 138.061C183.448 138.127 186.047 139.36 188.888 140.329C189.108 141.672 189.174 143.016 189.108 144.381C188.998 147.817 188.447 151.296 189.724 154.467C189.79 154.644 189.879 154.82 189.945 155.018Z" fill="#FBBEBE"/>
<path d="M152.77 106.7C153.167 109.695 151.625 112.58 150.965 115.531C150.524 117.491 150.458 119.495 150.414 121.499L150.062 133.502C150.018 134.713 149.996 135.924 150.37 137.069C151.097 139.382 153.365 140.945 155.722 141.496C158.078 142.047 160.544 141.76 162.945 141.452C164.112 141.298 165.345 141.122 166.336 140.439C167.68 139.514 168.274 137.84 168.759 136.277L170.19 131.894C171.842 135.594 171.137 139.646 172.128 143.588C172.194 143.962 172.349 144.293 172.569 144.579C172.987 145.042 173.67 145.108 174.287 145.152C178.603 145.46 182.985 145.768 187.236 144.931C188.403 144.711 189.614 144.359 190.429 143.478C191.376 142.465 191.53 140.967 191.53 139.58C191.464 134.823 189.746 130.22 189.372 125.485C189.196 123.459 189.284 121.411 189.218 119.363C189.152 117.822 189.02 116.302 188.777 114.782C188.711 114.078 188.513 113.417 188.205 112.778C187.544 111.545 186.179 110.884 184.879 110.356C174.771 106.26 163.672 106.304 152.77 106.7Z" fill="#FA6400"/>
<path d="M171.467 47.6131C176.697 47.6131 180.937 43.3734 180.937 38.1434C180.937 32.9133 176.697 28.6736 171.467 28.6736C166.238 28.6736 161.998 32.9133 161.998 38.1434C161.998 43.3734 166.238 47.6131 171.467 47.6131Z" fill="#FBBEBE"/>
<path d="M179.726 54.8146C179.021 56.3561 177.92 57.8977 176.268 58.2942C174.749 58.6465 173.141 57.9198 172.04 56.8406C170.939 55.7615 170.19 54.3521 169.419 52.9867C168.847 51.9957 168.23 51.0046 167.283 50.388C165.984 49.5511 164.288 49.5731 162.769 49.8154C161.249 50.0576 159.707 50.4981 158.144 50.41C156.206 50.2779 154.224 49.3089 152.374 49.9475C152.969 52.6123 152.748 55.5413 152.682 58.2501C152.704 58.6685 152.638 59.087 152.506 59.4834C152.352 59.8578 152.132 60.2101 151.867 60.5184L150.106 62.7868C152 64.1962 153.629 66.0462 154.29 68.3145C154.664 69.6138 154.554 70.9792 154.532 72.3226C154.488 76.2647 155.347 80.2068 155.083 84.1268C154.774 88.7295 152.924 93.0901 151.978 97.6047C151.163 101.481 151.009 105.467 151.515 109.409C161.381 112.822 171.556 114.584 181.994 115.135C183.844 115.245 185.826 115.245 187.346 114.188C188.601 113.307 189.306 111.809 189.548 110.268C189.79 108.726 189.614 107.207 189.46 105.665C188.997 101.525 188.557 97.4065 188.094 93.2662C187.83 90.9098 187.588 88.5534 187.742 86.1969C187.874 84.4351 188.227 82.6953 188.579 80.9776L190.781 70.3846C191.09 68.8871 191.42 67.3675 192.037 65.9581C192.543 64.8129 193.248 63.7558 193.82 62.6326C194.503 61.2892 194.966 59.8578 195.186 58.3822C195.274 57.9638 195.274 57.5013 195.164 57.0829C194.921 56.3562 194.217 55.9377 193.534 55.5633C189.438 53.4051 185.055 51.8635 180.497 50.9826C180.21 52.3921 180.276 53.6033 179.726 54.8146Z" fill="#E3E8F4"/>
<path d="M178.801 48.472C179.902 46.3578 181.95 44.8823 183.162 42.8121C184.505 40.4337 184.593 37.5707 183.426 35.1042C183.007 34.2453 182.435 33.4525 182.104 32.5496C181.73 31.5365 181.708 30.3913 181.268 29.4003C180.673 28.0349 179.418 27.0439 178.052 26.4713C176.687 25.8987 175.189 25.7005 173.714 25.5023L168.715 24.8196C167.988 24.7315 167.239 24.6214 166.535 24.8196C165.83 25.0178 165.169 25.5904 165.125 26.3171C165.059 27.176 165.808 27.9908 165.632 28.8277C165.566 29.136 165.389 29.4223 165.499 29.7306C165.588 29.9288 165.742 30.083 165.94 30.1711C167.129 30.8318 168.539 30.8978 169.838 31.3163C171.137 31.7347 172.415 32.8358 172.282 34.1792C172.216 34.906 171.754 35.6548 172.062 36.3154C172.37 36.91 173.163 37.0202 173.802 37.2184C175.85 37.813 177.304 40.0593 176.995 42.1735C176.907 42.8342 176.665 43.4728 176.621 44.1335C176.467 46.4459 176.819 47.1066 178.713 48.472H178.801Z" fill="#3F3D56"/>
<path d="M191.662 58.5144C191.662 58.9548 191.596 59.3953 191.42 59.7917C190.737 61.2452 188.623 61.1571 187.236 61.9939C185.496 63.029 185.122 65.3414 184.967 67.3455C184.791 69.6358 184.659 71.9482 185.122 74.1725C185.584 76.3968 186.707 78.5771 188.579 79.8984C190.87 81.4841 193.975 81.5501 196.573 80.5811C199.172 79.6121 201.352 77.7402 203.246 75.6921C205.03 73.7541 206.638 71.5959 207.607 69.1293C207.783 68.6889 207.937 68.2264 207.783 67.7859C207.585 67.1252 206.858 66.8169 206.263 66.4646C204.898 65.6277 203.995 64.1962 203.51 62.6767C203.026 61.1571 202.96 59.5274 202.938 57.9418C202.916 56.2901 202.916 54.4622 201.859 53.1849C200.802 51.9075 198.974 51.5552 197.3 51.5552C195.935 51.5552 192.147 51.6873 191.222 52.8765C190.495 53.8896 191.728 57.1049 191.662 58.5144Z" fill="#BE6F72"/>
<path opacity="0.1" d="M191.662 58.5144C191.662 58.9548 191.596 59.3953 191.42 59.7917C190.737 61.2452 188.623 61.1571 187.236 61.9939C185.496 63.029 185.122 65.3414 184.967 67.3455C184.791 69.6358 184.659 71.9482 185.122 74.1725C185.584 76.3968 186.707 78.5771 188.579 79.8984C190.87 81.4841 193.975 81.5501 196.573 80.5811C199.172 79.6121 201.352 77.7402 203.246 75.6921C205.03 73.7541 206.638 71.5959 207.607 69.1293C207.783 68.6889 207.937 68.2264 207.783 67.7859C207.585 67.1252 206.858 66.8169 206.263 66.4646C204.898 65.6277 203.995 64.1962 203.51 62.6767C203.026 61.1571 202.96 59.5274 202.938 57.9418C202.916 56.2901 202.916 54.4622 201.859 53.1849C200.802 51.9075 198.974 51.5552 197.3 51.5552C195.935 51.5552 192.147 51.6873 191.222 52.8765C190.495 53.8896 191.728 57.1049 191.662 58.5144Z" fill="black"/>
<path d="M179.924 117.579C179.99 117.91 180.145 118.218 180.387 118.482C180.607 118.658 180.849 118.769 181.136 118.835C188.359 120.949 196.089 120.112 203.577 119.253C202.541 116.126 201.528 112.977 201.242 109.717C201 107.031 201.264 104.212 200.317 101.679C200.031 100.93 183.602 104.366 181.994 104.652C181.158 104.806 180.211 104.74 179.616 105.401C178.911 106.194 178.845 108.088 178.779 109.101C178.537 111.942 179.132 114.827 179.924 117.579Z" fill="#BE6F72"/>
<path d="M196.375 152.529C195.054 153.146 193.688 153.719 192.279 154.225C191.508 154.511 190.737 154.754 189.944 154.996C188.645 155.392 187.302 155.745 185.914 156.031C185.122 154.005 184.329 151.979 183.514 149.975C182.919 148.477 182.347 147.002 181.84 145.46C181.488 144.425 181.224 143.368 181.003 142.289C180.277 138.655 180.475 134.889 181.554 131.322C184.615 131.894 187.588 132.269 190.605 132.709C192.213 132.929 193.82 133.193 195.45 133.502C195.582 134.559 195.692 135.616 195.802 136.695C195.957 138.325 196.089 139.976 196.199 141.606C196.397 145.24 196.463 148.896 196.375 152.529Z" fill="#BE6F72"/>
<path opacity="0.1" d="M196.375 152.529C195.054 153.146 193.688 153.719 192.279 154.225C191.508 154.511 190.737 154.754 189.944 154.996C188.645 155.392 187.302 155.745 185.914 156.031C185.122 154.005 184.329 151.979 183.514 149.975C182.919 148.477 182.347 147.002 181.84 145.46C181.488 144.425 181.224 143.368 181.003 142.289C180.277 138.655 180.475 134.889 181.554 131.322C184.615 131.894 187.588 132.269 190.605 132.709C192.213 132.929 193.82 133.193 195.45 133.502C195.582 134.559 195.692 135.616 195.802 136.695C195.957 138.325 196.089 139.976 196.199 141.606C196.397 145.24 196.463 148.896 196.375 152.529Z" fill="black"/>
<path d="M213.31 142.993C213.332 144.271 212.958 145.548 212.628 146.803C212.606 146.891 212.584 146.98 212.562 147.068C211.769 146.825 211.086 146.297 210.624 145.614C210.381 145.24 210.205 144.821 210.095 144.403C209.104 145.086 208.091 145.746 207.078 146.429C203.753 148.609 200.251 150.767 196.375 152.573C195.054 153.19 193.688 153.763 192.279 154.269C191.993 153.234 191.706 152.199 191.442 151.164C191.156 150.085 190.936 149.006 190.759 147.905C190.429 145.416 190.693 142.883 191.486 140.483L191.596 140.197C191.971 139.139 192.455 138.126 193.028 137.157C193.578 136.277 194.657 136.431 195.781 136.717C196.287 136.849 196.794 137.003 197.256 137.091C200.141 137.686 203.114 137.069 206.065 137.246C207.475 137.312 208.84 137.664 210.095 138.281C211.505 138.985 212.65 140.086 213.09 141.584C213.156 141.804 213.2 142.024 213.244 142.245C213.288 142.465 213.31 142.729 213.31 142.993Z" fill="#BE6F72"/>
<path d="M160.346 41.5789C155.788 37.1744 150.634 33.4525 145.349 29.9509C143.984 29.092 142.64 28.1451 141.385 27.132C140.064 26.0309 138.918 24.7315 137.509 23.7405C136.1 22.7495 134.382 22.0668 132.686 22.3971C130.99 22.7275 129.515 24.3351 129.757 26.0309C129.977 27.5064 131.321 28.5415 132.554 29.3783C134.888 30.986 137.223 32.6157 139.777 33.871C140.658 34.2674 141.517 34.7299 142.332 35.2364C143.918 36.2935 145.063 37.8791 146.252 39.3546C150.767 44.9704 156.294 49.6613 162.549 53.2289C162.615 53.273 165.235 47.6572 165.125 46.9304C164.861 45.2347 161.536 42.7241 160.346 41.5789Z" fill="#BE6F72"/>
<path d="M199.238 112.734C195.737 112.955 192.367 114.144 188.932 114.893C185.496 115.641 181.774 115.95 178.581 114.452L180.519 127.688C180.629 128.415 180.739 129.185 180.585 129.89C180.431 130.573 180.057 131.233 180.079 131.938C180.123 133.061 181.18 133.854 182.171 134.361C185.034 135.88 188.271 136.629 191.508 136.519C191.266 137.488 190.958 138.457 190.737 139.426C192.345 141.166 195.01 141.276 197.322 141.826C199.084 142.245 200.736 142.972 202.453 143.478C204.546 144.095 206.704 144.403 208.884 144.381C210.36 144.359 211.901 144.161 213.046 143.236C214.456 142.113 214.874 140.197 215.182 138.413C215.359 137.422 215.513 136.409 215.403 135.418C215.293 134.273 214.852 133.171 214.412 132.114L211.395 124.781C210.844 123.459 210.293 122.116 209.633 120.839C207.453 116.72 203.885 112.448 199.238 112.734Z" fill="#480E99"/>
<path d="M201.925 67.0152C202.453 65.6057 203.885 64.7469 205.382 64.901C206.263 65.0332 207.056 65.5177 207.805 65.9801L212.011 68.6008C212.716 69.0193 213.377 69.4817 214.015 69.9883C216.922 72.3887 218.023 76.3528 218.354 80.0967C218.684 83.8406 218.354 87.6725 219.102 91.3723C217.319 92.8479 215.359 94.0811 213.575 95.5566C212.65 96.3274 211.703 97.0982 210.998 98.0893C210.448 98.8601 210.051 99.763 209.457 100.512C208.51 101.701 207.122 102.472 205.603 102.648C206.572 103.199 207.1 104.3 207.364 105.379C207.629 106.458 207.695 107.581 207.981 108.66C208.377 110.136 209.192 111.479 209.479 112.977C209.677 114.012 209.589 115.069 209.655 116.126C210.007 121.543 214.257 126.3 213.971 131.718C211.967 130.991 210.051 129.978 208.311 128.745C207.519 128.194 206.77 127.578 206.021 126.961L200.405 122.402C197.674 120.2 194.922 117.954 192.741 115.179C191.376 113.439 190.275 111.523 188.91 109.783C187.544 108.044 185.87 106.48 183.778 105.753C183.47 106.216 182.919 106.524 182.633 106.986C182.589 107.052 182.545 107.141 182.501 107.229C182.457 107.427 182.479 107.647 182.567 107.845C182.809 108.726 182.963 109.651 183.007 110.576L183.14 112.228C183.184 112.668 183.184 113.109 183.14 113.549C182.919 114.959 181.62 116.06 180.211 116.28C180.012 116.324 179.792 116.324 179.594 116.258C179.198 116.126 178.977 115.707 178.867 115.311C178.317 113.439 179.154 111.457 179.242 109.497C179.242 108.991 179.242 108.506 179.198 107.999L179.065 106.039C177.788 105.775 177.039 104.388 176.709 103.132C175.784 99.7189 174.881 96.1953 175.41 92.7157C175.542 91.7908 175.806 90.8438 175.63 89.8968C175.41 88.6415 174.507 87.6285 174.044 86.4613C172.503 82.6293 175.784 78.467 175.476 74.3488C175.344 72.609 174.242 71.1114 173.582 69.5038C173.229 68.5788 172.789 67.6759 172.26 66.839C171.578 65.87 170.675 65.0992 169.794 64.3284C167.063 61.928 164.486 59.3953 162.042 56.6865C160.787 56.5544 159.62 56.0259 158.695 55.167C158.122 54.6164 157.637 53.8897 157.615 53.0968C157.593 52.304 158.188 51.4672 158.981 51.4231C159.443 51.4011 159.884 51.6213 160.346 51.7314C161.778 52.0398 163.209 50.9827 163.848 49.6833C164.486 48.384 164.486 46.8424 164.464 45.3889C165.874 45.1466 167.327 45.6532 168.274 46.7323C169.265 47.8114 169.904 49.1328 170.675 50.366C170.983 50.9166 171.402 51.4011 171.864 51.8195C172.921 52.6564 174.441 52.8106 175.366 53.8016C175.828 54.3081 176.092 54.9688 176.533 55.4973C177.744 57.0169 179.946 57.1931 181.598 58.1841C183.25 59.1751 184.395 61.003 186.223 61.5976C186.883 61.8178 187.61 61.8399 188.249 62.0821C189.768 62.6327 190.671 64.2403 190.892 65.848C191.112 67.4557 190.737 69.0633 190.385 70.6269L189.548 74.3047C189.372 75.1196 189.218 76.0886 189.812 76.6832C190.099 76.9254 190.429 77.0796 190.781 77.1677C192.323 77.6742 194.041 78.1587 195.494 77.454C196.177 77.1236 196.705 76.551 197.212 75.9564C199.392 73.4458 200.824 70.1204 201.925 67.0152Z" fill="#480E99"/>
<path d="M219.301 141.892C218.992 143.919 217.891 145.901 216.063 146.803C214.984 147.332 213.707 147.42 212.562 147.046C211.769 146.803 211.086 146.275 210.624 145.592C210.381 145.218 210.205 144.799 210.095 144.381C210.095 144.359 210.095 144.337 210.073 144.315C209.897 143.544 209.831 142.729 209.875 141.936C209.875 140.703 209.941 139.47 210.095 138.237C210.227 137.202 210.426 136.189 210.712 135.175C211.13 133.744 211.703 132.379 212.253 130.991C212.54 130.264 212.804 129.538 213.024 128.789C213.156 128.348 213.266 127.886 213.355 127.446L213.399 127.269C213.421 127.181 213.443 127.093 213.443 126.983C213.663 125.728 213.729 124.428 214.301 123.283C215.623 120.619 218.199 121.301 218.596 123.768C218.618 123.966 218.64 124.142 218.64 124.34C218.706 127.446 217.473 130.485 218.023 133.612C218.177 134.383 218.376 135.131 218.618 135.858C218.816 136.541 218.992 137.224 219.124 137.928C219.411 139.25 219.477 140.593 219.301 141.892Z" fill="#BE6F72"/>
<path d="M220.512 107.339C220.578 108.616 220.512 109.893 220.776 111.149C221.371 114.1 223.639 116.72 223.397 119.716C223.331 120.442 223.066 121.235 222.428 121.587C221.789 121.94 220.732 121.918 220.512 122.645C220.446 122.843 220.49 123.063 220.424 123.261C220.292 123.68 219.763 123.878 219.323 123.856C218.882 123.834 218.442 123.702 217.979 123.746C216.394 123.878 215.799 126.014 214.368 126.741C213.421 127.225 212.165 126.961 211.373 126.234C210.58 125.508 210.227 124.362 210.293 123.283C210.337 122.468 210.602 121.698 210.734 120.883C210.976 119.451 210.844 117.998 210.734 116.544C210.536 114.43 210.337 112.294 209.655 110.268C209.324 109.321 208.884 108.418 208.598 107.449C208.201 106.083 208.091 104.652 208.047 103.243C207.959 100.269 208.157 97.0762 209.941 94.6757C211.284 92.8698 213.2 91.4163 214.698 89.7646C215.645 88.7296 215.909 88.3992 216.966 89.2801C217.825 90.0069 218.728 90.9979 218.816 91.9889C219.08 94.4995 218.816 96.9881 219.279 99.5427C219.741 102.097 220.402 104.718 220.512 107.339Z" fill="#480E99"/>
<path d="M197.674 58.8448C203.877 58.8448 208.906 53.8162 208.906 47.6132C208.906 41.4101 203.877 36.3816 197.674 36.3816C191.471 36.3816 186.443 41.4101 186.443 47.6132C186.443 53.8162 191.471 58.8448 197.674 58.8448Z" fill="#BE6F72"/>
<path d="M207.959 69.1073C208.201 68.7549 208.51 68.3805 208.906 68.3144C209.214 68.2924 209.545 68.3585 209.809 68.5126L212.76 69.7459C213.553 68.4246 214.037 66.927 214.125 65.3854C214.191 64.4384 214.103 63.4915 214.302 62.5445C214.566 61.1571 215.381 59.9238 215.579 58.5363C215.733 57.4132 215.469 56.29 215.293 55.1669C214.786 51.7093 215.337 48.1636 215.05 44.6841C214.764 41.2045 213.355 37.4606 210.249 35.8529C209.368 35.4125 208.422 35.1482 207.497 34.7958C205.448 34.0251 203.621 32.7698 201.617 31.9329C199.613 31.096 197.234 30.6996 195.274 31.6686C193.314 32.6376 192.191 35.3464 193.446 37.1303C193.865 37.7029 194.481 38.1213 195.054 38.5397C196.243 39.3986 197.454 40.4337 197.741 41.8872C198.225 44.4858 195.538 46.5119 194.768 49.0446C194.481 50.0356 194.459 51.0706 194.701 52.0837C195.032 53.5812 195.825 55.0127 195.803 56.5323C195.781 58.206 194.768 59.7476 194.591 61.4213C194.525 62.038 194.569 62.6546 194.481 63.2712C194.349 64.0861 194.107 64.8569 193.777 65.6056C192.015 70.0102 190.231 74.4588 187.61 78.4229C190.407 78.4669 193.182 77.8283 195.67 76.5289C195.318 78.2247 194.635 79.8323 193.644 81.2638C195.891 80.9995 198.049 80.2508 199.965 79.0615C199.502 80.7353 198.82 82.3209 197.961 83.8184C198.027 83.6863 199.414 83.378 199.679 83.2238C200.207 82.9155 200.626 82.475 200.89 81.9245C201.639 80.5811 202.101 78.9734 202.806 77.586C204.303 74.679 206.021 71.816 207.959 69.1073Z" fill="#3F3D56"/>
<path d="M122.776 1.69575C122.247 1.7398 121.697 1.76182 121.168 1.7398C120.97 1.71777 120.816 1.84991 120.772 2.04812L119.737 9.73405C119.649 10.2846 119.428 10.8132 119.076 11.2536C118.481 11.9583 118.217 12.8833 118.327 13.7862V26.8237C118.327 26.8237 118.261 28.5635 119.604 28.5635C121.212 28.7617 122.82 28.7617 124.427 28.5635C124.427 28.5635 125.507 28.3653 125.507 26.7576V13.9184C125.683 13.0154 125.44 12.0685 124.846 11.3637C124.494 10.9233 124.273 10.3947 124.207 9.84416L123.15 2.00407C123.128 1.80587 122.952 1.67373 122.776 1.69575Z" fill="#3F3D56"/>
<path d="M121.168 14.0063H122.798C124.141 14.0063 125.22 15.0855 125.22 16.4509V22.5512C125.22 23.8946 124.141 24.9957 122.798 24.9957H121.168C119.825 24.9957 118.746 23.9166 118.746 22.5512V16.4509C118.724 15.1075 119.825 14.0063 121.168 14.0063Z" fill="#6C63FF"/>
<path d="M137.971 12.9274C137.443 12.9715 136.892 12.9935 136.364 12.9715C136.165 12.9495 136.011 13.0816 135.967 13.2798L134.932 20.9657C134.844 21.5163 134.624 22.0449 134.271 22.4853C133.677 23.19 133.413 24.115 133.523 25.0179V38.0554C133.523 38.0554 133.457 39.7952 134.8 39.7952C136.408 39.9934 138.015 39.9934 139.623 39.7952C139.623 39.7952 140.702 39.597 140.702 37.9893V25.1501C140.878 24.2471 140.636 23.3001 140.041 22.5954C139.689 22.155 139.469 21.6264 139.403 21.0759L138.346 13.2358C138.324 13.0376 138.147 12.9054 137.971 12.9274Z" fill="#3F3D56"/>
<path d="M136.364 25.238H137.993C139.337 25.238 140.416 26.3171 140.416 27.6826V33.7828C140.416 35.1262 139.337 36.2274 137.993 36.2274H136.364C135.02 36.2274 133.941 35.1483 133.941 33.7828V27.6826C133.919 26.3392 135.02 25.238 136.364 25.238Z" fill="#6C63FF"/>
<g opacity="0.2">
<path opacity="0.2" d="M120.904 144.513C120.904 144.755 120.86 144.998 120.816 145.218C119.274 144.976 117.732 144.755 116.191 144.557C116.191 144.491 116.191 144.425 116.191 144.359C116.213 143.698 116.389 143.06 116.741 142.487C117.204 141.76 117.887 141.32 118.635 141.342C119.384 141.364 120.045 141.848 120.463 142.597C120.772 143.214 120.926 143.852 120.904 144.513Z" fill="#3F3D56"/>
<path opacity="0.2" d="M121.013 140.763C121.067 139.061 120.056 137.648 118.755 137.607C117.454 137.566 116.356 138.912 116.302 140.614C116.248 142.316 117.259 143.729 118.56 143.77C119.861 143.811 120.959 142.465 121.013 140.763Z" fill="#3F3D56"/>
<path opacity="0.2" d="M121.138 136.981C121.191 135.279 120.181 133.866 118.88 133.824C117.579 133.783 116.481 135.13 116.427 136.832C116.373 138.534 117.384 139.947 118.685 139.988C119.986 140.029 121.084 138.682 121.138 136.981Z" fill="#3F3D56"/>
<path opacity="0.2" d="M121.26 133.218C121.314 131.516 120.303 130.103 119.002 130.062C117.701 130.021 116.603 131.367 116.549 133.069C116.496 134.771 117.506 136.184 118.807 136.225C120.108 136.266 121.206 134.92 121.26 133.218Z" fill="#3F3D56"/>
<path opacity="0.2" d="M121.384 129.458C121.438 127.756 120.427 126.343 119.126 126.302C117.826 126.261 116.728 127.607 116.674 129.309C116.62 131.011 117.631 132.424 118.932 132.465C120.232 132.506 121.331 131.16 121.384 129.458Z" fill="#3F3D56"/>
<path opacity="0.2" d="M110.994 103.287C110.685 102.868 110.399 102.428 110.157 101.965L116.389 101.15L109.694 100.996C108.483 98.1334 108.505 94.896 109.76 92.0551L118.591 97.0102L110.487 90.6677C113.769 85.3602 120.728 83.7305 126.035 87.0119C131.343 90.2933 132.972 97.2524 129.691 102.56C129.405 103.022 129.074 103.485 128.722 103.903C129.206 104.564 129.625 105.269 129.933 105.995L121.763 109.916L130.418 107.317C131.519 110.973 130.704 114.937 128.259 117.866C131.959 122.887 130.88 129.956 125.859 133.656C120.838 137.356 113.769 136.277 110.069 131.256C106.986 127.049 107.162 121.279 110.509 117.293C107.47 113.043 107.646 107.273 110.994 103.287Z" fill="#6C63FF"/>
<path opacity="0.1" d="M130.946 110.907C130.858 113.439 129.933 115.862 128.303 117.8C132.003 122.821 130.924 129.89 125.903 133.59C120.882 137.29 113.813 136.211 110.113 131.189C107.03 126.983 107.206 121.213 110.553 117.227C109.122 115.267 130.99 109.629 130.946 110.907Z" fill="black"/>
</g>
</g>
<defs>
<clipPath id="clip0">
<rect width="250" height="157" fill="white"/>
</clipPath>
</defs>
</svg>
