<svg width="182" height="181" viewBox="0 0 182 181" fill="none" xmlns="http://www.w3.org/2000/svg">
<g clip-path="url(#clip0)">
<path d="M182 0.5H0V91.6846H182V0.5Z" fill="#E6E6E6"/>
<path d="M173.631 7.92798H8.3689V84.2567H173.631V7.92798Z" fill="white"/>
<path d="M11.6075 14.1072L11.1586 14.5554L33.3474 36.7112L40.3055 29.7635L52.5543 41.962L67.5606 26.978L93.0842 52.4636L104.692 40.8735L130.055 66.231L144.324 52.0154L170.393 78.0453L170.841 77.6291L144.324 51.1189L130.055 65.3345L104.692 40.009L93.0842 51.5992L67.5606 26.1136L52.5543 41.0976L40.3055 28.8671L33.3474 35.8468L11.6075 14.1072Z" fill="#6C63FF"/>
<path d="M68.6187 30.7241C70.6729 30.7241 72.3382 29.0613 72.3382 27.0101C72.3382 24.959 70.6729 23.2961 68.6187 23.2961C66.5645 23.2961 64.8992 24.959 64.8992 27.0101C64.8992 29.0613 66.5645 30.7241 68.6187 30.7241Z" fill="#6C63FF"/>
<path d="M92.4749 55.1211C94.5291 55.1211 96.1944 53.4583 96.1944 51.4071C96.1944 49.3559 94.5291 47.6931 92.4749 47.6931C90.4207 47.6931 88.7554 49.3559 88.7554 51.4071C88.7554 53.4583 90.4207 55.1211 92.4749 55.1211Z" fill="#6C63FF"/>
<path d="M144.163 55.1211C146.218 55.1211 147.883 53.4583 147.883 51.4071C147.883 49.3559 146.218 47.6931 144.163 47.6931C142.109 47.6931 140.444 49.3559 140.444 51.4071C140.444 53.4583 142.109 55.1211 144.163 55.1211Z" fill="#6C63FF"/>
<path d="M168.148 37.864L170.008 38.7925C170.008 38.7925 180.044 63.9579 176.645 69.9771C173.246 75.9964 162.569 87.2664 162.569 87.2664L160.549 81.5673L168.757 63.7658L168.148 37.864Z" fill="#FA6400"/>
<path opacity="0.1" d="M168.148 37.864L170.008 38.7925C170.008 38.7925 180.044 63.9579 176.645 69.9771C173.246 75.9964 162.569 87.2664 162.569 87.2664L160.549 81.5673L168.757 63.7658L168.148 37.864Z" fill="#FA6400"/>
<path d="M166.128 163.659C166.128 163.659 168.757 169.678 167.379 170.127C166 170.575 164.3 170.575 162.601 170.575C160.901 170.575 158.881 169.967 158.593 169.326C158.304 168.686 159.843 164.684 159.843 164.684L166.128 163.659Z" fill="#575A89"/>
<path d="M130.728 166.733C130.728 166.733 132.428 172.144 131.658 172.432C130.889 172.72 128.42 174.129 127.009 173.68C125.598 173.232 123.45 172.144 123.001 171.663C122.552 171.183 123.001 168.718 123.001 168.718L125.149 165.644L130.728 166.733Z" fill="#575A89"/>
<path d="M161.19 86.4978L163.403 87.2662C163.403 87.2662 163.98 92.5171 163.338 94.374C162.729 96.231 161.318 109.646 162.088 112.432C162.857 115.217 162.408 119.7 162.408 119.7C162.408 119.7 167.058 134.812 166.128 138.077C165.198 141.343 165.358 145.954 166.288 148.259C167.218 150.564 167.988 151.493 167.539 153.349C167.09 155.206 166.16 156.135 167.09 157.672C168.02 159.209 169.88 159.689 168.95 161.066C168.02 162.442 167.09 163.531 167.411 164.459C167.731 165.388 159.234 167.085 158.432 165.708C158.432 165.708 160.901 163.563 158.432 162.314C155.963 161.066 156.733 156.455 156.733 156.455C156.733 156.455 152.404 138.718 152.565 137.309C152.725 135.9 145.767 114.321 145.767 114.321C145.767 114.321 135.57 145.185 134.961 146.562C134.352 147.939 135.731 151.332 134.961 152.261C134.191 153.189 135.282 155.495 134.191 156.423C133.101 157.352 136.051 160.745 134.191 161.994C132.332 163.243 131.402 167.085 131.562 167.853C131.722 168.622 123.834 167.693 123.834 166.605C123.834 165.516 123.995 164.587 123.225 162.73C122.456 160.874 121.975 159.657 122.616 159.017C123.257 158.376 123.706 157.64 123.065 155.463C122.424 153.285 123.995 146.658 123.514 145.441C123.033 144.225 123.193 135.868 123.193 135.868C123.193 135.868 124.732 123.67 124.283 121.685C123.834 119.7 124.283 119.219 124.444 118.451C124.604 117.682 125.534 109.358 126.143 108.109C126.752 106.861 127.522 85.7294 131.081 84.6408C134.64 83.5523 161.19 86.4978 161.19 86.4978Z" fill="#2F2E41"/>
<path d="M162.408 169.198C162.408 169.198 167.988 168.269 168.276 169.198C168.565 170.126 169.527 177.362 167.346 177.522C165.166 177.682 161.478 178.131 160.869 176.754C160.26 175.377 157.31 174.449 157.31 174.449C157.31 174.449 152.981 173.2 152.981 171.823C152.981 170.447 153.142 168.269 153.911 168.109C154.681 167.949 157.791 166.252 157.791 165.644C157.791 165.036 162.408 169.198 162.408 169.198Z" fill="#2F2E41"/>
<path d="M127.65 171.695C127.65 171.695 131.658 170.446 132.588 171.247C133.518 172.047 134.736 180.5 132.588 180.34C130.44 180.18 124.7 181.108 124.412 179.891C124.123 178.675 119.922 178.355 119.922 178.355C119.922 178.355 115.433 176.21 115.754 173.872C116.075 171.535 116.524 170.799 118.383 170.639C120.243 170.479 121.622 168.333 121.782 168.173C121.943 168.013 123.289 166.893 123.482 168.141C123.674 169.39 125.63 172.143 127.65 171.695Z" fill="#2F2E41"/>
<path d="M140.316 22.1114C145.522 22.1114 149.743 17.8971 149.743 12.6984C149.743 7.49975 145.522 3.2854 140.316 3.2854C135.109 3.2854 130.889 7.49975 130.889 12.6984C130.889 17.8971 135.109 22.1114 140.316 22.1114Z" fill="#A0616A"/>
<path d="M148.492 14.8757C148.492 14.8757 149.101 25.2172 151.442 26.1457C153.783 27.0742 139.706 27.0742 139.706 27.0742C139.706 27.0742 139.546 20.6068 137.558 19.038C135.57 17.4691 148.492 14.8757 148.492 14.8757Z" fill="#A0616A"/>
<path d="M152.212 23.8083C152.212 23.8083 142.624 20.2544 139.226 25.8254C139.226 25.8254 128.42 30.9161 127.618 33.9898C126.816 37.0634 134.095 60.2117 134.095 60.2117C134.095 60.2117 134.095 79.3579 132.556 81.343C131.017 83.3601 128.067 85.5052 130.087 85.9855C132.107 86.4337 163.627 89.8596 163.467 87.8425C163.306 85.8254 161.318 84.1285 163.467 82.9118C165.615 81.6632 163.787 80.2864 165.166 76.2843C166.545 72.2822 169.944 39.0805 169.944 39.0805C169.944 39.0805 167.635 34.9182 167.154 34.438C166.673 33.9577 152.212 23.8083 152.212 23.8083Z" fill="#FA6400"/>
<path d="M124.54 91.4285C124.54 91.4285 118.512 105.004 123.77 106.861C129.029 108.718 128.708 92.517 128.708 92.517L124.54 91.4285Z" fill="#A0616A"/>
<path d="M144.837 14.4594C144.292 13.3708 143.458 12.0901 142.24 12.1861C141.63 12.2182 141.085 12.6024 140.54 12.8905C139.995 13.1787 139.29 13.3388 138.777 12.9866C138.039 12.4743 138.264 11.2256 137.622 10.5853C136.917 9.91293 135.442 10.2971 134.993 9.40066C134.737 8.9204 134.961 8.34409 134.833 7.83182C134.095 7.89585 133.326 7.7998 132.62 7.57568C131.915 7.28753 131.306 6.64719 131.338 5.87878C131.37 5.3665 131.626 4.88625 132.043 4.56608C133.005 3.70162 134.352 3.54153 135.538 3.02926C136.468 2.61303 137.27 1.97269 138.2 1.52445C139.771 0.756044 141.598 0.595959 143.362 0.724027C146.023 0.91613 148.717 1.81261 150.641 3.63758C152.565 5.46255 153.591 8.37611 152.757 10.9055C152.276 12.3462 151.282 13.5309 150.737 14.9396C150.384 15.9001 150.16 16.8927 150.031 17.9172L149.647 20.3185C149.711 19.9343 148.877 19.0058 148.621 18.7817C148.043 18.3014 147.178 18.4615 146.633 18.0133C145.767 17.3409 145.318 15.4199 144.837 14.4594Z" fill="#2F2E41"/>
<path opacity="0.1" d="M131.209 32.9333L128.74 34.4701C128.74 34.4701 124.732 58.7071 125.181 62.1009C125.63 65.4947 123.321 84.6409 124.091 86.1777C124.86 87.7146 125.181 88.0347 125.181 88.9632C125.181 89.8917 123.033 93.2855 124.412 93.8939C125.79 94.5022 130.889 95.5908 130.889 93.8939C130.889 92.1969 129.959 89.8917 131.658 88.8031C133.358 87.7145 134.608 80.7668 134.608 80.7668C134.608 80.7668 135.378 73.659 136.147 72.2823C136.917 70.9056 138.007 65.8149 138.007 63.6377C138.007 61.4605 139.867 52.6879 138.777 48.2055C137.686 43.7231 137.366 31.6847 131.209 32.9333Z" fill="black"/>
<path d="M130.119 32.453L127.65 33.9899C127.65 33.9899 123.642 58.2268 124.091 61.6206C124.54 65.0144 122.231 84.1606 123.001 85.6974C123.77 87.2342 124.091 87.5544 124.091 88.4829C124.091 89.4114 121.943 92.8052 123.321 93.4135C124.7 94.0219 129.798 95.1104 129.798 93.4135C129.798 91.7166 128.869 89.4114 130.568 88.3228C132.267 87.2342 133.518 80.2865 133.518 80.2865C133.518 80.2865 134.288 73.1787 135.057 71.802C135.827 70.4253 136.917 65.3346 136.917 63.1574C136.917 60.9802 138.777 52.2076 137.686 47.7252C136.596 43.2428 136.308 31.2364 130.119 32.453Z" fill="#FA6400"/>
</g>
<defs>
<clipPath id="clip0">
<rect y="0.5" width="182" height="180" fill="white"/>
</clipPath>
</defs>
</svg>
