<svg width="147" height="184" viewBox="0 0 147 184" fill="none" xmlns="http://www.w3.org/2000/svg">
<g clip-path="url(#clip0)">
<path d="M124.277 28.2984L103.877 28.5069C102.924 23.7707 99.7075 11.4087 102.596 8.01286C102.864 5.36173 105.187 3.42552 107.838 3.57446C110.995 -1.37034 116.266 -0.62564 119.84 2.4723C123.413 3.7234 124.783 5.89791 124.307 8.87671C126.957 11.2002 127.464 14.03 126.272 17.2471L124.277 28.2984Z" fill="#2F2E41"/>
<path d="M122.311 40.8691L107.599 38.8435L104.651 34.5541C108.701 31.8732 110.131 28.1199 108.284 22.9964L118.47 22.7581C117.993 27.3156 119.482 30.8306 123.681 32.9455L122.311 40.8691Z" fill="#FFB9B9"/>
<path d="M104.115 173.664L103.549 181.349C103.46 182.689 104.472 183.881 105.813 183.97C105.932 183.97 106.021 183.97 106.14 183.97L110.101 183.732C110.786 183.702 111.322 183.106 111.263 182.421C111.263 182.332 111.233 182.272 111.233 182.183L109.029 173.396L104.115 173.664Z" fill="#E6E6E6"/>
<path d="M116.921 173.425L114.717 182.213C114.538 182.868 114.955 183.553 115.64 183.732C115.73 183.762 115.789 183.762 115.879 183.762L119.84 184C121.18 184.089 122.341 183.047 122.43 181.706C122.43 181.587 122.43 181.498 122.43 181.379L121.865 173.693L116.921 173.425Z" fill="#E6E6E6"/>
<path d="M122.103 174.736L116.742 174.2L111.441 117.424L109.446 174.021L104.205 173.842L95.3595 95.4702H129.102L122.103 174.736Z" fill="#FA6400"/>
<path d="M113.943 26.6005C119.568 26.6005 124.128 22.0394 124.128 16.4131C124.128 10.7867 119.568 6.22559 113.943 6.22559C108.318 6.22559 103.758 10.7867 103.758 16.4131C103.758 22.0394 108.318 26.6005 113.943 26.6005Z" fill="#FFB9B9"/>
<path d="M134.075 97.2873L92.8578 97.7341C98.9629 74.4399 102.626 52.8139 96.2529 37.9497L106.438 32.9751C111.352 38.0987 116.832 37.5625 122.728 32.5283L132.467 35.0305C130.829 54.482 131.573 75.3931 134.075 97.2873Z" fill="#FA6400"/>
<path d="M81.5409 73.2783L107.123 83.4658L112.841 85.1339C113.883 85.4318 114.985 84.836 115.283 83.7934C115.283 83.7636 115.283 83.7339 115.313 83.7041C115.551 82.7806 115.075 81.7976 114.181 81.4104L108.255 79.5933L90.3561 69.1676L94.0788 59.3078L86.2761 55.1077L81.5409 73.2783Z" fill="#FFB9B9"/>
<path d="M81.7792 54.6905C86.6335 56.597 90.5051 59.8438 93.5428 64.1929L103.043 50.3713L96.2528 37.9199L81.7792 54.6905Z" fill="#FA6400"/>
<path d="M125.409 14.7748C121.269 13.7025 117.219 13.5535 113.258 14.9238C110.726 16.1451 107.719 16.0259 104.353 15.0132V4.85547L122.52 5.33208L125.409 14.7748Z" fill="#2F2E41"/>
<path d="M107.063 61.3928C105.396 61.3928 104.055 62.7333 104.055 64.4014L105.247 89.3339C105.247 91.002 106.587 92.3425 108.255 92.3425H121.865C123.532 92.3425 124.872 91.002 124.872 89.3339L126.064 64.4014C126.064 62.7333 124.724 61.3928 123.056 61.3928H107.063Z" fill="#3F3D56"/>
<path d="M145.69 71.372L123.383 80.2488L121.686 80.9041C121.626 80.9339 121.567 80.9339 121.537 80.9637L115.908 82.6318C115.194 82.8403 114.181 81.8871 113.615 81.202C113.02 80.5466 112.99 79.5339 113.556 78.8487C113.645 78.7594 113.705 78.67 113.824 78.6104C114.032 78.4317 114.3 78.3423 114.568 78.2828L120.197 77.1806C120.405 77.1508 120.584 77.0615 120.763 76.9721L123.383 75.4529L137.023 67.4995C137.798 67.0527 138.155 66.0995 137.827 65.2357L135.236 58.3844C134.909 57.5206 135.266 56.5376 136.1 56.0908L140.418 53.7673C141.312 53.2907 142.443 53.6184 142.92 54.512C142.98 54.6312 143.039 54.7801 143.069 54.929L146.821 69.1974C147.03 70.0911 146.583 71.0443 145.69 71.372Z" fill="#FFB9B9"/>
<path d="M147 52.2181C142.146 54.1246 138.274 57.3715 135.237 61.7205L125.736 47.8989L132.526 35.0007L147 52.2181Z" fill="#FA6400"/>
<path d="M120.703 25.4985C116.236 27.3453 111.56 27.2858 106.706 25.4985C108.135 23.0857 105.991 21.1792 104.919 18.7366L123.086 18.2004C121.716 20.3154 119.661 22.8176 120.703 25.4985Z" fill="white"/>
<path d="M122.907 18.6174L122.698 18.4089L122.996 18.111L124.783 16.0259L124.992 16.2046L123.205 18.2898L122.907 18.6174Z" fill="white"/>
<path d="M103.681 17.3569L103.49 17.5857L105.275 19.0732L105.465 18.8443L103.681 17.3569Z" fill="white"/>
<path d="M123.436 20.3555L120.302 25.2808L120.553 25.4407L123.688 20.5154L123.436 20.3555Z" fill="white"/>
<path d="M104.025 20.3603L103.774 20.5203L106.908 25.4461L107.159 25.2862L104.025 20.3603Z" fill="white"/>
<path d="M123.979 75.0061V80.3977L122.103 81.1424C122.043 81.1722 121.984 81.1722 121.924 81.202L115.64 83.0488C114.836 83.2871 113.734 82.2148 113.079 81.4403C112.424 80.6956 112.394 79.5637 113.02 78.7892C113.109 78.6998 113.198 78.6104 113.317 78.5211C113.556 78.3424 113.853 78.1934 114.151 78.1636L120.435 76.9125C120.673 76.8827 120.882 76.7934 121.09 76.6742L123.979 75.0061Z" fill="white"/>
<path d="M126.719 55.763H125.647C125.647 40.5414 122.52 29.9369 119.452 29.9369L119.184 28.8645C121.924 28.8645 123.681 33.2731 124.664 36.9966C125.975 42.001 126.719 48.6735 126.719 55.763Z" fill="#3F3D56"/>
<path d="M101.971 52.0097H100.899C100.899 38.0689 104.055 29.4006 108.701 29.4006L108.433 30.473C105.217 30.473 101.971 37.1157 101.971 52.0097Z" fill="#3F3D56"/>
<path d="M126.183 58.7119C127.663 58.7119 128.863 57.5116 128.863 56.031C128.863 54.5504 127.663 53.3501 126.183 53.3501C124.703 53.3501 123.503 54.5504 123.503 56.031C123.503 57.5116 124.703 58.7119 126.183 58.7119Z" fill="#3F3D56"/>
<path d="M97.6524 58.444H96.5803C96.5803 54.5716 98.7544 51.4438 101.435 51.4438V52.5162C99.35 52.546 97.6524 55.1971 97.6524 58.444Z" fill="#3F3D56"/>
<path d="M106.259 58.444H105.187C105.187 55.1673 103.49 52.5162 101.435 52.5162V51.4438C104.085 51.4438 106.259 54.6014 106.259 58.444Z" fill="#3F3D56"/>
<path d="M105.723 59.7844C106.315 59.7844 106.795 59.3043 106.795 58.712C106.795 58.1198 106.315 57.6396 105.723 57.6396C105.131 57.6396 104.651 58.1198 104.651 58.712C104.651 59.3043 105.131 59.7844 105.723 59.7844Z" fill="#3F3D56"/>
<path d="M97.1166 59.7844C97.7087 59.7844 98.1887 59.3043 98.1887 58.712C98.1887 58.1198 97.7087 57.6396 97.1166 57.6396C96.5244 57.6396 96.0444 58.1198 96.0444 58.712C96.0444 59.3043 96.5244 59.7844 97.1166 59.7844Z" fill="#3F3D56"/>
<path d="M44.6122 22.5495L25.7011 25.7368C24.7481 25.9156 23.7951 25.3198 23.5271 24.3666C22.1572 19.4516 19.2982 13.0174 22.0678 9.77052C22.3656 6.94067 24.8077 4.85552 27.6667 5.03424C31.032 -0.238219 36.6606 0.536267 40.4726 3.84273C44.2846 5.15339 45.7439 7.50664 45.2376 10.6939C46.8756 12.1536 47.769 13.7621 47.9477 15.5494C48.1264 17.575 47.4116 19.541 46.0119 21.0304L44.6122 22.5495Z" fill="#2F2E41"/>
<path d="M41.6639 37.4433L27.0116 36.5795C28.4411 33.273 29.0069 30.1155 28.4411 27.1069H39.3708C39.341 29.4006 40.5025 33.3922 41.6639 37.4433Z" fill="#9F616A"/>
<path d="M24.0334 172.859L23.4378 181.081C23.3187 182.511 24.4206 183.762 25.8501 183.881C25.9692 183.881 26.0883 183.881 26.2074 183.881L30.4364 183.613C31.1809 183.553 31.717 182.928 31.6872 182.213C31.6872 182.123 31.6574 182.064 31.6574 181.975L29.3047 172.591L24.0334 172.859Z" fill="#E6E6E6"/>
<path d="M37.7029 172.591L35.3502 181.975C35.1715 182.689 35.6182 183.404 36.333 183.583C36.4223 183.613 36.4819 183.613 36.5712 183.613L40.8001 183.881C42.2296 183.97 43.4805 182.868 43.5698 181.438C43.5698 181.319 43.5698 181.2 43.5698 181.081L42.9742 172.859L37.7029 172.591Z" fill="#E6E6E6"/>
<path d="M43.2125 173.991L37.5243 173.425L31.8659 112.807L29.7216 173.217L24.1228 173.038L14.6821 89.334H50.7174L43.2125 173.991Z" fill="#6A00FF"/>
<path d="M34.1887 30.5623C40.1922 30.5623 45.0589 25.6945 45.0589 19.6897C45.0589 13.685 40.1922 8.81714 34.1887 8.81714C28.1853 8.81714 23.3186 13.685 23.3186 19.6897C23.3186 25.6945 28.1853 30.5623 34.1887 30.5623Z" fill="#9F616A"/>
<path d="M46.4587 14.5068C42.0511 13.7323 37.703 13.6429 33.4741 14.5961C30.7938 15.4898 27.5476 15.4004 23.9739 14.6557V7.32788L43.3614 7.68534L46.4587 14.5068Z" fill="#2F2E41"/>
<path d="M41.4256 28.4177C36.6606 30.3837 31.6872 30.3241 26.4755 28.4177C27.9943 25.8262 25.7309 23.8006 24.5695 21.209L43.957 20.6431C42.4977 22.9069 40.2939 25.5879 41.4256 28.4177Z" fill="white"/>
<path d="M23.2338 19.7365L23.0431 19.9653L24.942 21.5482L25.1326 21.3193L23.2338 19.7365Z" fill="white"/>
<path d="M44.3278 22.9477L40.9854 28.1997L41.2366 28.3597L44.579 23.1077L44.3278 22.9477Z" fill="white"/>
<path d="M23.5987 22.9555L23.3474 23.1155L26.6892 28.3681L26.9405 28.2082L23.5987 22.9555Z" fill="white"/>
<path d="M13.5206 69.3165L5.18188 64.1334L12.2996 43.3116C13.1037 41.1669 14.6225 39.3498 16.5881 38.2179L18.9706 36.8179L19.179 57.8184L13.5206 69.3165Z" fill="#6A00FF"/>
<path d="M49.5261 79.4443L48.3051 68.8696C48.2455 63.2993 49.1985 57.9077 51.4619 52.9331L52.6234 37.4136L39.9961 32.2305C39.9664 32.4986 39.9366 32.7369 39.877 33.005L33.9506 35.954L28.173 34.6433L28.2028 32.7964L16.6775 38.0093C20.4895 55.6736 18.4048 74.0229 11.8827 95.7085L27.0115 99.8491L27.1307 92.5808L40.6215 91.6276C40.7705 93.9808 40.8598 96.3043 40.9491 98.5682C48.5731 101.368 48.8114 101.338 55.7504 97.3171C52.9807 91.4786 50.8067 85.4317 49.5261 79.4443Z" fill="#6A00FF"/>
<path d="M68.9435 66.7547L61.2004 64.1631L48.7816 49.716L52.5936 37.4434L69.8071 61.5716L68.9435 66.7547Z" fill="#6A00FF"/>
<path d="M44.642 77.9252C44.91 79.0869 46.0715 79.8018 47.2329 79.5635L53.8146 78.0741L52.8616 73.874L46.2799 75.3634C45.1185 75.6017 44.3739 76.7635 44.642 77.9252Z" fill="#E6E6E6"/>
<path d="M50.5685 73.0697L54.2911 79.9805C60.575 78.223 66.0249 72.7122 71.2366 66.1887L69.8071 61.6013L60.9026 63.895L50.5685 73.0697Z" fill="#6A00FF"/>
<path d="M1.87622 51.4438L9.05349 52.7247L25.4331 76.0189L16.737 73.9635L1.87622 51.4438Z" fill="#E6E6E6"/>
<path d="M0.595624 51.1458C0.268031 51.1458 0 51.4138 0 51.7713C0 51.8905 0.0297812 52.0096 0.0893436 52.099L15.3969 75.3336C15.4862 75.4527 15.6053 75.5421 15.7543 75.6016L22.872 77.2698C23.1996 77.3591 23.5271 77.1506 23.6165 76.8229C23.6463 76.6442 23.6165 76.4655 23.5271 76.3463L6.70077 52.4266C6.61143 52.3075 6.46252 52.2181 6.31361 52.1883L0.684968 51.1755C0.684968 51.1458 0.625405 51.1458 0.595624 51.1458Z" fill="#3F3D56"/>
<path d="M10.1554 67.7676L10.5723 72.0571L17.3029 71.4017C18.4941 71.2826 19.3578 70.24 19.2387 69.0485C19.1195 67.857 18.0772 66.9931 16.886 67.1123L10.1554 67.7676Z" fill="#E6E6E6"/>
<path d="M4.31824 67.2611C4.34802 70.2994 6.81986 72.7718 9.85754 72.7718H10.9594L11.7635 66.0696L5.09255 63.6865L4.31824 67.2611Z" fill="#6A00FF"/>
<path d="M43.4508 21.3877L43.2423 21.1792L43.5699 20.8515L45.4461 18.6472L45.6844 18.8259L43.7784 21.06L43.4508 21.3877Z" fill="white"/>
</g>
<defs>
<clipPath id="clip0">
<rect width="147" height="184" fill="white"/>
</clipPath>
</defs>
</svg>
