<svg width="405" height="361" viewBox="0 0 405 361" fill="none" xmlns="http://www.w3.org/2000/svg">
<path d="M203.264 4.58496L76.415 82.6881C76.415 82.6881 76.415 243.776 203.264 331.642C330.113 243.776 330.113 82.6881 330.113 82.6881L203.264 4.58496Z" fill="#6A00FF"/>
<path opacity="0.552269" d="M203.92 4.58496L201.736 5.92006V330.118C202.461 330.628 203.186 331.137 203.92 331.642C331.642 243.776 331.642 82.6881 331.642 82.6881L203.92 4.58496Z" fill="#6C63FF"/>
<g opacity="0.7">
<path d="M172.427 163.561L196.41 185.721L226.14 142.489L238.131 152.562L196.41 205.866L162.434 167.59L172.427 163.561Z" fill="url(#paint0_linear)"/>
</g>
<path d="M177.665 164.751L196.922 182.523L224.202 142.132L233.83 150.211L196.922 198.68L169.642 167.983L177.665 164.751Z" fill="#3AD29F"/>
<path opacity="0.5" d="M77.4429 22.9764C76.661 22.6359 76.2586 21.7632 76.5074 20.9474C76.5269 20.887 76.5391 20.8245 76.5439 20.7612C76.5665 20.3905 76.3435 20.0488 75.995 19.9202C75.6466 19.7917 75.2551 19.9067 75.0315 20.2033C74.994 20.2545 74.9628 20.31 74.9383 20.3686C74.5978 21.1505 73.7251 21.5528 72.9093 21.304C72.8489 21.2846 72.7864 21.2723 72.7231 21.2675C72.3524 21.2449 72.0107 21.468 71.8822 21.8164C71.7536 22.1649 71.8686 22.5564 72.1652 22.78C72.2164 22.8174 72.2719 22.8487 72.3305 22.8731C73.1124 23.2137 73.5148 24.0864 73.2659 24.9021C73.2465 24.9626 73.2342 25.0251 73.2294 25.0883C73.2069 25.4591 73.4299 25.8008 73.7784 25.9293C74.1268 26.0578 74.5183 25.9428 74.7419 25.6463C74.7793 25.595 74.8106 25.5395 74.8351 25.481C75.1756 24.699 76.0483 24.2967 76.8641 24.5455C76.9245 24.565 76.987 24.5772 77.0503 24.582C77.421 24.6046 77.7627 24.3815 77.8912 24.0331C78.0197 23.6847 77.9048 23.2931 77.6082 23.0696C77.5569 23.0321 77.5015 23.0008 77.4429 22.9764Z" fill="#4D8AF0"/>
<path opacity="0.5" d="M8.66946 175.806C7.88753 175.466 7.48518 174.593 7.73401 173.777C7.75345 173.717 7.76571 173.655 7.77051 173.591C7.79308 173.221 7.57004 172.879 7.22159 172.75C6.87314 172.622 6.48162 172.737 6.25804 173.033C6.22059 173.085 6.18932 173.14 6.16488 173.199C5.82433 173.981 4.95164 174.383 4.13588 174.134C4.07547 174.115 4.01297 174.102 3.94968 174.098C3.57897 174.075 3.23726 174.298 3.10872 174.647C2.98018 174.995 3.09518 175.386 3.39175 175.61C3.44299 175.648 3.49847 175.679 3.55705 175.703C4.33897 176.044 4.74132 176.916 4.4925 177.732C4.47305 177.793 4.46079 177.855 4.45599 177.918C4.43342 178.289 4.65647 178.631 5.00492 178.759C5.35337 178.888 5.74488 178.773 5.96847 178.476C6.00591 178.425 6.03718 178.37 6.06162 178.311C6.40217 177.529 7.27486 177.127 8.09062 177.376C8.15104 177.395 8.21353 177.407 8.27682 177.412C8.64753 177.435 8.98923 177.212 9.11777 176.863C9.24631 176.515 9.13131 176.123 8.83475 175.9C8.78351 175.862 8.72803 175.831 8.66946 175.806Z" fill="#4D8AF0"/>
<path opacity="0.5" d="M353.038 122.264C354.726 122.264 356.095 120.896 356.095 119.207C356.095 117.519 354.726 116.151 353.038 116.151C351.35 116.151 349.981 117.519 349.981 119.207C349.981 120.896 351.35 122.264 353.038 122.264Z" fill="#F55F44"/>
<path opacity="0.5" d="M94.6797 301.165C96.3678 301.165 97.7363 299.797 97.7363 298.109C97.7363 296.421 96.3678 295.052 94.6797 295.052C92.9915 295.052 91.623 296.421 91.623 298.109C91.623 299.797 92.9915 301.165 94.6797 301.165Z" fill="#F55F44"/>
<path opacity="0.5" d="M400.415 232.302C402.104 232.302 403.472 230.934 403.472 229.246C403.472 227.557 402.104 226.189 400.415 226.189C398.727 226.189 397.359 227.557 397.359 229.246C397.359 230.934 398.727 232.302 400.415 232.302Z" fill="#F55F44"/>
<path opacity="0.5" d="M331.142 36.7308C330.36 36.3902 329.957 35.5176 330.206 34.7018C330.226 34.6414 330.238 34.5789 330.243 34.5156C330.265 34.1449 330.042 33.8032 329.694 33.6746C329.345 33.5461 328.954 33.6611 328.73 33.9577C328.693 34.0089 328.661 34.0644 328.637 34.123C328.296 34.9049 327.424 35.3072 326.608 35.0584C326.548 35.039 326.485 35.0267 326.422 35.0219C326.051 34.9993 325.709 35.2224 325.581 35.5708C325.452 35.9193 325.567 36.3108 325.864 36.5344C325.915 36.5718 325.971 36.6031 326.029 36.6275C326.811 36.9681 327.213 37.8408 326.965 38.6565C326.945 38.7169 326.933 38.7794 326.928 38.8427C326.906 39.2134 327.129 39.5552 327.477 39.6837C327.826 39.8122 328.217 39.6972 328.441 39.4007C328.478 39.3494 328.509 39.2939 328.534 39.2354C328.874 38.4534 329.747 38.0511 330.563 38.2999C330.623 38.3194 330.686 38.3316 330.749 38.3364C331.12 38.359 331.461 38.1359 331.59 37.7875C331.718 37.439 331.603 37.0475 331.307 36.824C331.256 36.7865 331.2 36.7552 331.142 36.7308Z" fill="#4D8AF0"/>
<path opacity="0.5" d="M378.52 331.693C377.738 331.353 377.335 330.48 377.584 329.664C377.604 329.604 377.616 329.542 377.621 329.478C377.643 329.108 377.42 328.766 377.072 328.637C376.723 328.509 376.332 328.624 376.108 328.92C376.071 328.972 376.039 329.027 376.015 329.086C375.674 329.868 374.802 330.27 373.986 330.021C373.926 330.002 373.863 329.989 373.8 329.985C373.429 329.962 373.087 330.185 372.959 330.533C372.83 330.882 372.945 331.273 373.242 331.497C373.293 331.534 373.349 331.566 373.407 331.59C374.189 331.931 374.591 332.803 374.343 333.619C374.323 333.68 374.311 333.742 374.306 333.805C374.284 334.176 374.507 334.518 374.855 334.646C375.203 334.775 375.595 334.66 375.819 334.363C375.856 334.312 375.887 334.257 375.912 334.198C376.252 333.416 377.125 333.014 377.941 333.263C378.001 333.282 378.064 333.294 378.127 333.299C378.498 333.322 378.839 333.099 378.968 332.75C379.096 332.402 378.981 332.01 378.685 331.787C378.634 331.749 378.578 331.718 378.52 331.693Z" fill="#4D8AF0"/>
<path opacity="0.5" d="M5.61281 85.6366C4.83089 85.296 4.42854 84.4233 4.67736 83.6076C4.69681 83.5471 4.70907 83.4846 4.71387 83.4214C4.73644 83.0506 4.5134 82.7089 4.16495 82.5804C3.81649 82.4519 3.42498 82.5669 3.2014 82.8634C3.16395 82.9147 3.13268 82.9702 3.10824 83.0287C2.76769 83.8106 1.895 84.213 1.07924 83.9642C1.01883 83.9447 0.956328 83.9325 0.893043 83.9277C0.522326 83.9051 0.180623 84.1281 0.0520829 84.4766C-0.0764569 84.825 0.0385428 85.2166 0.335107 85.4401C0.38635 85.4776 0.441833 85.5089 0.500406 85.5333C1.28233 85.8738 1.68468 86.7465 1.43586 87.5623C1.41641 87.6227 1.40415 87.6852 1.39935 87.7485C1.37678 88.1192 1.59982 88.4609 1.94828 88.5895C2.29673 88.718 2.68824 88.603 2.91183 88.3064C2.94927 88.2552 2.98054 88.1997 3.00498 88.1411C3.34553 87.3592 4.21822 86.9569 5.03398 87.2057C5.0944 87.2251 5.15689 87.2374 5.22018 87.2422C5.59089 87.2647 5.93259 87.0417 6.06113 86.6933C6.18967 86.3448 6.07467 85.9533 5.77811 85.7297C5.72687 85.6923 5.67139 85.661 5.61281 85.6366Z" fill="#4D8AF0"/>
<path opacity="0.5" d="M36.6797 137.547C38.3678 137.547 39.7363 136.179 39.7363 134.491C39.7363 132.803 38.3678 131.434 36.6797 131.434C34.9915 131.434 33.623 132.803 33.623 134.491C33.623 136.179 34.9915 137.547 36.6797 137.547Z" fill="#47E6B1"/>
<path opacity="0.5" d="M401.943 158.944C403.631 158.944 405 157.575 405 155.887C405 154.199 403.631 152.831 401.943 152.831C400.255 152.831 398.887 154.199 398.887 155.887C398.887 157.575 400.255 158.944 401.943 158.944Z" fill="#47E6B1"/>
<g opacity="0.5">
<rect x="274.279" width="1.5283" height="7.64152" fill="#47E6B1"/>
<path d="M279.374 3.14667V4.49517H270.714V3.14667L279.374 3.14667Z" fill="#47E6B1"/>
</g>
<g opacity="0.5">
<rect x="280.391" y="314.831" width="1.5283" height="7.64152" fill="#47E6B1"/>
<path d="M285.487 317.977V319.325H276.827V317.977H285.487Z" fill="#47E6B1"/>
</g>
<g opacity="0.5">
<rect x="51.0712" y="307.279" width="1.5283" height="7.64152" fill="#47E6B1"/>
<path d="M56.1658 310.425V311.773H47.5054V310.425H56.1658Z" fill="#47E6B1"/>
</g>
<g opacity="0.5">
<rect x="333.881" y="186.453" width="1.5283" height="7.64152" fill="#47E6B1"/>
<path d="M338.977 189.6V190.948H330.316V189.6H338.977Z" fill="#47E6B1"/>
</g>
<path opacity="0.5" d="M374.244 57.1588L377.453 60.0405L382 53.4907L383.605 54.8008L377.453 62.6605L372.907 57.6829L374.244 57.1588Z" fill="#47E6B1"/>
<path d="M277.587 113.075L288.054 112.669L288.576 126.146L278.109 126.552L277.587 113.075Z" fill="#6C63FF"/>
<path d="M241.108 159.231C241.108 159.231 225.949 152.375 226.192 158.296C226.434 164.217 241.472 168.113 241.472 168.113L241.108 159.231Z" fill="#FFB9B9"/>
<path d="M248.551 211.279C248.551 211.279 241.71 228.037 239.183 240.13C236.655 252.222 232.806 268.865 237.757 280.667C242.709 292.47 256.786 327.158 256.931 330.901C257.076 334.643 255.726 338.444 258.717 338.328C261.709 338.212 277.989 333.082 278.65 330.807C279.311 328.533 273.095 322.777 273.095 322.777L257.748 274.644L273.761 243.286L285.311 290.067L287.573 348.453C287.573 348.453 298.675 345.024 300.287 347.96C300.287 347.96 305.262 341.02 305.893 337.996C306.525 334.973 303.544 277.364 303.544 277.364C303.544 277.364 313.735 211.747 305.508 212.067C297.281 212.386 265.057 192.646 248.551 211.279Z" fill="#1E2933"/>
<path d="M259.321 335.193C259.321 335.193 251.654 351.72 250.928 352.485C250.202 353.251 245.205 360.82 248.983 360.678C252.762 360.535 261.682 356.507 268.248 350.354C274.814 344.201 283.472 333.541 282.687 332.833C281.902 332.124 276.525 330.114 276.525 330.114L259.321 335.193Z" fill="#575A89"/>
<path d="M295.273 100.868C295.273 100.868 303.359 112.998 306.512 115.806C309.664 118.613 300.796 124.794 300.796 124.794L284.923 126.849C284.923 126.849 285.123 112.948 284.305 111.515C283.488 110.083 295.273 100.868 295.273 100.868Z" fill="#FFB9B9"/>
<path d="M281.127 116.493C281.127 116.493 284.37 122.32 287.379 122.204C290.389 122.089 305.954 115.543 306.619 113.286C307.283 111.029 311.774 129.452 311.774 129.452L273.687 195.623L264.397 189.284L268.898 150.433L272.596 129.465L281.127 116.493Z" fill="#1E2933"/>
<path d="M308.445 176.07C306.935 179.229 305.992 182.524 306.123 185.897C306.128 186.047 306.134 186.197 306.147 186.346C306.506 193.268 309.056 201.274 309.971 207.096C310.634 211.272 310.445 214.321 308.001 215.037C302.076 216.765 308.865 218 285.942 225.63C263.018 233.261 259.018 226.675 258.96 225.179C258.902 223.683 262.206 212.319 261.429 211.6C260.652 210.881 250.559 221.01 247.509 219.63C244.46 218.251 247.161 210.655 247.161 210.655C247.161 210.655 254.031 194.659 253.886 190.919C253.741 187.18 264.293 169.543 264.293 169.543L271.469 122.823C271.469 122.823 274.229 116.724 277.939 115.831C281.65 114.938 284.728 117.066 284.728 117.066L278.519 130.789L271.968 155.013L273.064 163.959C273.064 163.959 280.682 147.934 285.685 141.747C290.688 135.561 301.356 120.915 301.356 120.915C301.356 120.915 303.846 112.512 301.966 110C300.086 107.482 309.808 107.105 313.954 117.431C316.151 122.903 319.718 131.064 321.953 138.663C323.944 145.395 324.885 151.687 322.912 155.285C319.897 160.78 312.312 168.002 308.445 176.07Z" fill="#575A89"/>
<path opacity="0.1" d="M322.924 154.721C319.946 160.282 312.454 167.591 308.635 175.755C307.637 172.073 306.42 168.263 306.42 168.263C306.42 168.263 301.752 142.676 315.559 136.063C317.847 135.836 320.135 136.491 321.977 137.9C323.944 144.712 324.873 151.081 322.924 154.721Z" fill="black"/>
<path d="M266.317 154.358L254.69 157.734L238.548 158.357L236.887 172.324L263.416 174.226C263.416 174.226 270.042 155.678 266.317 154.358Z" fill="#575A89"/>
<path d="M286.436 201.736C286.436 201.736 270.461 204.286 274.107 208.91C277.753 213.535 291.906 208.673 291.906 208.673L286.436 201.736Z" fill="#FFB9B9"/>
<path opacity="0.1" d="M306.371 186.453C306.734 193.433 309.319 201.504 310.246 207.374C305.127 212.194 300.26 216.445 298.425 216.516C294.635 216.662 288.542 216.142 286.297 216.983C284.053 217.825 282.736 203.527 282.736 203.527C282.736 203.527 284.076 198.944 290.052 196.448C294.085 194.759 301.817 190.178 306.371 186.453Z" fill="black"/>
<path d="M315.14 133.013C315.14 133.013 327.71 131.033 327.031 151.93C326.352 172.826 328.356 186.165 323.3 190.088C318.245 194.012 301.824 211.793 298.11 211.937C294.396 212.081 288.425 211.568 286.226 212.399C284.026 213.23 282.736 199.118 282.736 199.118C282.736 199.118 284.049 194.595 289.905 192.131C295.76 189.668 309.556 180.933 309.441 177.956C309.326 174.979 305.951 164.675 305.951 164.675C305.951 164.675 301.258 139.515 315.14 133.013Z" fill="#575A89"/>
<path d="M284.264 119.208C293.549 119.208 301.076 111.681 301.076 102.396C301.076 93.1117 293.549 85.585 284.264 85.585C274.98 85.585 267.453 93.1117 267.453 102.396C267.453 111.681 274.98 119.208 284.264 119.208Z" fill="#FFB9B9"/>
<path d="M273.059 78.22C272.667 78.563 272.197 78.8022 271.691 78.9164C271.162 79.012 270.657 78.6569 270.559 78.1215C270.187 78.9046 269.767 79.7392 269.007 80.1411C268.247 80.5429 267.071 80.206 266.962 79.3437C266.851 79.9984 266.565 80.6098 266.136 81.1116C265.664 81.5677 264.809 81.6828 264.397 81.1706C264.73 83.0157 264.524 84.9132 264.629 86.786C264.734 88.6588 265.226 90.6442 266.621 91.8757C268.656 93.6717 271.715 93.2285 274.392 92.8882C274.796 92.8021 275.216 92.8254 275.609 92.9558C276.612 93.3888 276.566 94.8036 276.58 95.9082C276.748 99.9106 279.743 103.204 283.663 103.699C284.725 103.865 285.809 103.597 286.676 102.953C287.436 102.299 287.824 101.235 288.695 100.744C290.111 99.9458 291.829 101.11 292.865 102.374C293.9 103.638 294.921 105.193 296.525 105.424C298.647 105.73 300.263 103.537 301.056 101.518C303.266 95.8002 303.105 89.4197 300.61 83.8241C296.179 74.0299 281.046 72.4808 273.059 78.22Z" fill="#2F2E41"/>
<defs>
<linearGradient id="paint0_linear" x1="162.434" y1="205.867" x2="238.131" y2="205.867" gradientUnits="userSpaceOnUse">
<stop stop-color="#808080" stop-opacity="0.25"/>
<stop offset="0.53514" stop-color="#808080" stop-opacity="0.12"/>
<stop offset="1" stop-color="#808080" stop-opacity="0.1"/>
</linearGradient>
</defs>
</svg>
