<svg width="22" height="17" viewBox="0 0 22 17" fill="none" xmlns="http://www.w3.org/2000/svg">
<path d="M21.7761 2.03592C20.9943 2.37961 20.1663 2.60658 19.3185 2.70958C20.2122 2.17319 20.8812 1.33115 21.2017 0.339372C20.3564 0.829603 19.4364 1.1778 18.4784 1.37009C17.8341 0.681722 16.9807 0.225219 16.0505 0.0714096C15.1203 -0.0823997 14.1653 0.0750843 13.3338 0.519428C12.5022 0.963772 11.8405 1.67013 11.4514 2.52892C11.0623 3.38771 10.9675 4.35091 11.1817 5.26908C7.62216 5.10263 4.46668 3.39237 2.35628 0.808713C1.97211 1.46206 1.77119 2.20689 1.77466 2.96481C1.77414 3.66938 1.94761 4.36318 2.27967 4.9846C2.61173 5.60602 3.0921 6.13582 3.67814 6.52697C2.99901 6.50644 2.33468 6.32357 1.74072 5.99365V6.04522C1.74051 7.03418 2.08225 7.99279 2.70803 8.75859C3.3338 9.52439 4.20511 10.0503 5.17428 10.2471C4.80716 10.3452 4.42891 10.3954 4.04891 10.3966C3.77409 10.3966 3.51168 10.3698 3.24992 10.3215C3.52573 11.1725 4.06001 11.9164 4.77838 12.4496C5.49676 12.9827 6.36348 13.2787 7.25792 13.2962C5.74246 14.483 3.87252 15.1268 1.94765 15.1246C1.60671 15.1259 1.266 15.1067 0.927368 15.0671C2.89096 16.3253 5.17452 16.9932 7.50662 16.9915C15.3836 16.9915 19.6879 10.4671 19.6879 4.81671C19.6879 4.63655 19.6879 4.45312 19.6742 4.26904C20.5162 3.66559 21.2419 2.91451 21.816 2.05224L21.7761 2.03592Z" fill="white"/>
</svg>
